<!--
  - Copyright (c) 2022 NetEase, Inc. All rights reserved.
  - Use of this source code is governed by a MIT license that can be
  - found in the LICENSE file.
  -
  -->

<svg xmlns="http://www.w3.org/2000/svg" fill="none" version="1.1" width="36"
     height="36" viewBox="0 0 36 36">
    <defs>
        <clipPath id="master_svg0_6674_055148">
            <rect x="6" y="6" width="24" height="24" rx="0"/>
        </clipPath>
    </defs>
    <g>
        <g>
            <ellipse cx="18" cy="18" rx="18" ry="18" fill="#53C3F3" fill-opacity="1"/>
        </g>
        <g clip-path="url(#master_svg0_6674_055148)">
            <g>
                <g>
                    <path d="M23.3602305078125,18.808593750000004C22.8224005078125,18.8085937386662,22.2898505078125,18.91452575,21.7929605078125,19.12034175C21.2960805078125,19.32615875,20.8446005078125,19.62782775,20.4643005078125,20.00812375C20.0840035078125,20.38842375,19.7823355078125,20.83990375,19.5765195078125,21.33679375C19.3707035078125,21.83367375,19.2647705078125,22.36623375,19.2647705078125,22.90405375C19.2647705078125,23.44188375,19.3707035078125,23.97443375,19.5765195078125,24.47132375C19.7823355078125,24.96820375,20.0840035078125,25.41968375,20.4643005078125,25.79998375C20.8446005078125,26.18028375,21.2960805078125,26.48195375,21.7929605078125,26.687773749999998C22.2898505078125,26.893583749999998,22.8224005078125,26.99951375,23.3602305078125,26.99951375C24.4464105078125,26.99951375,25.4881105078125,26.568033749999998,26.2561505078125,25.79998375C27.024200507812502,25.03193375,27.455680507812502,23.99024375,27.455680507812502,22.90405375C27.455680507812502,21.81787375,27.024200507812502,20.77617375,26.2561505078125,20.00812375C25.4881105078125,19.24007875,24.4464105078125,18.808593750000004,23.3602305078125,18.808593750000004C23.3602305078125,18.808593750000004,23.3602305078125,18.808593750000004,23.3602305078125,18.808593750000004ZM20.3068405078125,22.90405375C20.3068405078125,22.50307375,20.3858205078125,22.10602375,20.5392605078125,21.73557375C20.6927105078125,21.36511375,20.9176205078125,21.028513750000002,21.2011505078125,20.74498375C21.484690507812502,20.46144375,21.8212905078125,20.23653375,22.1917505078125,20.08308375C22.5622005078125,19.92964375,22.9592505078125,19.85066375,23.3602305078125,19.85066375C24.0324505078125,19.85263375,24.684870507812498,20.07838375,25.2145605078125,20.49228375C25.2145605078125,20.49228375,20.7857805078125,24.53086375,20.7857805078125,24.53086375C20.4749205078125,24.045123750000002,20.3091605078125,23.480753749999998,20.3079705078125,22.90405375C20.3079705078125,22.90405375,20.3068405078125,22.90405375,20.3068405078125,22.90405375ZM23.3602305078125,25.95745375C22.687870507812498,25.95515375,22.0354405078125,25.72899375,21.5059005078125,25.31469375C21.5059005078125,25.31469375,25.935810507812498,21.27611375,25.935810507812498,21.27611375C26.2350105078125,21.74936375,26.4136205078125,22.30452375,26.4136205078125,22.90405375C26.4136205078125,23.71386375,26.0919205078125,24.490513749999998,25.5193005078125,25.06313375C24.946680507812502,25.63575375,24.1700405078125,25.95745375,23.3602305078125,25.95745375C23.3602305078125,25.95745375,23.3602305078125,25.95745375,23.3602305078125,25.95745375Z"
                          fill="#FFFFFF" fill-opacity="1"/>
                </g>
                <g>
                    <path d="M19.97927,19.5042C20.0282,19.5178,20.0771,19.5337,20.131700000000002,19.5337C20.204,19.5726,20.2842,19.5946,20.366300000000003,19.598C20.4483,19.601399999999998,20.530099999999997,19.586199999999998,20.6053,19.5534C20.6806,19.5206,20.747500000000002,19.4712,20.8009,19.4088C20.854300000000002,19.3465,20.892899999999997,19.2728,20.9137,19.1934C20.9345,19.1139,20.936999999999998,19.0308,20.921,18.95027C20.905099999999997,18.86973,20.871000000000002,18.793860000000002,20.8215,18.72838C20.771900000000002,18.66291,20.708199999999998,18.60953,20.634999999999998,18.57227C20.561799999999998,18.53501,20.4812,18.51484,20.3991,18.513289999999998C20.3991,18.513289999999998,20.405900000000003,18.4985,20.405900000000003,18.4985C20.386499999999998,18.49167,20.3672,18.48712,20.349,18.47916C20.349,18.47916,20.3388,18.47688,20.3388,18.47688C20.2065,18.428089999999997,20.073,18.382939999999998,19.93831,18.34151C21.462699999999998,17.4735,22.502499999999998,15.85238,22.502499999999998,13.971879999999999C22.482599999999998,12.64643,21.9421,11.382010000000001,20.997799999999998,10.45173C20.0534,9.521457,18.78104,9,17.45544,9C16.12985,9,14.85745,9.521457,13.91311,10.45173C12.96876,11.382010000000001,12.42826,12.64643,12.40836,13.971879999999999C12.40836,15.911529999999999,13.51413,17.575879999999998,15.11932,18.42114C13.66433,18.93177,12.39729,19.8696,11.48392,21.112000000000002C10.570553,22.3544,10.0533665,23.8435,10,25.3846C10,25.3846,10.00910101,25.3846,10.00910101,25.3846C10.00796338,25.3993,10.00113761,25.4107,10.00113761,25.4255C10.00113761,25.7281,10.246865,25.975,10.550612,25.975C10.929442,25.975,11.21385,25.7293,11.21385,25.4255C11.21385,25.4107,11.20702,25.3993,11.20589,25.3846C11.20589,25.3846,11.21726,25.3846,11.21726,25.3846C11.35719,21.8841,14.118210000000001,19.200400000000002,17.65282,19.200400000000002C18.47191,19.200400000000002,19.25346,19.236800000000002,19.97586,19.511C19.97586,19.511,19.97927,19.503,19.97927,19.503C19.97927,19.503,19.97927,19.5042,19.97927,19.5042ZM17.45601,17.89669C16.41478,17.89669,15.4162,17.483069999999998,14.67994,16.74681C13.94369,16.010550000000002,13.53006,15.01197,13.53006,13.97074C13.53006,12.92951,13.94369,11.93093,14.67994,11.19467C15.4162,10.45841,16.41478,10.04479,17.45601,10.04479C18.497239999999998,10.04479,19.495820000000002,10.45841,20.232100000000003,11.19467C20.9683,11.93093,21.381999999999998,12.92951,21.381999999999998,13.97074C21.381999999999998,15.01197,20.9683,16.010550000000002,20.232100000000003,16.74681C19.495820000000002,17.483069999999998,18.497239999999998,17.89669,17.45601,17.89669C17.45601,17.89669,17.45601,17.89669,17.45601,17.89669Z"
                          fill="#FFFFFF" fill-opacity="1"/>
                </g>
            </g>
        </g>
    </g>
</svg>