<!--
  - Copyright (c) 2022 NetEase, Inc. All rights reserved.
  - Use of this source code is governed by a MIT license that can be
  - found in the LICENSE file.
  -
  -->

<svg xmlns="http://www.w3.org/2000/svg" fill="none" version="1.1" width="36"
     height="36" viewBox="0 0 36 36">
    <defs>
        <clipPath id="master_svg0_6674_055163">
            <rect x="6" y="6" width="24" height="24" rx="0"/>
        </clipPath>
    </defs>
    <g>
        <g>
            <ellipse cx="18" cy="18" rx="18" ry="18" fill="#BE65D9" fill-opacity="1"/>
        </g>
        <g clip-path="url(#master_svg0_6674_055163)">
            <g>
                <path d="M18.683360012054443,19.31214422515869C19.07286001205444,19.098964225158692,19.434760012054443,18.83204422515869,19.75906001205444,18.514854225158693C20.683060012054444,17.611164225158692,21.19186001205444,16.40962422515869,21.19186001205444,15.131614225158692C21.19186001205444,13.853594225158691,20.683060012054444,12.65203422515869,19.75906001205444,11.748334225158692C18.83506001205444,10.844637225158692,17.606590012054443,10.346948225158691,16.299900012054444,10.346948225158691C14.993220012054444,10.346948225158691,13.764710012054444,10.844637225158692,12.840740012054443,11.748334225158692C11.916740012054444,12.65203422515869,11.407890012054443,13.853574225158692,11.407890012054443,15.131614225158692C11.407890012054443,16.409644225158694,11.916740012054444,17.61118422515869,12.840740012054443,18.514854225158693C13.165020012054443,18.83202422515869,13.526910012054444,19.098964225158692,13.916430012054445,19.31212422515869C10.796350012054443,20.22000422515869,8.408071012054444,22.86550422515869,8.004220132054444,26.16420422515869C7.968983212054443,26.451904225158692,8.178924012054443,26.71310422515869,8.473137012054444,26.747504225158693C8.767394012054444,26.78210422515869,9.034370012054444,26.576704225158693,9.069610012054444,26.288904225158692C9.506960012054444,22.71660422515869,12.615320012054443,20.02280422515869,16.299900012054444,20.02280422515869C19.98446001205444,20.02280422515869,23.092860012054444,22.71660422515869,23.53026001205444,26.288904225158692C23.562860012054443,26.555504225158693,23.794460012054444,26.75130422515869,24.062260012054445,26.75130422515869C24.083460012054445,26.75130422515869,24.105060012054444,26.75010422515869,24.126660012054444,26.747504225158693C24.420860012054444,26.71310422515869,24.630760012054445,26.451904225158692,24.59556001205444,26.16410422515869C24.19166001205444,22.86550422515869,21.803460012054444,20.22000422515869,18.683360012054443,19.31214422515869ZM12.480880012054444,15.131614225158692C12.480880012054444,13.072004225158691,14.194080012054442,11.39639422515869,16.299880012054444,11.39639422515869C18.405660012054444,11.39639422515869,20.11886001205444,13.072004225158691,20.11886001205444,15.131614225158692C20.11886001205444,17.191214225158692,18.405660012054444,18.86682422515869,16.299880012054444,18.86682422515869C14.194080012054442,18.86682422515869,12.480880012054444,17.191214225158692,12.480880012054444,15.131614225158692ZM27.996460012054442,26.16420422515869C27.786660012054444,24.44970422515869,27.116460012054443,22.810404225158692,26.058460012054443,21.42350422515869C25.171560012054442,20.26090422515869,24.032760012054442,19.30030422515869,22.735160012054443,18.614134225158693C23.183460012054443,18.23146422515869,23.565960012054443,17.776494225158693,23.861360012054444,17.269564225158692C24.314560012054443,16.49181422515869,24.554160012054442,15.604994225158691,24.554160012054442,14.705004225158692C24.554160012054442,13.719554225158692,24.270260012054443,12.760614225158692,23.73316001205444,11.93186422515869C23.210760012054443,11.125894225158692,22.473160012054443,10.476575225158692,21.600160012054445,10.054131125158692C21.334660012054442,9.92563682515869,21.012760012054443,10.03198782515869,20.881460012054443,10.291768225158691C20.750060012054444,10.551506225158692,20.858760012054443,10.866256225158692,21.124360012054446,10.994772225158691C21.821060012054446,11.331894225158692,22.40976001205444,11.850244225158692,22.826860012054443,12.493744225158691C23.254860012054444,13.154174225158691,23.481160012054445,13.918844225158692,23.481160012054445,14.705034225158691C23.481160012054445,15.423124225158691,23.290260012054443,16.13024422515869,22.929160012054446,16.749964225158692C22.578560012054446,17.35163422515869,22.074660012054444,17.862254225158694,21.471960012054446,18.22661422515869C21.219960012054443,18.378994225158692,21.141960012054444,18.702354225158693,21.297660012054443,18.94884422515869C21.32286001205444,18.988664225158693,21.352660012054443,19.02401422515869,21.385860012054444,19.05471422515869C21.44016001205444,19.13426422515869,21.517160012054443,19.20033422515869,21.613060012054444,19.24221422515869C23.028260012054446,19.86016422515869,24.268060012054445,20.83150422515869,25.198360012054444,22.051104225158692C26.14436001205444,23.29110422515869,26.74346001205444,24.756504225158693,26.931160012054445,26.289004225158692C26.963760012054443,26.555504225158693,27.195360012054444,26.75140422515869,27.463160012054445,26.75140422515869C27.484360012054445,26.75140422515869,27.505960012054445,26.75010422515869,27.527560012054444,26.747604225158693C27.821760012054444,26.71310422515869,28.031760012054445,26.451904225158692,27.996460012054442,26.16420422515869Z"
                      fill="#FFFFFF" fill-opacity="1"/>
            </g>
        </g>
    </g>
</svg>