<svg xmlns="http://www.w3.org/2000/svg" fill="none" version="1.1" width="20"
     height="20" viewBox="0 0 20 20">
    <defs>
        <clipPath id="master_svg0_2004_065414">
            <rect x="0" y="0" width="20" height="20" rx="0"/>
        </clipPath>
    </defs>
    <g clip-path="url(#master_svg0_2004_065414)">
        <g>
            <path d="M9.999203125000001,9.122250114440918C9.999203125000001,9.122250114440918,13.559213125,5.562254114440918,13.559213125,5.562254114440918C13.675903125,5.445558814440918,13.834173125,5.380000110552628,13.999203125,5.380000114440918C14.164243125,5.380000118329208,14.322513125,5.445558814440918,14.439213125,5.562254114440918C14.555903125,5.678949114440918,14.621463125,5.837222114440918,14.621463125,6.002254114440918C14.621463125,6.167286114440918,14.555903125,6.325559114440918,14.439213125,6.442250114440918C14.439213125,6.442250114440918,10.879213125,10.002250114440919,10.879213125,10.002250114440919C10.879213125,10.002250114440919,14.439213125,13.562250114440918,14.439213125,13.562250114440918C14.555903125,13.678950114440918,14.621463125,13.837220114440917,14.621463125,14.002250114440917C14.621463125,14.167290114440918,14.555903125,14.325560114440918,14.439213125,14.442250114440919C14.322513125,14.558950114440918,14.164243125,14.624510114440918,13.999203125,14.624510114440918C13.834173125,14.624510114440918,13.675903125,14.558950114440918,13.559213125,14.442250114440919C13.559213125,14.442250114440919,9.999203125000001,10.882250114440918,9.999203125000001,10.882250114440918C9.999203125000001,10.882250114440918,6.439203125,14.442250114440919,6.439203125,14.442250114440919C6.322512125,14.558950114440918,6.164239125,14.624510114440918,5.999207125,14.624510114440918C5.834175125,14.624510114440918,5.675902125,14.558950114440918,5.559207125,14.442250114440919C5.442511925,14.325560114440918,5.37695312622958,14.167290114440918,5.376953125,14.002250114440917C5.37695312377042,13.837220114440917,5.442511925,13.678950114440918,5.559207125,13.562250114440918C5.559207125,13.562250114440918,9.119203125,10.002250114440919,9.119203125,10.002250114440919C9.119203125,10.002250114440919,5.559207125,6.442250114440918,5.559207125,6.442250114440918C5.442511925,6.325559114440918,5.37695312254083,6.167286114440918,5.376953125,6.002254114440918C5.37695312745917,5.837222114440918,5.442511925,5.678949114440918,5.559207125,5.562254114440918C5.675902125,5.445558814440918,5.834175125,5.380000116900088,5.999207125,5.380000114440918C6.164239125,5.380000111981748,6.322512125,5.445558814440918,6.439203125,5.562254114440918C6.439203125,5.562254114440918,9.999203125000001,9.122250114440918,9.999203125000001,9.122250114440918Z"
                  fill="#90959D" fill-opacity="1"/>
        </g>
    </g>
</svg>