<!--
  - Copyright (c) 2022 NetEase, Inc. All rights reserved.
  - Use of this source code is governed by a MIT license that can be
  - found in the LICENSE file.
  -
  -->

<svg xmlns="http://www.w3.org/2000/svg" fill="none" version="1.1" width="16"
     height="16" viewBox="0 0 16 16">
    <defs>
        <clipPath id="master_svg0_0_98885">
            <rect x="0" y="0" width="16" height="16" rx="0"/>
        </clipPath>
    </defs>
    <g clip-path="url(#master_svg0_0_98885)">
        <g>
            <path d="M6.001721084976197,12.83076508605957C5.815501084976196,12.83076508605957,5.629251084976196,12.76002508605957,5.487101084976196,12.618685086059571C5.487101084976196,12.618685086059571,1.2128100849761962,8.36538508605957,1.2128100849761962,8.36538508605957C0.9284912849761963,8.082455086059571,0.9284912849761963,7.62387508605957,1.2128100849761962,7.34105508605957C1.4971300849761962,7.058125086059571,1.9577290849761964,7.0582450860595705,2.2420510849761963,7.340945086059571C2.2420510849761963,7.340945086059571,6.001721084976197,11.08213508605957,6.001721084976197,11.08213508605957C6.001721084976197,11.08213508605957,13.738771084976197,3.3830810860595704,13.738771084976197,3.3830810860595704C14.023171084976196,3.1001529860595705,14.483771084976196,3.1001529860595705,14.768071084976196,3.3830810860595704C15.052371084976196,3.6658980860595705,15.052371084976196,4.12448308605957,14.768071084976196,4.40741508605957C14.768071084976196,4.40741508605957,6.516351084976196,12.61857508605957,6.516351084976196,12.61857508605957C6.374171084976196,12.76002508605957,6.187951084976197,12.83076508605957,6.001721084976197,12.83076508605957Z"
                  fill="#337EFF" fill-opacity="1"/>
        </g>
    </g>
</svg>