<!--
  - Copyright (c) 2022 NetEase, Inc. All rights reserved.
  - Use of this source code is governed by a MIT license that can be
  - found in the LICENSE file.
  -
  -->

<svg xmlns="http://www.w3.org/2000/svg" fill="none" version="1.1" width="18"
     height="18" viewBox="0 0 18 18">
    <g>
        <g>
            <ellipse cx="9" cy="9" rx="9" ry="9" fill="#337EFF" fill-opacity="1"/>
        </g>
        <g>
            <path d="M14.23715,7.175725Q14.36395,7.037402,14.43197,6.862523Q14.5,6.687644,14.5,6.5Q14.5,6.4015086,14.48078,6.30491Q14.46157,6.208311,14.42388,6.117317Q14.38619,6.026322,14.33147,5.94443Q14.27675,5.862537,14.20711,5.792893Q14.13746,5.723249,14.05557,5.66853Q13.97368,5.613812,13.88268,5.576121Q13.79169,5.53843,13.69509,5.519215Q13.59849,5.5,13.5,5.5Q13.39602,5.5,13.29427,5.521392Q13.19251,5.542783,13.09734,5.584652Q13.00216,5.62652,12.91763,5.687074Q12.83311,5.747627,12.76285,5.824275L12.76255,5.824601L7.9164200000000005,11.11128L5.150923,8.74086L5.150791,8.74074Q5.0148589999999995,8.62423,4.846946,8.56211Q4.679033,8.5,4.5,8.5Q4.4015086,8.5,4.30491,8.519210000000001Q4.208311,8.53843,4.117317,8.57612Q4.026322,8.61381,3.94443,8.66853Q3.862537,8.72325,3.792893,8.79289Q3.723249,8.86254,3.66853,8.94443Q3.6138120000000002,9.02632,3.576121,9.11732Q3.53843,9.20831,3.519215,9.30491Q3.5,9.40151,3.5,9.5Q3.5,9.60819,3.52314,9.71388Q3.546279,9.81956,3.591487,9.917860000000001Q3.636695,10.01615,3.70188,10.1025Q3.767064,10.18885,3.849209,10.25926L8.08358,13.88872L14.23686,7.17605L14.23715,7.175725L14.23715,7.175725Z"
                  fill-rule="evenodd" fill="#FFFFFF" fill-opacity="1"/>
        </g>
    </g>
</svg>