<?xml version="1.0" encoding="UTF-8"?>
<!--
  - Copyright (c) 2022 NetEase, Inc. All rights reserved.
  - Use of this source code is governed by a MIT license that can be
  - found in the LICENSE file.
  -
  -->

<svg width="72px" height="72px" viewBox="0 0 72 72" version="1.1" xmlns="http://www.w3.org/2000/svg"
>
    <title>ic_location_no</title>
    <g id="ic_location_no" stroke="none" stroke-width="1" fill="none" fill-rule="evenodd">
        <rect id="矩形" fill-opacity="0.05" fill="#182431" x="0" y="0" width="72" height="72" rx="36"></rect>
        <path d="M36,24.8904437 C41.1054507,24.8904437 45.25,28.9566464 45.25,33.979796 C45.25,35.9360332 44.6574499,37.8475128 43.5576286,39.7794054 C42.7085731,41.270815 41.6472682,42.6540478 40.1287501,44.3694494 C39.5553145,45.0172338 38.7969026,45.7513802 37.8518942,46.5749831 L37.576813,46.812735 C36.7041229,47.5609204 35.420977,47.5841619 34.509368,46.8615879 L34.4382537,46.8023123 L34.1073598,46.5137335 C33.3248899,45.827514 32.733258,45.279978 32.3243439,44.8616427 L32.1008566,44.6260697 L31.8689411,44.3672896 C28.5409538,40.6239724 26.75,37.449812 26.75,33.979796 C26.75,28.9934245 30.7079109,24.971543 35.7334486,24.8915846 L36,24.8904437 Z M36,31.75 C34.7573593,31.75 33.75,32.7573593 33.75,34 C33.75,35.2426407 34.7573593,36.25 36,36.25 C37.2426407,36.25 38.25,35.2426407 38.25,34 C38.25,32.7573593 37.2426407,31.75 36,31.75 Z"
              id="形状" fill-opacity="0.4" fill="#182431" fill-rule="nonzero"></path>
    </g>
</svg>