<svg xmlns="http://www.w3.org/2000/svg" fill="none" version="1.1" width="24"
     height="24" viewBox="0 0 24 24">
    <defs>
        <mask id="master_svg0_6793_060630" style="mask-type:alpha" maskUnits="userSpaceOnUse">
            <g>
                <rect x="0" y="0" width="24" height="24" rx="0" fill="#FFFFFF" fill-opacity="1"/>
            </g>
        </mask>
        <mask id="master_svg1_6793_060542" style="mask-type:alpha" maskUnits="userSpaceOnUse">
            <g>
                <rect x="0" y="0" width="24" height="24" rx="0" fill="#FFFFFF" fill-opacity="1"/>
            </g>
        </mask>
    </defs>
    <g mask="url(#master_svg0_6793_060630)">
        <g mask="url(#master_svg1_6793_060542)">
            <g>
                <path d="M7.23663,7.36581Q7.99552,7.24993,8.338470000000001,6.51407L8.34154,6.511L10.47464,1.978351Q10.48585,1.954536,10.49612,1.935381Q10.97137,0.9999033339,12,1Q13.0286,1,13.5039,1.935381Q13.5137,1.9546320000000001,13.5254,1.978351L15.9163,7.06501L15.9163,7.06501L15.9163,7.06501Q16.000999999999998,7.24521,16.1741,7.27066L16.1772,7.27142L16.1833,7.27219L21.5422,8.0825Q21.5612,8.08538,21.5759,8.087869999999999Q22.5904,8.26453,22.9049,9.2688Q23.2128,10.2486,22.5243,10.99607Q22.5098,11.0118,22.4905,11.0306L18.6049,14.99L18.6049,14.99Q18.4588,15.1396,18.4914,15.3499L18.4914,15.3499L18.4914,15.3538L19.4121,20.9476L19.4152,20.9507L19.4152,20.9561Q19.5901,21.9983,18.7645,22.6312Q17.9029,23.2917,16.953699999999998,22.7685L12.1535,20.1212L12.1504,20.1197L12.1473,20.1181Q11.9993,20.0361,11.8527,20.1181L11.8496,20.1197L11.8466,20.1212L7.04327,22.7693Q6.09529,23.2917,5.23552,22.6312Q4.41096,21.9991,4.584849999999999,20.9561L4.584849999999999,20.953L4.584849999999999,20.9492L5.40739,15.9646L5.40739,15.9623Q5.54068,15.1349,4.968500000000001,14.5557L4.968500000000001,14.5534L1.509512,11.0314Q1.490361,11.0119,1.475751,10.9953Q0.787215,10.24826,1.0951705999999999,9.2688Q1.410428,8.26632,2.4210599999999998,8.08863Q2.43809,8.08564,2.46096,8.0825L7.23356,7.36581L7.23356,7.36581L7.23663,7.36581L7.23663,7.36581ZM12.1044,2.6467Q12.0654,2.56997,12,2.56997Q11.9348,2.5695699999999997,11.8957,2.6467L9.76258,7.17858L9.75951,7.18011Q9.06041,8.67723,7.46989,8.91812L7.46682,8.91812L7.46682,8.91812L7.46682,8.91812L2.69422,9.63405L2.69422,9.63405Q2.62211,9.64719,2.59294,9.73994Q2.55661,9.85252,2.6297699999999997,9.93177L6.08875,13.4554L6.08875,13.4554Q7.21707,14.6003,6.95734,16.212400000000002L6.95427,16.217L6.13479,21.2039L6.13479,21.2108L6.13172,21.2162Q6.11458,21.3272,6.19004,21.385Q6.23862,21.4216,6.28825,21.3942L11.0885,18.7469L11.0915,18.7454Q11.9999,18.2421,12.9085,18.7454L12.9116,18.7469L12.9116,18.7469L17.7118,21.3942Q17.7625,21.4215,17.81,21.385Q17.887,21.3273,17.8683,21.2162L17.8653,21.2108L17.8653,21.2047L16.944499999999998,15.6085L16.9414,15.6024L16.9414,15.5939Q16.7894,14.5996,17.4877,13.8889L17.4877,13.8889L21.3703,9.93101Q21.4425,9.85266,21.4071,9.73994Q21.3776,9.64727,21.3058,9.63481L21.3058,9.63481L15.947,8.82374L15.9439,8.82374L15.9439,8.82297Q14.9372,8.67372,14.4953,7.73259L12.1044,2.6467Z"
                      fill="#337EFF" fill-opacity="1"/>
            </g>
        </g>
    </g>
</svg>