<!--
  - Copyright (c) 2022 NetEase, Inc. All rights reserved.
  - Use of this source code is governed by a MIT license that can be
  - found in the LICENSE file.
  -
  -->

<svg xmlns="http://www.w3.org/2000/svg" fill="none" version="1.1" width="24"
     height="24" viewBox="0 0 24 24">
    <defs>
        <clipPath id="master_svg0_0_101653">
            <rect x="0" y="0" width="24" height="24" rx="0"/>
        </clipPath>
    </defs>
    <g clip-path="url(#master_svg0_0_101653)">
        <g>
            <g>
                <path d="M12.94290109375,13.905259243469239C12.86007109375,14.289179243469238,12.31223109375,17.03532924346924,14.12400109375,15.470279243469239C14.12400109375,15.470279243469239,15.01521109375,14.867219243469238,13.725411093750001,16.252789243469238C12.43560109375,17.64012924346924,10.78689109375,18.078329243469238,10.59536109375,17.03532924346924C10.73152109375,15.448049243469239,10.99317109375,13.87407924346924,11.37788109375,12.328159243469237C11.41842109375,11.971849243469238,10.97929109375,12.328159243469237,10.97929109375,12.328159243469237C10.97929109375,12.328159243469237,9.70328609375,13.234039243469239,9.41426584375,12.725889243469238C9.37371679375,12.643059243469239,9.81285409375,12.328159243469237,9.81285409375,12.328159243469237C9.81285409375,12.328159243469237,12.47529109375,10.364549243469238,13.341491093750001,10.763139243469238C14.20423109375,11.159139243469237,13.02572109375,13.520469243469238,12.94290109375,13.905259243469239ZM14.29568109375,8.947059243469239C14.19711109375,9.098029243469238,14.069781093749999,9.228109243469238,13.920941093749999,9.329859243469238C13.772101093749999,9.431619243469239,13.60467109375,9.503059243469238,13.42822109375,9.540119243469238C13.25177109375,9.577169243469239,13.06975109375,9.579099243469239,12.89256109375,9.545809243469238C12.71536109375,9.512519243469239,12.546451093750001,9.444649243469238,12.39548109375,9.346079243469237C12.24452109375,9.247509243469239,12.11444109375,9.120179243469238,12.01268109375,8.971339243469238C11.91093109375,8.822499243469238,11.839481093749999,8.655069243469239,11.80243109375,8.478619243469238C11.76538109375,8.302179243469238,11.76344109375,8.120159243469239,11.796731093750001,7.942959243469238C11.83003109375,7.765760243469238,11.89790109375,7.596855243469238,11.99646109375,7.4458872434692385C12.09503109375,7.294918243469239,12.22237109375,7.164842243469238,12.37121109375,7.063086243469238C12.52005109375,6.961330243469238,12.68747109375,6.889886143469238,12.863921093750001,6.852833743469239C13.04037109375,6.815781363469238,13.22239109375,6.813846133469238,13.39959109375,6.847138443469238C13.57679109375,6.880430843469238,13.74569109375,6.948299243469238,13.89666109375,7.046867243469238C14.047631093749999,7.145436243469239,14.17771109375,7.272775243469238,14.279461093750001,7.4216142434692385C14.38122109375,7.570453243469238,14.452661093749999,7.7378762434692385,14.48972109375,7.914329243469238C14.52677109375,8.090779243469239,14.52870109375,8.272799243469239,14.49541109375,8.449989243469238C14.46212109375,8.627189243469239,14.39425109375,8.796099243469238,14.29568109375,8.947059243469239C14.29568109375,8.947059243469239,14.29568109375,8.947059243469239,14.29568109375,8.947059243469239Z"
                      fill="#60CFA7" fill-opacity="1"/>
            </g>
        </g>
        <g>
            <ellipse cx="12" cy="12" rx="10" ry="10" fill-opacity="0" stroke-opacity="1" stroke="#60CFA7" fill="none"
                     stroke-width="1.7200000286102295" stroke-linecap="ROUND"/>
        </g>
    </g>
</svg>