<!--
  - Copyright (c) 2022 NetEase, Inc. All rights reserved.
  - Use of this source code is governed by a MIT license that can be
  - found in the LICENSE file.
  -
  -->

<svg xmlns="http://www.w3.org/2000/svg" fill="none" version="1.1" width="24"
     height="24" viewBox="0 0 24 24">
    <defs>
        <clipPath id="master_svg0_0_101663">
            <rect x="0" y="0" width="24" height="24" rx="0"/>
        </clipPath>
    </defs>
    <g clip-path="url(#master_svg0_0_101663)">
        <g>
            <g>
                <path d="M22.7699,10.24601C22.6392,9.55516,22.2154,9.108419999999999,21.6727,9.108419999999999C21.6727,9.108419999999999,21.5786,9.108419999999999,21.5786,9.108419999999999C20.1121,9.108419999999999,18.9193,7.91563,18.9193,6.44871C18.9193,5.9853000000000005,19.1416,5.4569,19.1502,5.4359C19.4208,4.8270599999999995,19.2132,4.08095,18.6658,3.69802C18.6658,3.69802,15.914,2.165809,15.914,2.165809C15.914,2.165809,15.8735,2.146013,15.8735,2.146013C15.323,1.9072743,14.5695,2.0600811,14.159,2.4877380000000002C13.8619,2.7941190000000002,12.8378,3.66772,12.0564,3.66772C11.2648,3.66772,10.23839,2.776598,9.93982,2.464404C9.53004,2.0336217,8.784320000000001,1.871903,8.22758,2.110231C8.22758,2.110231,5.37777,3.6716100000000003,5.37777,3.6716100000000003C5.37777,3.6716100000000003,5.33499,3.6988399999999997,5.33499,3.6988399999999997C4.7875700000000005,4.08024,4.5791900000000005,4.82632,4.84825,5.43283C4.85754,5.45501,5.08074,5.9791,5.08074,6.44873C5.08074,7.91566,3.88792,9.108450000000001,2.42144,9.108450000000001C2.42144,9.108450000000001,2.31025,9.108450000000001,2.31025,9.108450000000001C1.784599,9.108450000000001,1.360808,9.55516,1.230184,10.24604C1.22045,10.29465,1,11.46375,1,12.4011C1,13.3373,1.22045,14.506,1.230184,14.5542C1.360808,15.2455,1.784599,15.6926,2.32733,15.6926C2.32733,15.6926,2.42144,15.6926,2.42144,15.6926C3.88792,15.6926,5.08074,16.8854,5.08074,18.3519C5.08074,18.8185,4.85757,19.3449,4.849019999999999,19.3651C4.57921,19.9751,4.78606,20.72,5.3319,21.1011C5.3319,21.1011,8.03164,22.6158,8.03164,22.6158C8.03164,22.6158,8.072849999999999,22.6345,8.072849999999999,22.6345C8.631160000000001,22.8802,9.38617,22.72,9.79442,22.2737C10.17151,21.8662,11.1933,21.0202,11.9436,21.0202C12.7569,21.0202,13.8044,21.9673,14.1061,22.3001C14.3844,22.6049,14.8121,22.7885,15.2499,22.7885C15.4544,22.7885,15.648,22.748,15.8253,22.6718C15.8253,22.6718,18.6246,21.1291,18.6246,21.1291C18.6246,21.1291,18.6658,21.1026,18.6658,21.1026C19.2132,20.7201,19.4216,19.9751,19.1518,19.3683C19.1425,19.3457,18.9193,18.8216,18.9193,18.352C18.9193,16.8855,20.1121,15.6927,21.5786,15.6927C21.5786,15.6927,21.6883,15.6927,21.6883,15.6927C22.2147,15.6927,22.6392,15.2455,22.7699,14.5542C22.7792,14.506,23,13.3373,23,12.4012C23,11.46372,22.7792,10.29463,22.7699,10.24601ZM21.4045,12.4011C21.4045,13.0068,21.2839,13.7852,21.2287,14.1102C19.0289,14.2906,17.3237,16.1288,17.3237,18.3519C17.3237,18.9794,17.5228,19.5805,17.6285,19.8569C17.6285,19.8569,15.2406,21.1757,15.2406,21.1757C15.1231,21.0529,14.7763,20.7029,14.3044,20.3514C13.4755,19.7372,12.6807,19.4234,11.9436,19.4234C11.2127,19.4234,10.42424,19.7294,9.59922,20.3359C9.12956,20.678,8.78745,21.0186,8.66768,21.1445C8.66768,21.1445,6.37073,19.8585,6.37073,19.8585C6.48271,19.568,6.67634,18.9747,6.67634,18.3519C6.67634,16.1288,4.97112,14.2906,2.7721299999999998,14.1102C2.71614,13.7852,2.5956,13.0068,2.5956,12.4011C2.5956,11.79418,2.71614,11.01545,2.7721299999999998,10.69042C4.97112,10.51041,6.67634,8.67182,6.67634,6.44873C6.67634,5.824730000000001,6.47728,5.22173,6.37152,4.94567C6.37152,4.94567,8.818570000000001,3.60084,8.818570000000001,3.60084C8.92509,3.7074,9.27422,4.04912,9.75164,4.38893C10.56501,4.969390000000001,11.3395,5.26332,12.0564,5.26332C12.7663,5.26332,13.5353,4.97485,14.3433,4.40565C14.8246,4.067410000000001,15.1729,3.73035,15.274,3.63509C15.274,3.63509,17.6293,4.94334,17.6293,4.94334C17.5228,5.21783,17.3237,5.81889,17.3237,6.44873C17.3237,8.67182,19.0289,10.51041,21.2287,10.69042C21.2839,11.01619,21.4045,11.79807,21.4045,12.4011Z"
                      fill="#F9B751" fill-opacity="1"/>
            </g>
            <g>
                <path d="M11.951646931915283,8.475024700164795C9.793876931915284,8.475024700164795,8.038116931915283,10.230814700164794,8.038116931915283,12.388594700164795C8.038116931915283,14.546724700164795,9.793896931915283,16.301774700164795,11.951646931915283,16.301774700164795C14.109426931915284,16.301774700164795,15.865206931915283,14.546724700164795,15.865206931915283,12.388594700164795C15.865206931915283,10.230814700164794,14.109426931915284,8.475024700164795,11.951646931915283,8.475024700164795ZM14.269636931915283,12.388594700164795C14.269636931915283,13.666514700164795,13.230006931915284,14.706114700164795,11.951646931915283,14.706114700164795C10.673316931915284,14.706114700164795,9.634456931915283,13.666514700164795,9.634456931915283,12.388594700164795C9.634456931915283,11.111404700164794,10.673316931915284,10.071394700164795,11.951646931915283,10.071394700164795C13.230006931915284,10.071424700164794,14.269636931915283,11.111404700164794,14.269636931915283,12.388594700164795Z"
                      fill="#F9B751" fill-opacity="1"/>
            </g>
        </g>
    </g>
</svg>