<!--
  - Copyright (c) 2022 NetEase, Inc. All rights reserved.
  - Use of this source code is governed by a MIT license that can be
  - found in the LICENSE file.
  -
  -->

<svg xmlns="http://www.w3.org/2000/svg" fill="none" version="1.1" width="24"
     height="24" viewBox="0 0 24 24">
    <defs>
        <clipPath id="master_svg0_0_101643">
            <rect x="0" y="0" width="24" height="24" rx="0"/>
        </clipPath>
    </defs>
    <g clip-path="url(#master_svg0_0_101643)">
        <g>
            <g>
                <path d="M3.8358648360290526,6.150714496139527L7.983425836029053,8.915755496139527L11.421945836029053,11.208095496139526Q11.673095836029052,11.375535496139527,11.942975836029053,11.209455496139526L15.697635836029052,8.898895496139527L20.190935836029052,6.133793496139527L20.191435836029054,6.133459496139526Q20.398735836029054,6.005885496139526,20.64223583602905,6.005885496139526Q20.726935836029053,6.005885496139526,20.80993583602905,6.022410496139527Q20.893035836029053,6.038934496139526,20.971335836029052,6.0713494961395265Q21.04953583602905,6.103763496139527,21.119935836029054,6.1508214961395264Q21.190435836029053,6.197879496139526,21.250335836029052,6.257773496139526Q21.310235836029054,6.317667496139526,21.35723583602905,6.388095496139527Q21.404335836029052,6.458522496139526,21.43673583602905,6.536777496139527Q21.469135836029054,6.615032496139526,21.485635836029054,6.698107496139526Q21.50213583602905,6.781182896139526,21.50223583602905,6.865885496139526Q21.50223583602905,6.976039496139526,21.474435836029052,7.082637496139526Q21.446635836029053,7.189236496139526,21.392935836029054,7.285395496139526Q21.339235836029054,7.381555496139526,21.26293583602905,7.461067496139527Q21.18673583602905,7.540580496139526,21.092935836029053,7.598311496139527L21.092335836029054,7.598645496139526L16.599035836029053,10.363745496139526L12.844415836029052,12.674305496139526Q12.299105836029053,13.009885496139526,11.656745836029053,13.003365496139526Q11.004135836029054,12.996745496139527,10.467855836029052,12.639225496139527L7.029335836029053,10.346875496139527L2.8811928360290526,7.581448496139526Q2.792841836029053,7.522547496139526,2.7214708360290527,7.443925496139526Q2.6500998360290526,7.365303496139527,2.599995836029053,7.271683496139526Q2.549891836029053,7.1780624961395265,2.5240638360290526,7.075066496139526Q2.498235836029053,6.972070496139526,2.498235836029053,6.865885496139526Q2.498235836029053,6.781182896139526,2.514760836029053,6.698107496139526Q2.5312848360290525,6.615032496139526,2.563699836029053,6.536777496139527Q2.596113836029053,6.458522496139526,2.643171836029053,6.388095496139527Q2.6902298360290526,6.317667496139526,2.7501238360290525,6.257773496139526Q2.810017836029053,6.197879496139526,2.8804458360290526,6.1508214961395264Q2.9508728360290526,6.103763496139527,3.0291278360290526,6.0713494961395265Q3.1073828360290525,6.038934496139526,3.1904578360290525,6.022410496139527Q3.2735332360290528,6.005885496139526,3.3582358360290527,6.005885496139526Q3.618622836029053,6.005885496139526,3.8352778360290527,6.150322496139527L3.8358648360290526,6.150714496139527Z"
                      fill-rule="evenodd" fill="#337EFF" fill-opacity="1"/>
            </g>
            <g>
                <path d="M10.794459476470948,12.397135496139526Q10.794459476470948,12.312432896139526,10.810984476470948,12.229357496139526Q10.827508476470948,12.146282496139527,10.859923476470946,12.068027496139527Q10.892337476470948,11.989772496139526,10.939395476470947,11.919345496139526Q10.986453476470947,11.848917496139526,11.046347476470947,11.789023496139526Q11.106241476470947,11.729129496139526,11.176669476470947,11.682071496139526Q11.247096476470947,11.635013496139527,11.325351476470948,11.602599496139526Q11.403606476470948,11.570184496139527,11.486681476470947,11.553660496139527Q11.569756876470947,11.537135496139527,11.654459476470947,11.537135496139527Q11.739162076470947,11.537135496139527,11.822237476470947,11.553660496139527Q11.905312476470947,11.570184496139527,11.983567476470947,11.602599496139526Q12.061822476470947,11.635013496139527,12.132249476470948,11.682071496139526Q12.202677476470948,11.729129496139526,12.262571476470947,11.789023496139526Q12.322465476470947,11.848917496139526,12.369523476470947,11.919345496139526Q12.416581476470947,11.989772496139526,12.448995476470948,12.068027496139527Q12.481410476470947,12.146282496139527,12.497934476470947,12.229357496139526Q12.514459476470947,12.312432896139526,12.514459476470947,12.397135496139526L12.514459476470947,22.767535496139526Q12.514459476470947,22.852235496139528,12.497934476470947,22.935235496139526Q12.481410476470947,23.018335496139528,12.448995476470948,23.096635496139527Q12.416581476470947,23.174835496139526,12.369523476470947,23.245335496139525Q12.322465476470947,23.315735496139524,12.262571476470947,23.375635496139527Q12.202677476470948,23.435535496139526,12.132249476470948,23.482535496139526Q12.061822476470947,23.529635496139527,11.983567476470947,23.562035496139526Q11.905312476470947,23.594435496139525,11.822237476470947,23.610935496139525Q11.739162076470947,23.627535496139526,11.654459476470947,23.627535496139526Q11.569756876470947,23.627535496139526,11.486681476470947,23.610935496139525Q11.403606476470948,23.594435496139525,11.325351476470948,23.562035496139526Q11.247096476470947,23.529635496139527,11.176669476470947,23.482535496139526Q11.106241476470947,23.435535496139526,11.046347476470947,23.375635496139527Q10.986453476470947,23.315735496139524,10.939395476470947,23.245335496139525Q10.892337476470948,23.174835496139526,10.859923476470946,23.096635496139527Q10.827508476470948,23.018335496139528,10.810984476470948,22.935235496139526Q10.794459476470948,22.852235496139528,10.794459476470948,22.767535496139526L10.794459476470948,12.397135496139526Z"
                      fill-rule="evenodd" fill="#337EFF" fill-opacity="1"/>
            </g>
            <g>
                <path d="M22.193529586029054,7.6004454961395265Q22.193529586029054,6.334165496139526,21.084529586029053,5.704015496139526L16.918829586029055,3.3369254961395263L12.753229586029052,0.9698264961395264Q11.638299586029053,0.33629049613952633,10.524159586029054,1.0180904961395263L6.711759586029053,3.351085496139526L2.8436475860290527,5.718185496139526Q1.8068295860290529,6.352665496139527,1.8068295860290529,7.567285496139526L1.8068295860290529,12.334635496139526L1.8068295860290529,17.101935496139525Q1.8068295860290529,18.316635496139526,2.8436475860290527,18.951135496139525L6.711759586029053,21.318135496139526L10.524149586029052,23.651135496139528Q11.638299586029053,24.332935496139527,12.753229586029052,23.699435496139525L16.918829586029055,21.332335496139525L21.084529586029053,18.965235496139528Q22.193529586029054,18.335135496139525,22.193529586029054,17.068835496139528L22.193529586029054,12.334635496139526L22.193529586029054,7.6004454961395265ZM16.069129586029053,4.832345496139526L20.234729586029054,7.199445496139527Q20.473529586029052,7.335095496139527,20.473529586029052,7.6004454961395265L20.473529586029052,12.334635496139526L20.473529586029052,17.068835496139528Q20.473529586029052,17.334135496139524,20.234729586029054,17.469835496139527L16.069129586029053,19.836935496139528L11.903449586029053,22.204035496139525Q11.670669586029053,22.336335496139526,11.421949586029053,22.184035496139526L7.609549586029052,19.851135496139527L3.7414395860290526,17.484035496139526Q3.5268295860290526,17.352635496139527,3.5268295860290526,17.101935496139525L3.5268295860290526,12.334635496139526L3.5268295860290526,7.567285496139526Q3.5268295860290526,7.316605496139526,3.7414395860290526,7.185275496139527L7.609549586029052,4.8181854961395265L11.421949586029053,2.4851854961395263Q11.670669586029053,2.3329804961395264,11.903449586029053,2.4652554961395263L16.069129586029053,4.832345496139526Z"
                      fill-rule="evenodd" fill="#337EFF" fill-opacity="1"/>
            </g>
        </g>
    </g>
</svg>