<!--
  - Copyright (c) 2022 NetEase, Inc. All rights reserved.
  - Use of this source code is governed by a MIT license that can be
  - found in the LICENSE file.
  -
  -->

<svg xmlns="http://www.w3.org/2000/svg" fill="none" version="1.1" width="28"
     height="28" viewBox="0 0 28 28">
    <defs>
        <clipPath id="master_svg0_0_87610">
            <rect x="0" y="0" width="28" height="28" rx="0"/>
        </clipPath>
    </defs>
    <g clip-path="url(#master_svg0_0_87610)">
        <g>
            <path d="M21.466666984558106,3.4997148513793945C22.621666984558104,3.4997148513793945,23.566666984558104,4.444714851379395,23.566666984558104,5.599714851379394C23.566666984558104,5.599714851379394,23.566666984558104,22.399714851379393,23.566666984558104,22.399714851379393C23.566666984558104,23.554714851379394,22.621666984558104,24.499714851379395,21.466666984558106,24.499714851379395C21.466666984558106,24.499714851379395,8.866666984558105,24.499714851379395,8.866666984558105,24.499714851379395C7.711666984558105,24.499714851379395,6.766666984558105,23.554714851379394,6.766666984558105,22.399714851379393C6.766666984558105,22.399714851379393,6.766666984558105,19.249714851379395,6.766666984558105,19.249714851379395C6.766666984558105,19.249714851379395,7.816666984558106,19.249714851379395,7.816666984558106,19.249714851379395C8.971666984558105,19.249714851379395,9.916666984558105,18.304714851379394,9.916666984558105,17.149714851379393C9.916666984558105,15.994714851379394,8.971666984558105,15.049714851379395,7.816666984558106,15.049714851379395C7.816666984558106,15.049714851379395,6.766666984558105,15.049714851379395,6.766666984558105,15.049714851379395C6.766666984558105,15.049714851379395,6.766666984558105,12.949714851379394,6.766666984558105,12.949714851379394C6.766666984558105,12.949714851379394,7.816666984558106,12.949714851379394,7.816666984558106,12.949714851379394C8.971666984558105,12.949714851379394,9.916666984558105,12.004714851379395,9.916666984558105,10.849714851379394C9.916666984558105,9.694714851379395,8.971666984558105,8.749714851379395,7.816666984558106,8.749714851379395C7.816666984558106,8.749714851379395,6.766666984558105,8.749714851379395,6.766666984558105,8.749714851379395C6.766666984558105,8.749714851379395,6.766666984558105,5.599714851379394,6.766666984558105,5.599714851379394C6.766666984558105,4.444714851379395,7.711666984558105,3.4997148759887944,8.866666984558105,3.4997148513793945C8.866666984558105,3.4997148513793945,21.466666984558106,3.4997148513793945,21.466666984558106,3.4997148513793945ZM20.416666984558105,8.749714851379395C19.891666984558107,8.749714851379395,19.471666984558105,9.169714851379394,19.366666984558105,9.694714851379395C19.366666984558105,9.694714851379395,19.366666984558105,18.199714851379394,19.366666984558105,18.199714851379394C19.366666984558105,18.829714851379393,19.786666984558103,19.249714851379395,20.416666984558105,19.249714851379395C20.941666984558104,19.249714851379395,21.361666984558106,18.829714851379393,21.466666984558106,18.304714851379394C21.466666984558106,18.304714851379394,21.466666984558106,9.799714851379395,21.466666984558106,9.799714851379395C21.466666984558106,9.169714851379394,21.046666984558104,8.749714851379395,20.416666984558105,8.749714851379395C20.416666984558105,8.749714851379395,20.416666984558105,8.749714851379395,20.416666984558105,8.749714851379395ZM7.816666984558106,16.099714851379396C8.446666984558105,16.099714851379396,8.866666984558105,16.519714851379394,8.866666984558105,17.149714851379393C8.866666984558105,17.779714851379396,8.446666984558105,18.199714851379394,7.816666984558106,18.199714851379394C7.816666984558106,18.199714851379394,5.716666984558105,18.199714851379394,5.716666984558105,18.199714851379394C5.086666984558105,18.199714851379394,4.6666669845581055,17.779714851379396,4.6666669845581055,17.149714851379393C4.6666669845581055,16.519714851379394,5.086666984558105,16.099714851379396,5.716666984558105,16.099714851379396C5.716666984558105,16.099714851379396,7.816666984558106,16.099714851379396,7.816666984558106,16.099714851379396ZM7.816666984558106,9.799714851379395C8.446666984558105,9.799714851379395,8.866666984558105,10.219714851379393,8.866666984558105,10.849714851379394C8.866666984558105,11.479714851379395,8.446666984558105,11.899714851379395,7.816666984558106,11.899714851379395C7.816666984558106,11.899714851379395,5.716666984558105,11.899714851379395,5.716666984558105,11.899714851379395C5.086666984558105,11.899714851379395,4.6666669845581055,11.479714851379395,4.6666669845581055,10.849714851379394C4.6666669845581055,10.219714851379393,5.086666984558105,9.799714851379395,5.716666984558105,9.799714851379395C5.716666984558105,9.799714851379395,7.816666984558106,9.799714851379395,7.816666984558106,9.799714851379395Z"
                  fill="#C5C9D2" fill-opacity="1"/>
        </g>
    </g>
</svg>