<!--
  - Copyright (c) 2022 NetEase, Inc. All rights reserved.
  - Use of this source code is governed by a MIT license that can be
  - found in the LICENSE file.
  -
  -->

<svg xmlns="http://www.w3.org/2000/svg" fill="none" version="1.1" width="28"
     height="28" viewBox="0 0 28 28">
    <defs>
        <clipPath id="master_svg0_0_98621">
            <rect x="0" y="0" width="28" height="28" rx="0"/>
        </clipPath>
    </defs>
    <g clip-path="url(#master_svg0_0_98621)">
        <g>
            <path d="M13.5029,17.36823081970215C24.0969,17.36823081970215,23.9904,24.013340819702147,23.9904,24.013340819702147C24.0706,24.61651081970215,23.6413,25.10546081970215,23.0298,25.10546081970215C23.0298,25.10546081970215,3.975453,25.10546081970215,3.975453,25.10546081970215C3.364585,25.10546081970215,2.9109254,24.609450819702147,3.0148756,24.013340819702147C3.0148756,24.013340819702147,2.9089994,17.368230819469805,13.5029,17.36823081970215Z"
                  fill="#9CC0FF" fill-opacity="1"/>
        </g>
        <g>
            <path d="M13.500374359741212,3C13.500374359741212,3,20.132034359741212,3,20.132034359741212,3C20.132034359741212,3,20.132034359741212,9.63164,20.132034359741212,9.63164C20.132034359741212,13.2943,17.16303435974121,16.2633,13.500374359741212,16.2633C9.83773435974121,16.2633,6.8687343599735575,13.2943,6.868734359741211,9.63164C6.868734359741211,5.968999999999999,9.83773435974121,3,13.500374359741212,3Z"
                  fill="#2A6BF2" fill-opacity="1"/>
        </g>
    </g>
</svg>