<!--
  - Copyright (c) 2022 NetEase, Inc. All rights reserved.
  - Use of this source code is governed by a MIT license that can be
  - found in the LICENSE file.
  -
  -->

<svg xmlns="http://www.w3.org/2000/svg" fill="none" version="1.1" width="28"
     height="28" viewBox="0 0 28 28">
    <defs>
        <clipPath id="master_svg0_0_87795">
            <rect x="0" y="0" width="28" height="28" rx="0"/>
        </clipPath>
    </defs>
    <g clip-path="url(#master_svg0_0_87795)">
        <g>
            <path d="M13.5029,17.3682C24.0969,17.3682,23.9904,24.0133,23.9904,24.0133C24.0706,24.6165,23.6413,25.1055,23.0298,25.1055C23.0298,25.1055,3.975453,25.1055,3.975453,25.1055C3.364585,25.1055,2.9109254,24.6095,3.0148756,24.0133C3.0148756,24.0133,2.9089998,17.3682,13.5029,17.3682ZM13.5004,3C13.5004,3,20.132,3,20.132,3C20.132,3,20.132,9.63164,20.132,9.63164C20.132,13.2943,17.163,16.2633,13.5004,16.2633C9.83773,16.2633,6.868729999999999,13.2943,6.868729999999999,9.63164C6.868729999999999,5.968999999999999,9.83773,3,13.5004,3Z"
                  fill="#C5C9D2" fill-opacity="1"/>
        </g>
    </g>
</svg>