<!--
  - Copyright (c) 2022 NetEase, Inc. All rights reserved.
  - Use of this source code is governed by a MIT license that can be
  - found in the LICENSE file.
  -
  -->

<svg xmlns="http://www.w3.org/2000/svg" fill="none" version="1.1" width="28"
     height="28" viewBox="0 0 28 28">
    <defs>
        <clipPath id="master_svg0_0_98008">
            <rect x="0" y="0" width="28" height="28" rx="0"/>
        </clipPath>
    </defs>
    <g clip-path="url(#master_svg0_0_98008)">
        <g>
            <path d="M21.466666412353515,3.4997148513793945C22.621666412353516,3.4997148513793945,23.566666412353516,4.444714851379395,23.566666412353516,5.599714851379394C23.566666412353516,5.599714851379394,23.566666412353516,22.399714851379393,23.566666412353516,22.399714851379393C23.566666412353516,23.554714851379394,22.621666412353516,24.499714851379395,21.466666412353515,24.499714851379395C21.466666412353515,24.499714851379395,8.866666412353515,24.499714851379395,8.866666412353515,24.499714851379395C7.711666412353516,24.499714851379395,6.7666664369629155,23.554714851379394,6.766666412353516,22.399714851379393C6.766666412353516,22.399714851379393,6.766666412353516,19.249714851379395,6.766666412353516,19.249714851379395C6.766666412353516,19.249714851379395,7.8166664123535154,19.249714851379395,7.8166664123535154,19.249714851379395C8.971666412353516,19.249714851379395,9.916666412353516,18.304714851379394,9.916666412353516,17.149714851379393C9.916666412353516,15.994714851379394,8.971666412353516,15.049714851379395,7.8166664123535154,15.049714851379395C7.8166664123535154,15.049714851379395,6.766666412353516,15.049714851379395,6.766666412353516,15.049714851379395C6.766666412353516,15.049714851379395,6.766666412353516,12.949714851379394,6.766666412353516,12.949714851379394C6.766666412353516,12.949714851379394,7.8166664123535154,12.949714851379394,7.8166664123535154,12.949714851379394C8.971666412353516,12.949714851379394,9.916666412353516,12.004714851379395,9.916666412353516,10.849714851379394C9.916666412353516,9.694714851379395,8.971666412353516,8.749714851379395,7.8166664123535154,8.749714851379395C7.8166664123535154,8.749714851379395,6.766666412353516,8.749714851379395,6.766666412353516,8.749714851379395C6.766666412353516,8.749714851379395,6.766666412353516,5.599714851379394,6.766666412353516,5.599714851379394C6.766666412353516,4.444714851379395,7.711666412353516,3.4997148759887944,8.866666412353515,3.4997148513793945C8.866666412353515,3.4997148513793945,21.466666412353515,3.4997148513793945,21.466666412353515,3.4997148513793945Z"
                  fill="#2A6BF2" fill-opacity="1"/>
        </g>
        <g>
            <path d="M20.41650390625,8.749999046325685C19.89150390625,8.749999046325685,19.47150390625,9.170000046325683,19.36650390625,9.695000046325683C19.36650390625,9.695000046325683,19.36650390625,18.199999046325683,19.36650390625,18.199999046325683C19.36650390625,18.829999046325682,19.786503906249997,19.249999046325684,20.41650390625,19.249999046325684C20.94150390625,19.249999046325684,21.36150390625,18.829999046325682,21.46650390625,18.304999046325683C21.46650390625,18.304999046325683,21.46650390625,9.799999046325684,21.46650390625,9.799999046325684C21.46650390625,9.170000046325683,21.04650390625,8.749999021716283,20.41650390625,8.749999046325685ZM7.81650390625,16.099999046325685C8.44650390625,16.099999046325685,8.86650390625,16.519999046325683,8.86650390625,17.149999046325682C8.86650390625,17.779999046325685,8.44650390625,18.199999046325683,7.81650390625,18.199999046325683C7.81650390625,18.199999046325683,5.71650390625,18.199999046325683,5.71650390625,18.199999046325683C5.08650390625,18.199999046325683,4.66650390625,17.779999046325685,4.66650390625,17.149999046325682C4.66650390625,16.519999046325683,5.08650390625,16.099999046325685,5.71650390625,16.099999046325685C5.71650390625,16.099999046325685,7.81650390625,16.099999046325685,7.81650390625,16.099999046325685ZM7.81650390625,9.799999046325684C8.44650390625,9.799999046325684,8.86650390625,10.219999046325684,8.86650390625,10.849999046325683C8.86650390625,11.479999046325684,8.44650390625,11.899999046325684,7.81650390625,11.899999046325684C7.81650390625,11.899999046325684,5.71650390625,11.899999046325684,5.71650390625,11.899999046325684C5.08650390625,11.899999046325684,4.66650390625,11.479999046325684,4.66650390625,10.849999046325683C4.66650390625,10.219999046325684,5.08650390625,9.799999046325684,5.71650390625,9.799999046325684C5.71650390625,9.799999046325684,7.81650390625,9.799999046325684,7.81650390625,9.799999046325684Z"
                  fill="#9CC0FF" fill-opacity="1"/>
        </g>
    </g>
</svg>