<!--
  - Copyright (c) 2022 NetEase, Inc. All rights reserved.
  - Use of this source code is governed by a MIT license that can be
  - found in the LICENSE file.
  -
  -->

<svg xmlns="http://www.w3.org/2000/svg" fill="none" version="1.1" width="6.153846383094788" height="10.769230961799622"
     viewBox="0 0 6.153846383094788 10.769230961799622">
    <g transform="matrix(-1,0,0,1,11.076923489570618,0)">
        <path d="M10.896411744785308,1.0502556383094788Q10.982911744785309,0.9637546383094788,11.02972174478531,0.8507346383094787Q11.07654174478531,0.7377156383094787,11.07654174478531,0.6153846383094788Q11.07654174478531,0.5548124383094788,11.06472174478531,0.49540363830947876Q11.05290174478531,0.43599563830947874,11.02972174478531,0.38003463830947876Q11.00654174478531,0.32407263830947874,10.972891744785308,0.2737086383094788Q10.93924174478531,0.22334463830947876,10.896411744785308,0.18051363830947875Q10.85358174478531,0.13768263830947874,10.803211744785308,0.10403063830947878Q10.752851744785309,0.07037863830947877,10.696891744785308,0.04719863830947879Q10.64093174478531,0.024018638309478813,10.58152174478531,0.012201638309478735Q10.52211174478531,0.00038463830947876865,10.461541744785308,0.00038463830947876865Q10.33921174478531,0.00038463830947876865,10.226191744785309,0.04719863830947879Q10.113171744785308,0.09401263830947881,10.026671744785308,0.18051363830947875L10.02639174478531,0.18024163830947876L4.668176744785309,5.538464638309478L9.71870174478531,10.588984638309478L9.718971744785309,10.58871463830948Q9.805471744785308,10.675184638309478,9.918491744785308,10.721984638309479Q10.031511744785309,10.768884638309478,10.153841744785309,10.768884638309478Q10.214421744785309,10.768884638309478,10.273821744785309,10.75698463830948Q10.333231744785309,10.745184638309478,10.38919174478531,10.721984638309479Q10.44516174478531,10.69888463830948,10.495521744785309,10.665184638309478Q10.545881744785309,10.631584638309478,10.588721744785309,10.58871463830948Q10.631551744785309,10.545884638309479,10.665201744785309,10.49552463830948Q10.698851744785308,10.445154638309479,10.722031744785308,10.389194638309478Q10.745211744785308,10.333234638309479,10.757031744785309,10.27382463830948Q10.768841744785309,10.21441463830948,10.768841744785309,10.15384463830948Q10.768841744785309,10.03151463830948,10.722031744785308,9.918494638309479Q10.675221744785308,9.805474638309478,10.588721744785309,9.71897463830948L10.588991744785309,9.718704638309479L6.408746744785309,5.538464638309478L10.896681744785308,1.0505276383094788L10.896411744785308,1.0502556383094788Z"
              fill-rule="evenodd" fill="#999999" fill-opacity="1"/>
    </g>
</svg>