<!--
  - Copyright (c) 2022 NetEase, Inc. All rights reserved.
  - Use of this source code is governed by a MIT license that can be
  - found in the LICENSE file.
  -
  -->

<svg xmlns="http://www.w3.org/2000/svg" fill="none" version="1.1" width="26" height="26" viewBox="0 0 26 26">
    <defs>
        <clipPath id="master_svg0_0_87767">
            <rect x="0" y="0" width="26" height="26" rx="0"/>
        </clipPath>
    </defs>
    <g clip-path="url(#master_svg0_0_87767)">
        <g>
            <g>
                <ellipse cx="13" cy="13" rx="9" ry="9" fill-opacity="0" stroke-opacity="1" stroke="#333333" fill="none"
                         stroke-width="2"/>
            </g>
            <g>
                <path d="M9,12L17.5,12Q17.598489999999998,12,17.69509,12.019214999999999Q17.79169,12.03843,17.88268,12.076121Q17.97368,12.113812,18.05557,12.16853Q18.13746,12.223249,18.20711,12.292893Q18.27675,12.362537,18.33147,12.44443Q18.38619,12.526322,18.42388,12.617317Q18.461570000000002,12.708311,18.48078,12.80491Q18.5,12.9015086,18.5,13Q18.5,13.0984914,18.48078,13.19509Q18.461570000000002,13.291689,18.42388,13.382683Q18.38619,13.473678,18.33147,13.55557Q18.27675,13.637463,18.20711,13.707107Q18.13746,13.776751,18.05557,13.83147Q17.97368,13.886188,17.88268,13.923879Q17.79169,13.96157,17.69509,13.980785000000001Q17.598489999999998,14,17.5,14L9,14Q8.9015086,14,8.80491,13.980785000000001Q8.708311,13.96157,8.617317,13.923879Q8.526322,13.886188,8.44443,13.83147Q8.362537,13.776751,8.292893,13.707107Q8.223249,13.637463,8.16853,13.55557Q8.113812,13.473678,8.076121,13.382683Q8.03843,13.291689,8.019214999999999,13.19509Q8,13.0984914,8,13Q8,12.9015086,8.019214999999999,12.80491Q8.03843,12.708311,8.076121,12.617317Q8.113812,12.526322,8.16853,12.44443Q8.223249,12.362537,8.292893,12.292893Q8.362537,12.223249,8.44443,12.16853Q8.526322,12.113812,8.617317,12.076121Q8.708311,12.03843,8.80491,12.019214999999999Q8.9015086,12,9,12Z"
                      fill-rule="evenodd" fill="#333333" fill-opacity="1"/>
            </g>
            <g transform="matrix(0,1,-1,0,22,-4)">
                <path d="M13,8L21.5,8Q21.598489999999998,8,21.69509,8.019214999999999Q21.79169,8.03843,21.88268,8.076121Q21.97368,8.113812,22.05557,8.16853Q22.13746,8.223249,22.20711,8.292893Q22.27675,8.362537,22.33147,8.44443Q22.38619,8.526322,22.42388,8.617317Q22.461570000000002,8.708311,22.48078,8.80491Q22.5,8.9015086,22.5,9Q22.5,9.0984914,22.48078,9.19509Q22.461570000000002,9.291689,22.42388,9.382683Q22.38619,9.473678,22.33147,9.55557Q22.27675,9.637463,22.20711,9.707107Q22.13746,9.776751,22.05557,9.83147Q21.97368,9.886188,21.88268,9.923879Q21.79169,9.96157,21.69509,9.980785000000001Q21.598489999999998,10,21.5,10L13,10Q12.9015086,10,12.80491,9.980785000000001Q12.708311,9.96157,12.617317,9.923879Q12.526322,9.886188,12.44443,9.83147Q12.362537,9.776751,12.292893,9.707107Q12.223249,9.637463,12.16853,9.55557Q12.113812,9.473678,12.076121,9.382683Q12.03843,9.291689,12.019214999999999,9.19509Q12,9.0984914,12,9Q12,8.9015086,12.019214999999999,8.80491Q12.03843,8.708311,12.076121,8.617317Q12.113812,8.526322,12.16853,8.44443Q12.223249,8.362537,12.292893,8.292893Q12.362537,8.223249,12.44443,8.16853Q12.526322,8.113812,12.617317,8.076121Q12.708311,8.03843,12.80491,8.019214999999999Q12.9015086,8,13,8Z"
                      fill-rule="evenodd" fill="#333333" fill-opacity="1"/>
            </g>
        </g>
    </g>
</svg>