<!--
  - Copyright (c) 2022 NetEase, Inc. All rights reserved.
  - Use of this source code is governed by a MIT license that can be
  - found in the LICENSE file.
  -
  -->

<svg xmlns="http://www.w3.org/2000/svg" fill="none" version="1.1" width="10" height="17.5" viewBox="0 0 10 17.5">
    <g>
        <path d="M9.70711,1.7071070000000002Q9.84776,1.566455,9.92388,1.382683Q10,1.198912,10,1Q10,0.9015086,9.98078,0.80491Q9.96157,0.708311,9.92388,0.617317Q9.88619,0.526322,9.83147,0.44443Q9.77675,0.362537,9.70711,0.29289299999999996Q9.63746,0.22324900000000003,9.55557,0.16852999999999996Q9.47368,0.11381200000000002,9.38268,0.076121Q9.29169,0.038429999999999964,9.19509,0.019214999999999982Q9.09849,0,9,0Q8.80109,0,8.61732,0.07611999999999997Q8.43355,0.15224099999999996,8.29289,0.29289299999999996L8.29252,0.293268L-0.41420999999999997,9L7.79289,17.2071Q7.93355,17.3478,8.11732,17.4239Q8.30109,17.5,8.5,17.5Q8.59849,17.5,8.69509,17.4808Q8.79169,17.4616,8.88268,17.4239Q8.97368,17.3862,9.05557,17.3315Q9.13746,17.2767,9.20711,17.2071Q9.27675,17.1375,9.33147,17.0556Q9.38619,16.9737,9.42388,16.8827Q9.46157,16.7917,9.48078,16.6951Q9.5,16.5985,9.5,16.5Q9.5,16.301099999999998,9.42388,16.1173Q9.34776,15.9335,9.20711,15.7929L2.4142099999999997,9L9.70673,1.7074820000000002L9.70711,1.7071070000000002L9.70711,1.7071070000000002Z"
              fill-rule="evenodd" fill="#333333" fill-opacity="1"/>
    </g>
</svg>