<!--
  - Copyright (c) 2022 NetEase, Inc. All rights reserved.
  - Use of this source code is governed by a MIT license that can be
  - found in the LICENSE file.
  -
  -->

<svg xmlns="http://www.w3.org/2000/svg" fill="none" version="1.1" width="26" height="26" viewBox="0 0 26 26">
    <defs>
        <clipPath id="master_svg0_0_87763">
            <rect x="0" y="0" width="26" height="26" rx="0"/>
        </clipPath>
    </defs>
    <g clip-path="url(#master_svg0_0_87763)">
        <g>
            <g>
                <ellipse cx="11.5" cy="11.5" rx="7.5" ry="7.5" fill-opacity="0" stroke-opacity="1" stroke="#333333"
                         fill="none" stroke-width="2"/>
            </g>
            <g>
                <path d="M18.747423,20.158505Q18.627795,20.021786,18.563897,19.851727Q18.5,19.681667,18.5,19.5Q18.5,19.4015086,18.519215,19.30491Q18.538429999999998,19.208311,18.576121,19.117317Q18.613812,19.026322,18.66853,18.94443Q18.723249,18.862537,18.792893,18.792893Q18.862537,18.723249,18.94443,18.66853Q19.026322,18.613812,19.117317,18.576121Q19.208311,18.538429999999998,19.30491,18.519215Q19.4015086,18.5,19.5,18.5Q19.6069,18.5,19.711385,18.522597Q19.815869,18.545194,19.913216,18.589367Q20.010563,18.63354,20.096373,18.697292Q20.182182,18.761045,20.252577,18.841495L23.752580000000002,22.8415Q23.87221,22.97821,23.9361,23.14827Q24,23.31833,24,23.5Q24,23.598489999999998,23.98078,23.69509Q23.961570000000002,23.79169,23.92388,23.88268Q23.88619,23.97368,23.83147,24.05557Q23.77675,24.13746,23.70711,24.20711Q23.63746,24.27675,23.55557,24.33147Q23.47368,24.38619,23.38268,24.42388Q23.29169,24.461570000000002,23.19509,24.48078Q23.098489999999998,24.5,23,24.5Q22.8931,24.5,22.78861,24.4774Q22.68413,24.454810000000002,22.58678,24.41063Q22.489440000000002,24.36646,22.40363,24.30271Q22.31782,24.23896,22.247419999999998,24.1585L18.747423,20.158505Z"
                      fill-rule="evenodd" fill="#333333" fill-opacity="1"/>
            </g>
        </g>
    </g>
</svg>