<!--
  - Copyright (c) 2022 NetEase, Inc. All rights reserved.
  - Use of this source code is governed by a MIT license that can be
  - found in the LICENSE file.
  -
  -->

<svg xmlns="http://www.w3.org/2000/svg" fill="none" version="1.1" width="32"
     height="32" viewBox="0 0 32 32">
    <g>
        <g>
            <path d="M12.2902,0.436018Q13.5864,0.127075,14.9157,0.0367801L14.9674,0.796934Q13.7013,0.882929,12.4669,1.17716L12.2902,0.436018ZM8.09958,2.08658Q9.26398,1.4254,10.5221,0.966953L10.7829,1.68281Q9.58475,2.11942,8.47579,2.74912L8.09958,2.08658ZM4.53941,4.8351Q5.49005,3.85929,6.59199,3.05824L7.03999,3.67451Q5.99053,4.43742,5.08516,5.36676L4.53941,4.8351ZM1.88875,8.4586Q2.52457,7.26888,3.35061,6.2024L3.95296,6.66896Q3.16626,7.68465,2.56071,8.81772L1.88875,8.4586ZM0.34452,12.6976Q0.630735,11.3408,1.14612,10.0534L1.85344,10.3366Q1.3626,11.5626,1.09002,12.8548L0.34452,12.6976ZM0.0316031,17.0051Q-8.99746e-16,16.5031,0,16Q0,15.2233,0.0752291,14.4503L0.833552,14.5241Q0.761905,15.2603,0.761905,16Q0.761905,16.4791,0.792003,16.9573L0.0316031,17.0051ZM0.937646,21.3968Q0.473478,20.1013,0.237334,18.7456L0.987936,18.6149Q1.21284,19.906,1.6549,21.1398L0.937646,21.3968ZM3.00954,25.3407Q2.22522,24.2499,1.63379,23.0436L2.31789,22.7082Q2.88116,23.857,3.62814,24.8959L3.00954,25.3407ZM6.13667,28.5982Q5.06295,27.7576,4.14697,26.7474L4.7114,26.2356Q5.58376,27.1977,6.60635,27.9983L6.13667,28.5982ZM9.97892,30.8239Q8.74667,30.3233,7.61398,29.6262L8.01331,28.9774Q9.09207,29.6413,10.2656,30.118L9.97892,30.8239ZM14.3704,31.9168Q13.0298,31.7795,11.7312,31.42L11.9344,30.6857Q13.1713,31.0281,14.448,31.1588L14.3704,31.9168ZM18.6646,31.7766Q17.38,31.9935,16.0773,31.9998L16.0737,31.2379Q17.3143,31.2319,18.5377,31.0253L18.6646,31.7766ZM22.9704,30.4018Q21.7426,30.9961,20.432,31.3739L20.2209,30.6418Q21.4692,30.282,22.6385,29.716L22.9704,30.4018ZM26.6853,27.909Q25.6749,28.8156,24.5262,29.539L24.1202,28.8943Q25.2142,28.2053,26.1765,27.3419L26.6853,27.909ZM29.5828,24.4562Q28.8656,25.6082,27.9647,26.6229L27.3949,26.1171Q28.253,25.1507,28.936,24.0535L29.5828,24.4562ZM31.3972,20.3504Q31.0258,21.6648,30.4371,22.8972L29.7496,22.5687Q30.3103,21.395,30.664,20.1432L31.3972,20.3504ZM31.8706,13.9694Q32,14.9806,32,16Q32,17.3003,31.79,18.5836L31.0381,18.4606Q31.2381,17.2384,31.2381,16Q31.2381,15.0291,31.1149,14.0661L31.8706,13.9694ZM30.6676,9.60775Q31.2179,10.8705,31.5443,12.2087L30.8041,12.3892Q30.4933,11.1147,29.9692,9.91215L30.6676,9.60775ZM28.3369,5.81175Q29.1985,6.85505,29.8727,8.02823L29.2121,8.40784Q28.57,7.29052,27.7494,6.29691L28.3369,5.81175ZM25.0006,2.77167Q26.1254,3.53698,27.1048,4.48121L26.576,5.02973Q25.6433,4.13046,24.572,3.40159L25.0006,2.77167ZM20.9905,0.798181Q22.2742,1.21962,23.4692,1.85038L23.1135,2.52417Q21.9755,1.92345,20.7528,1.52208L20.9905,0.798181ZM19.221,0.327575L19.0677,1.07388Q17.8374,0.821032,16.5823,0.773035L16.6114,0.0116869Q17.9293,0.0620833,19.221,0.327575Z"
                  fill-rule="evenodd" fill="#C1C8D1" fill-opacity="1"/>
        </g>
        <g>
            <path d="M9.777901649475098,16.380952L21.777901649475098,16.380952L21.777901649475098,16.38Q21.815301649475096,16.38,21.8520016494751,16.372698Q21.888701649475095,16.365397,21.9233016494751,16.351074Q21.957901649475097,16.336752,21.9890016494751,16.315958Q22.020101649475098,16.295165,22.0466016494751,16.268701Q22.0731016494751,16.242236,22.0939016494751,16.211117Q22.114701649475098,16.179997,22.1290016494751,16.14542Q22.1433016494751,16.110842,22.1506016494751,16.0741343Q22.1579016494751,16.0374267,22.1579016494751,16Q22.1579016494751,15.9625733,22.1506016494751,15.9258657Q22.1433016494751,15.889158,22.1290016494751,15.85458Q22.114701649475098,15.820003,22.0939016494751,15.788883Q22.0731016494751,15.757764,22.0466016494751,15.731299Q22.020101649475098,15.704835,21.9890016494751,15.684042Q21.957901649475097,15.663248,21.9233016494751,15.648926Q21.888701649475095,15.634603,21.8520016494751,15.627302Q21.815301649475096,15.62,21.777901649475098,15.62L21.777901649475098,15.619048L9.777901649475098,15.619048L9.777901649475098,15.62Q9.740474949475098,15.62,9.703767349475097,15.627302Q9.667059649475098,15.634603,9.632481649475098,15.648926Q9.597904649475097,15.663248,9.566784649475098,15.684042Q9.535665649475098,15.704835,9.509200649475098,15.731299Q9.482736649475097,15.757764,9.461943649475097,15.788883Q9.441149649475097,15.820003,9.426827649475097,15.85458Q9.412504649475098,15.889158,9.405203649475098,15.9258657Q9.397901649475097,15.9625733,9.397901649475097,16Q9.397901649475097,16.0374267,9.405203649475098,16.0741343Q9.412504649475098,16.110842,9.426827649475097,16.14542Q9.441149649475097,16.179997,9.461943649475097,16.211117Q9.482736649475097,16.242236,9.509200649475098,16.268701Q9.535665649475098,16.295165,9.566784649475098,16.315958Q9.597904649475097,16.336752,9.632481649475098,16.351074Q9.667059649475098,16.365397,9.703767349475097,16.372698Q9.740474949475098,16.38,9.777901649475098,16.38L9.777901649475098,16.380952Z"
                  fill-rule="evenodd" fill="#C1C8D1" fill-opacity="1"/>
        </g>
        <g transform="matrix(0,1,-1,0,25.776785850524902,-6.223214149475098)">
            <path d="M16,10.157737850524903L28,10.157737850524903L28,10.156785850524903Q28.037399999999998,10.156785850524903,28.0741,10.149483850524902Q28.110799999999998,10.142182850524902,28.145400000000002,10.127859850524903Q28.18,10.113537850524903,28.211100000000002,10.092743850524903Q28.2422,10.071950850524903,28.268700000000003,10.045486850524902Q28.2952,10.019021850524902,28.316000000000003,9.987902850524902Q28.3368,9.956782850524903,28.351100000000002,9.922205850524902Q28.3654,9.887627850524902,28.372700000000002,9.850920150524903Q28.380000000000003,9.814212550524902,28.380000000000003,9.776785850524902Q28.380000000000003,9.739359150524903,28.372700000000002,9.702651550524902Q28.3654,9.665943850524902,28.351100000000002,9.631365850524903Q28.3368,9.596788850524902,28.316000000000003,9.565668850524903Q28.2952,9.534549850524902,28.268700000000003,9.508084850524902Q28.2422,9.481620850524902,28.211100000000002,9.460827850524902Q28.18,9.440033850524902,28.145400000000002,9.425711850524902Q28.110799999999998,9.411388850524903,28.0741,9.404087850524903Q28.037399999999998,9.396785850524902,28,9.396785850524902L28,9.395833850524902L16,9.395833850524902L16,9.396785850524902Q15.9625733,9.396785850524902,15.9258657,9.404087850524903Q15.889158,9.411388850524903,15.85458,9.425711850524902Q15.820003,9.440033850524902,15.788883,9.460827850524902Q15.757764,9.481620850524902,15.731299,9.508084850524902Q15.704835,9.534549850524902,15.684042,9.565668850524903Q15.663248,9.596788850524902,15.648926,9.631365850524903Q15.634603,9.665943850524902,15.627302,9.702651550524902Q15.62,9.739359150524903,15.62,9.776785850524902Q15.62,9.814212550524902,15.627302,9.850920150524903Q15.634603,9.887627850524902,15.648926,9.922205850524902Q15.663248,9.956782850524903,15.684042,9.987902850524902Q15.704835,10.019021850524902,15.731299,10.045486850524902Q15.757764,10.071950850524903,15.788883,10.092743850524903Q15.820003,10.113537850524903,15.85458,10.127859850524903Q15.889158,10.142182850524902,15.9258657,10.149483850524902Q15.9625733,10.156785850524903,16,10.156785850524903L16,10.157737850524903Z"
                  fill-rule="evenodd" fill="#C1C8D1" fill-opacity="1"/>
        </g>
    </g>
</svg>