<!--
  - Copyright (c) 2022 NetEase, Inc. All rights reserved.
  - Use of this source code is governed by a MIT license that can be
  - found in the LICENSE file.
  -
  -->

<svg xmlns="http://www.w3.org/2000/svg" fill="none" version="1.1" width="16" height="16" viewBox="0 0 16 16">
    <defs>
        <clipPath id="master_svg0_0_98176">
            <rect x="0" y="0" width="16" height="16" rx="0"/>
        </clipPath>
    </defs>
    <g clip-path="url(#master_svg0_0_98176)">
        <g>
            <path d="M6.970510335655212,2.774248124572754C9.120000335655213,2.777682124572754,10.917580335655213,4.408591124572753,11.129290335655213,6.547581124572754C11.341210335655212,8.686571124572755,9.898390335655213,10.638491124572754,7.791520335655212,11.063341124572753C5.684450335655212,11.488391124572754,3.5979803356552127,10.248391124572754,2.9642403356552123,8.194451124572755C2.3305073356552124,6.140511124572754,3.355150335655212,3.9405111245727538,5.335150335655213,3.1041511245727538C5.852530335655213,2.885291124572754,6.4087503356552125,2.773088124572754,6.970510335655212,2.774248124572754C6.970510335655212,2.774248124572754,6.970510335655212,2.774248124572754,6.970510335655212,2.774248124572754ZM6.970510335655212,1.804551124572754C4.114350335655212,1.804551124572754,1.7987903356552124,4.1201111245727535,1.7987903356552124,6.976271124572754C1.7987903356552124,9.832431124572754,4.114350335655212,12.147951124572755,6.970510335655212,12.147951124572755C9.826670335655212,12.147951124572755,12.142190335655213,9.832431124572754,12.142190335655213,6.976271124572754C12.142190335655213,4.1201111245727535,9.826670335655212,1.804551124572754,6.970510335655212,1.804551124572754C6.970510335655212,1.804551124572754,6.970510335655212,1.804551124572754,6.970510335655212,1.804551124572754ZM13.709890335655212,14.200551124572755C13.646190335655213,14.200651124572754,13.583090335655212,14.188151124572753,13.524290335655213,14.163751124572753C13.465390335655213,14.139351124572753,13.411990335655213,14.103451124572754,13.367090335655213,14.058251124572754C13.367090335655213,14.058251124572754,10.910510335655212,11.601721124572753,10.910510335655212,11.601721124572753C10.726870335655212,11.411421124572755,10.729500335655212,11.108991124572754,10.916370335655213,10.921921124572753C11.103440335655213,10.734851124572755,11.405860335655213,10.732231124572754,11.595960335655212,10.916061124572755C11.595960335655212,10.916061124572755,14.052490335655213,13.372651124572753,14.052490335655213,13.372651124572753C14.120290335655213,13.440451124572753,14.166490335655212,13.526851124572755,14.185090335655213,13.620851124572754C14.203790335655212,13.714851124572753,14.194290335655213,13.812351124572753,14.157590335655213,13.900951124572753C14.120990335655213,13.989551124572754,14.058890335655212,14.065351124572754,13.979190335655213,14.118651124572754C13.899490335655212,14.172051124572754,13.805790335655212,14.200451124572753,13.709890335655212,14.200551124572755C13.709890335655212,14.200551124572755,13.709890335655212,14.200551124572755,13.709890335655212,14.200551124572755Z"
                  fill="#A6ADB6" fill-opacity="1"/>
        </g>
    </g>
</svg>