<svg width="24" height="24" viewBox="0 0 24 24" xmlns="http://www.w3.org/2000/svg">
  <path d="M14.874,3.966C15.363,3.478 16.154,3.478 16.642,3.966L19.824,7.148C20.312,7.636 20.312,8.428 19.824,8.916L9.01,19.729C8.776,19.964 8.458,20.096 8.127,20.096H4.945C4.254,20.096 3.695,19.536 3.695,18.846V15.664C3.695,15.332 3.826,15.014 4.061,14.78L14.874,3.966ZM12.93,8.032L5.195,15.767L5.195,18.596L8.023,18.596L15.758,10.86L12.93,8.032ZM13.991,6.971L16.819,9.8L18.587,8.032L15.758,5.204L13.991,6.971Z" fill="#656A72" fill-rule="evenodd"/>
  <path d="M11.037,19.561C10.869,19.715 10.979,19.994 11.206,19.994H19.796C20.072,19.994 20.296,19.77 20.296,19.494V18.994C20.296,18.718 20.072,18.494 19.796,18.494H12.29C12.227,18.494 12.166,18.518 12.12,18.561L11.037,19.561Z" fill="#656A72"/>
</svg>
