<svg width="18" height="18" viewBox="0 0 18 18" fill="none" xmlns="http://www.w3.org/2000/svg">
  <path fill-rule="evenodd" clip-rule="evenodd" d="M2 1.625H5C5.34518 1.625 5.625 1.34518 5.625 1C5.625 0.654822 5.34518 0.375 5 0.375H2C1.10254 0.375 0.375 1.10254 0.375 2V5C0.375 5.34518 0.654822 5.625 1 5.625C1.34518 5.625 1.625 5.34518 1.625 5V2C1.625 1.79289 1.79289 1.625 2 1.625Z" fill="#656A72"/>
  <path fill-rule="evenodd" clip-rule="evenodd" d="M16.021 0.375H13.021C12.6758 0.375 12.396 0.654822 12.396 1C12.396 1.34518 12.6758 1.625 13.021 1.625H16.021C16.2281 1.625 16.396 1.79289 16.396 2V5C16.396 5.34518 16.6758 5.625 17.021 5.625C17.3662 5.625 17.646 5.34518 17.646 5V2C17.646 1.10254 16.9185 0.375 16.021 0.375Z" fill="#656A72"/>
  <path fill-rule="evenodd" clip-rule="evenodd" d="M2 17.625H5C5.34518 17.625 5.625 17.3452 5.625 17C5.625 16.6548 5.34518 16.375 5 16.375H2C1.79289 16.375 1.625 16.2071 1.625 16V13C1.625 12.6548 1.34518 12.375 1 12.375C0.654822 12.375 0.375 12.6548 0.375 13V16C0.375 16.8975 1.10254 17.625 2 17.625Z" fill="#656A72"/>
  <path fill-rule="evenodd" clip-rule="evenodd" d="M16.021 16.375H13.021C12.6758 16.375 12.396 16.6548 12.396 17C12.396 17.3452 12.6758 17.625 13.021 17.625H16.021C16.9185 17.625 17.646 16.8975 17.646 16V13C17.646 12.6548 17.3662 12.375 17.021 12.375C16.6758 12.375 16.396 12.6548 16.396 13V16C16.396 16.2071 16.2281 16.375 16.021 16.375Z" fill="#656A72"/>
  <path fill-rule="evenodd" clip-rule="evenodd" d="M5.667 13.136C5.59282 13.4493 5.31294 13.667 5 13.667C4.54931 13.667 4.2187 13.2416 4.365 12.724L6.771 5.134L6.78 5.111C7.056 4.412 7.808 4.412 7.808 4.412C8.559 4.412 8.835 5.111 8.835 5.111L11.724 12.714C11.9091 13.104 11.6249 13.692 11.105 13.692C10.8077 13.692 10.5442 13.4994 10.447 13.199L7.83 6.312L5.667 13.136Z" fill="#656A72"/>
  <path d="M6.443 9.913H9.415" stroke="#656A72" stroke-width="1.36574"/>
  <path fill-rule="evenodd" clip-rule="evenodd" d="M12.634 7.053C12.6327 7.03504 12.632 7.01701 12.632 6.999C12.632 6.62073 12.9387 6.314 13.317 6.314C13.6953 6.314 14.002 6.62073 14.002 6.999C14.002 7.01701 14.0013 7.03504 14 7.053V12.944C14.0013 12.962 14.002 12.98 14.002 12.998C14.002 13.3763 13.6953 13.683 13.317 13.683C12.9387 13.683 12.632 13.3763 12.632 12.998C12.632 12.98 12.6327 12.962 12.634 12.944V7.053Z" fill="#656A72"/>
  <circle cx="13.317" cy="4.779" r="0.683" fill="#656A72"/>
</svg>
