<!--
  - Copyright (c) 2022 NetEase, Inc. All rights reserved.
  - Use of this source code is governed by a MIT license that can be
  - found in the LICENSE file.
  -
  -->

<svg xmlns="http://www.w3.org/2000/svg" fill="none" version="1.1" width="32" height="32" viewBox="0 0 32 32">
    <g>
        <g>
            <path d="M6.016000047683716,0C6.016000047683716,0,19.040000047683716,0,19.040000047683716,0C19.040000047683716,0,28.800000047683717,9.86667,28.800000047683717,9.86667C28.800000047683717,9.86667,28.800000047683717,29.1556,28.800000047683717,29.1556C28.800000047683717,30.7265,27.539200047683718,32,25.984000047683715,32C25.984000047683715,32,6.016000047683716,32,6.016000047683716,32C4.460770047683716,32,3.200000047683716,30.7265,3.200000047683716,29.1556C3.200000047683716,29.1556,3.200000047683716,2.84444,3.200000047683716,2.84444C3.200000047683716,1.2735,4.460770047683716,0,6.016000047683716,0Z"
                  fill-rule="evenodd" fill="#5C67E5" fill-opacity="1"/>
        </g>
        <g>
            <path d="M18.35520009536743,13.652912181469727C18.35520009536743,13.652912181469727,10.319460095367432,14.803260381469727,10.319460095367432,14.803260381469727C10.29342009536743,14.806820381469727,10.26911009536743,14.813360381469726,10.245480095367432,14.821110381469726C10.245480095367432,14.821110381469726,9.955210095367432,14.821110381469726,9.955210095367432,14.821110381469726C9.75729009536743,14.821110381469726,9.60001009536743,14.956800381469726,9.60001009536743,15.124030381469726C9.60001009536743,15.124030381469726,9.60001009536743,22.99605038146973,9.60001009536743,22.99605038146973C9.28647009536743,22.840710381469727,8.921870095367431,22.75207038146973,8.533340095367432,22.75207038146973C7.355200095367431,22.75207038146973,6.400000095367432,23.568540381469727,6.400000095367432,24.576000381469726C6.400000095367432,25.583600381469726,7.355200095367431,26.400000381469727,8.533340095367432,26.400000381469727C9.711470095367432,26.400000381469727,10.666680095367433,25.583500381469726,10.666680095367433,24.576000381469726C10.666680095367433,24.502200381469727,10.66147009536743,24.429600381469726,10.651740095367431,24.358800381469727C10.66147009536743,24.33080038146973,10.666680095367433,24.30170038146973,10.666680095367433,24.270700381469727C10.666680095367433,24.270700381469727,10.666680095367433,17.868620381469725,10.666680095367433,17.868620381469725C10.666680095367433,17.868620381469725,18.13330009536743,16.740300381469726,18.13330009536743,16.740300381469726C18.13330009536743,16.740300381469726,18.13330009536743,21.171440381469726,18.13330009536743,21.171440381469726C17.819800095367434,21.016700381469725,17.45520009536743,20.927430381469726,17.06670009536743,20.927430381469726C15.888530095367432,20.927430381469726,14.933330095367431,21.744500381469727,14.933330095367431,22.752040381469726C14.933330095367431,23.758900381469726,15.888530095367432,24.576000381469726,17.06670009536743,24.576000381469726C18.24480009536743,24.576000381469726,19.200000095367432,23.758900381469726,19.200000095367432,22.752040381469726C19.200000095367432,22.678250381469727,19.194800095367434,22.605630381469727,19.18510009536743,22.534230381469726C19.194800095367434,22.506230381469727,19.200000095367432,22.477070381469726,19.200000095367432,22.446150381469728C19.200000095367432,22.446150381469728,19.200000095367432,13.934387381469726,19.200000095367432,13.934387381469726C19.200000095367432,13.785609381469726,19.07400009536743,13.661229481469727,18.90800009536743,13.636233981469726C18.85000009536743,13.605295621469727,18.77710009536743,13.592797911469727,18.696900095367432,13.604101221469726C18.696900095367432,13.604101221469726,18.508000095367432,13.631470881469726,18.508000095367432,13.631470881469726C18.508000095367432,13.631470881469726,18.48850009536743,13.631470881469726,18.48850009536743,13.631470881469726C18.44130009536743,13.631485481469726,18.396200095367433,13.639220081469727,18.35520009536743,13.652912181469727Z"
                  fill="#FFFFFF" fill-opacity="1"/>
        </g>
        <g>
            <path d="M19.040002822875977,0C19.040002822875977,0,28.800002822875975,9.86667,28.800002822875975,9.86667C28.800002822875975,9.86667,21.856002822875976,9.86667,21.856002822875976,9.86667C20.300772822875977,9.86667,19.040002822875977,8.59317,19.040002822875977,7.02222C19.040002822875977,7.02222,19.040002822875977,0,19.040002822875977,0Z"
                  fill-rule="evenodd" fill="#B1BDFC" fill-opacity="1"/>
        </g>
    </g>
</svg>