<svg xmlns="http://www.w3.org/2000/svg" fill="none" version="1.1" width="48"
     height="48" viewBox="0 0 48 48">
    <defs>
        <clipPath id="master_svg0_0_134649">
            <rect x="14" y="14" width="20" height="20" rx="0"/>
        </clipPath>
    </defs>
    <g>
        <g>
            <g>
                <ellipse cx="24" cy="24" rx="24" ry="24" fill="#FFFFFF" fill-opacity="1"/>
            </g>
            <g>
                <ellipse cx="24" cy="24" rx="24" ry="24" fill="#FFFFFF" fill-opacity="1"/>
            </g>
        </g>
        <g>
            <g clip-path="url(#master_svg0_0_134649)">
                <g>
                    <path d="M32.71860095367431,21.158070000000002C32.71860095367431,20.97392,32.638200953674314,20.80952,32.51340095367432,20.69273C32.51340095367432,20.69273,25.52040095367432,14.653867,25.52040095367432,14.653867C25.40910095367432,14.5593255,25.267000953674316,14.5,25.110100953674316,14.5C24.759040953674315,14.5,24.47601095367432,14.783655,24.47601095367432,15.13404C24.47601095367432,15.13404,24.47601095367432,17.807389999999998,24.47601095367432,17.807389999999998C19.130540953674316,18.670099999999998,15.367090953674316,22.59979,14.999999878654316,27.6431C15.017307153674317,27.8569,15.192815953674316,28.026899999999998,15.410342953674316,28.026899999999998C15.494378953674316,28.026899999999998,15.573479953674317,28.0015,15.639006953674317,27.9583C15.639006953674317,27.9583,15.640240953674317,27.962,15.640240953674317,27.962C16.563500953674318,27.3063,17.361910953674318,26.817500000000003,17.984850953674318,26.4887C19.496400953674318,25.6569,21.843480953674316,24.9852,24.476040953674314,24.7151C24.476040953674314,24.7151,24.476040953674314,27.192,24.476040953674314,27.192C24.476040953674314,27.543,24.759070953674318,27.826,25.110100953674316,27.826C25.259600953674315,27.826,25.394300953674318,27.7698,25.503100953674316,27.6826C25.503100953674316,27.6826,32.497400953674315,21.64257,32.497400953674315,21.64257C32.497400953674315,21.64257,32.496100953674315,21.64071,32.496100953674315,21.64071C32.63210095367432,21.52513,32.71860095367431,21.35148,32.71860095367431,21.158070000000002ZM25.744100953674316,25.7997C25.744100953674316,25.7997,25.744100953674316,23.340139999999998,25.744100953674316,23.340139999999998C25.744100953674316,23.340139999999998,25.063100953674315,23.39083,25.063100953674315,23.39083C22.308210953674315,23.59598,18.641130953674317,24.397489999999998,16.568440953674315,25.8806C17.578210953674315,22.167830000000002,20.790460953674316,19.51116,25.184200953674317,18.98773C25.184200953674317,18.98773,25.744100953674316,18.921,25.744100953674316,18.921C25.744100953674316,18.921,25.744100953674316,16.52204,25.744100953674316,16.52204C25.744100953674316,16.52204,31.114300953674316,21.16117,31.114300953674316,21.16117C31.114300953674316,21.16117,25.744100953674316,25.7997,25.744100953674316,25.7997Z"
                          fill="#656A72" fill-opacity="1"/>
                </g>
                <g transform="matrix(1,8.74230536851428e-8,-8.74230536851428e-8,1,0.000002578980001999298,-0.000002272999395813713)">
                    <path d="" fill="#656A72" fill-opacity="1"/>
                    <path d="M26,28.849999046325685L32,28.849999046325685Q32.06402,28.849999046325685,32.12681,28.862489046325685Q32.1896,28.874978046325683,32.24874,28.899477046325682Q32.30789,28.923977046325682,32.36112,28.959544046325682Q32.41435,28.995111046325682,32.45962,29.040380046325684Q32.50489,29.085648046325684,32.54045,29.138878046325683Q32.57602,29.192109046325683,32.60052,29.251255046325685Q32.62502,29.310401046325683,32.63751,29.373190046325682Q32.65,29.435979646325684,32.65,29.499999046325684Q32.65,29.564018446325683,32.63751,29.626808046325685Q32.62502,29.689597046325684,32.60052,29.748743046325682Q32.57602,29.807889046325684,32.54045,29.861120046325684Q32.50489,29.914350046325684,32.45962,29.959618046325684Q32.41435,30.004887046325685,32.36112,30.040454046325685Q32.30789,30.076021046325685,32.24874,30.100521046325685Q32.1896,30.125020046325684,32.12681,30.137509046325683Q32.06402,30.149999046325682,32,30.149999046325682L26,30.149999046325682Q25.9359806,30.149999046325682,25.873191,30.137509046325683Q25.810402,30.125020046325684,25.751256,30.100521046325685Q25.69211,30.076021046325685,25.638879,30.040454046325685Q25.585649,30.004887046325685,25.540381,29.959618046325684Q25.495112,29.914350046325684,25.459545,29.861120046325684Q25.423977999999998,29.807889046325684,25.399478,29.748743046325682Q25.374979,29.689597046325684,25.36249,29.626808046325685Q25.35,29.564018446325683,25.35,29.499999046325684Q25.35,29.435979646325684,25.36249,29.373190046325682Q25.374979,29.310401046325683,25.399478,29.251255046325685Q25.423977999999998,29.192109046325683,25.459545,29.138878046325683Q25.495112,29.085648046325684,25.540381,29.040380046325684Q25.585649,28.995111046325682,25.638879,28.959544046325682Q25.69211,28.923977046325682,25.751256,28.899477046325682Q25.810402,28.874978046325683,25.873191,28.862489046325685Q25.9359806,28.849999046325685,26,28.849999046325685Z"
                          fill-rule="evenodd" fill="#656A72" fill-opacity="1"/>
                </g>
                <g>
                    <path d="" fill="#656A72" fill-opacity="1"/>
                    <path d="M16,32.35L32,32.35Q32.064,32.35,32.1268,32.36249Q32.1896,32.374979,32.2487,32.399478Q32.307900000000004,32.423978,32.3611,32.459545Q32.4143,32.495112,32.459599999999995,32.540381Q32.5049,32.585649,32.5405,32.638879Q32.576,32.69211,32.6005,32.751256Q32.625,32.810402,32.6375,32.873191Q32.65,32.9359806,32.65,33Q32.65,33.0640194,32.6375,33.126809Q32.625,33.189598,32.6005,33.248744Q32.576,33.30789,32.5405,33.361121Q32.5049,33.414351,32.459599999999995,33.459619Q32.4143,33.504888,32.3611,33.540455Q32.307900000000004,33.576022,32.2487,33.600522Q32.1896,33.625021,32.1268,33.63751Q32.064,33.65,32,33.65L16,33.65Q15.9359806,33.65,15.873191,33.63751Q15.810402,33.625021,15.751256,33.600522Q15.69211,33.576022,15.638879,33.540455Q15.585649,33.504888,15.540381,33.459619Q15.495112,33.414351,15.459545,33.361121Q15.423978,33.30789,15.399478,33.248744Q15.374979,33.189598,15.36249,33.126809Q15.35,33.0640194,15.35,33Q15.35,32.9359806,15.36249,32.873191Q15.374979,32.810402,15.399478,32.751256Q15.423978,32.69211,15.459545,32.638879Q15.495112,32.585649,15.540381,32.540381Q15.585649,32.495112,15.638879,32.459545Q15.69211,32.423978,15.751256,32.399478Q15.810402,32.374979,15.873191,32.36249Q15.9359806,32.35,16,32.35Z"
                          fill-rule="evenodd" fill="#656A72" fill-opacity="1"/>
                </g>
            </g>
        </g>
    </g>
</svg>