<!--
  - Copyright (c) 2022 NetEase, Inc. All rights reserved.
  - Use of this source code is governed by a MIT license that can be
  - found in the LICENSE file.
  -
  -->

<!DOCTYPE svg PUBLIC "-//W3C//DTD SVG 1.1//EN" "http://www.w3.org/Graphics/SVG/1.1/DTD/svg11.dtd">
<svg t="1726817526494" class="icon" viewBox="0 0 1024 1024" version="1.1" xmlns="http://www.w3.org/2000/svg"
     p-id="13017"
     width="64" height="64">
    <path d="M112.746667 0C50.517333 0 0 57.642667 0 128.277333v767.445334C0 966.549333 50.666667 1024 112.746667 1024h798.506666C973.482667 1024 1024 966.357333 1024 895.722667V128.277333C1024 57.450667 973.333333 0 911.253333 0H112.746667z"
          fill="#F5A623" p-id="13018"></path>
    <path d="M139.626667 341.333333c0 68.544 51.328 124.117333 114.645333 124.117334 63.296 0 114.624-55.573333 114.624-124.117334 0-68.544-51.328-124.117333-114.624-124.117333-63.317333 0-114.645333 55.573333-114.645333 124.117333zM114.368 853.333333c-8.106667 0-16.042667-2.922667-22.826667-8.768-15.872-13.994667-18.688-39.509333-6.016-57.045333 38.570667-53.802667 90.090667-95.722667 145.002667-117.674667 59.178667-23.722667 118.954667-6.336 171.648 9.109334 47.402667 13.802667 88.469333 25.514667 117.034667 6.826666 23.402667-15.445333 41.514667-44.224 56.682666-70.058666 51.221333-87.424 124.544-143.36 195.797334-149.674667 40.021333-3.413333 97.450667 6.336 152.213333 73.301333 13.674667 16.725333 12.501333 42.24-2.517333 57.365334-14.997333 15.104-38.272 13.802667-51.946667-2.773334-27.989333-33.962667-58.304-49.706667-91.733333-46.954666-48 4.224-101.568 47.616-139.989334 112.938666-19.584 33.493333-43.733333 71.36-80.810666 95.722667-55.061333 36.416-118.08 18.048-173.44 1.962667-46.506667-13.482667-90.24-26.176-127.914667-11.221334-42.24 17.066667-82.133333 49.578667-112.469333 91.84A35.626667 35.626667 0 0 1 114.368 853.333333z"
          fill="#FFFFFF" p-id="13019"></path>
</svg>