<svg xmlns="http://www.w3.org/2000/svg" fill="none" version="1.1" width="18"
     height="18" viewBox="0 0 18 18">
    <defs>
        <clipPath id="master_svg0_0_90915">
            <rect x="0" y="0" width="18" height="18" rx="0"/>
        </clipPath>
    </defs>
    <g clip-path="url(#master_svg0_0_90915)">
        <g>
            <path d="M17.645,13.5L17.645,10Q17.645,9.93647,17.6326,9.87417Q17.6202,9.81186,17.5959,9.75317Q17.5716,9.69448,17.5363,9.64166Q17.501,9.58883,17.4561,9.54392Q17.4112,9.49899,17.3583,9.4637Q17.3055,9.42841,17.2468,9.4041Q17.1881,9.37979,17.1258,9.36739Q17.0635,9.355,17,9.355Q16.936500000000002,9.355,16.874200000000002,9.36739Q16.8119,9.37979,16.7532,9.4041Q16.694499999999998,9.42841,16.6417,9.4637Q16.5888,9.49899,16.5439,9.54392Q16.499000000000002,9.58883,16.4637,9.64165Q16.4284,9.69448,16.4041,9.75317Q16.3798,9.81186,16.3674,9.87417Q16.355,9.93647,16.355,10L16.355,10.00111L16.355,16.0125Q16.355,16.355,15.9816,16.355L2.01837,16.355Q1.645,16.355,1.645,15.9816L1.645,2.01837Q1.645,1.645,2.0148200000000003,1.645L5.5,1.645Q5.56353,1.645,5.62583,1.632606Q5.68814,1.6202130000000001,5.74683,1.5959020000000002Q5.80552,1.571591,5.85834,1.536298Q5.91116,1.501004,5.95608,1.456084Q6.001,1.4111639999999999,6.0363,1.358343Q6.07159,1.305522,6.0959,1.246831Q6.12021,1.18814,6.13261,1.125833Q6.145,1.0635269,6.145,1Q6.145,0.9364731,6.13261,0.874167Q6.12021,0.81186,6.0959,0.753169Q6.07159,0.6944779999999999,6.0363,0.6416569999999999Q6.001,0.588836,5.95608,0.5439160000000001Q5.91116,0.498996,5.85834,0.46370199999999995Q5.80552,0.428408,5.74683,0.40409799999999996Q5.68814,0.379787,5.62583,0.367394Q5.56353,0.355,5.5,0.355L2.0148200000000003,0.355Q1.332868,0.355,0.843131,0.8470880000000001Q0.355,1.337562,0.355,2.01837L0.355,15.9816Q0.355,17.645,2.01837,17.645L15.9816,17.645Q16.658,17.645,17.1442,17.179Q17.645,16.6991,17.645,16.0125L17.645,13.5Z"
                  fill-rule="evenodd" fill="#656A72" fill-opacity="1"/>
        </g>
        <g>
            <path d="M7,12L8.29,10.968L8.29,6.03861Q8.29,5.72145,8.504950000000001,5.4967Q8.70263,5.29,8.97377,5.29L15.3875,5.29L17,4L8.97377,4C7.869198,4,7,4.934038,7,6.03861L7,12Z"
                  fill-rule="evenodd" fill="#656A72" fill-opacity="1"/>
        </g>
        <g>
            <path d="M17.45608,4.456084Q17.5468,4.365363,17.5959,4.246831Q17.645,4.128298,17.645,4Q17.645,3.9364731,17.63261,3.874167Q17.62021,3.81186,17.5959,3.753169Q17.57159,3.694478,17.5363,3.641657Q17.501,3.588836,17.45608,3.543916Q17.41116,3.498996,17.35834,3.463702Q17.30552,3.428408,17.24683,3.404098Q17.18814,3.379787,17.12583,3.367394Q17.06353,3.355,17,3.355Q16.8717,3.355,16.75317,3.404098Q16.63464,3.453195,16.54392,3.543916L16.54377,3.544067L13.543916,6.54392Q13.453195000000001,6.63464,13.404098,6.75317Q13.355,6.871700000000001,13.355,7Q13.355,7.06353,13.367394,7.1258300000000006Q13.379787,7.188140000000001,13.404098,7.24683Q13.428409,7.30552,13.463702,7.35834Q13.498996,7.411160000000001,13.543916,7.45608Q13.588836,7.5009999999999994,13.641657,7.536300000000001Q13.694478,7.5715900000000005,13.753169,7.5959Q13.81186,7.62021,13.874167,7.63261Q13.9364731,7.645,14,7.645Q14.128298,7.645,14.246831,7.5959Q14.365363,7.5468,14.456084,7.45608L14.456234,7.45593L17.45593,4.456234L17.45608,4.456084L17.45608,4.456084Z"
                  fill-rule="evenodd" fill="#656A72" fill-opacity="1"/>
        </g>
        <g transform="matrix(1,0,0,-1,0,8)">
            <path d="M17.45608,4.456084Q17.5468,4.365363,17.5959,4.246831Q17.645,4.128298,17.645,4Q17.645,3.9364731,17.63261,3.874167Q17.62021,3.81186,17.5959,3.753169Q17.57159,3.694478,17.5363,3.641657Q17.501,3.588836,17.45608,3.543916Q17.41116,3.498996,17.35834,3.463702Q17.30552,3.428408,17.24683,3.404098Q17.18814,3.379787,17.12583,3.367394Q17.06353,3.355,17,3.355Q16.8717,3.355,16.75317,3.404098Q16.63464,3.453195,16.54392,3.543916L16.54377,3.544067L13.543916,6.54392Q13.453195000000001,6.63464,13.404098,6.75317Q13.355,6.871700000000001,13.355,7Q13.355,7.06353,13.367394,7.1258300000000006Q13.379787,7.188140000000001,13.404098,7.24683Q13.428409,7.30552,13.463702,7.35834Q13.498996,7.411160000000001,13.543916,7.45608Q13.588836,7.5009999999999994,13.641657,7.536300000000001Q13.694478,7.5715900000000005,13.753169,7.5959Q13.81186,7.62021,13.874167,7.63261Q13.9364731,7.645,14,7.645Q14.128298,7.645,14.246831,7.5959Q14.365363,7.5468,14.456084,7.45608L14.456234,7.45593L17.45593,4.456234L17.45608,4.456084L17.45608,4.456084Z"
                  fill-rule="evenodd" fill="#656A72" fill-opacity="1"/>
        </g>
    </g>
</svg>