<!--
  - Copyright (c) 2022 NetEase, Inc. All rights reserved.
  - Use of this source code is governed by a MIT license that can be
  - found in the LICENSE file.
  -
  -->

<svg xmlns="http://www.w3.org/2000/svg" fill="none" version="1.1" width="32" height="32" viewBox="0 0 32 32">
    <g>
        <g>
            <path d="M6.016000047683716,0C6.016000047683716,0,19.040000047683716,0,19.040000047683716,0C19.040000047683716,0,28.800000047683717,9.86667,28.800000047683717,9.86667C28.800000047683717,9.86667,28.800000047683717,29.1556,28.800000047683717,29.1556C28.800000047683717,30.7265,27.539200047683718,32,25.984000047683715,32C25.984000047683715,32,6.016000047683716,32,6.016000047683716,32C4.460770047683716,32,3.200000047683716,30.7265,3.200000047683716,29.1556C3.200000047683716,29.1556,3.200000047683716,2.84444,3.200000047683716,2.84444C3.200000047683716,1.2735,4.460770047683716,0,6.016000047683716,0Z"
                  fill-rule="evenodd" fill="#BBBBBF" fill-opacity="1"/>
        </g>
        <g>
            <path d="M8,15.999999809265137L8,15.999999809265137Q8,15.921206809265136,8.0153718,15.843926809265136Q8.0307435,15.766647809265137,8.0608963,15.693852809265136Q8.0910491,15.621057809265137,8.134824,15.555543809265137Q8.178599,15.490029809265137,8.234314,15.434313809265136Q8.29003,15.378598809265137,8.355544,15.334823809265137Q8.421058,15.291048909265136,8.493853,15.260896109265136Q8.566648,15.230743309265137,8.643927,15.215371609265137Q8.721207,15.199999809265137,8.8,15.199999809265137L19.2,15.199999809265137Q19.2788,15.199999809265137,19.356099999999998,15.215371609265137Q19.4334,15.230743309265137,19.5061,15.260896109265136Q19.5789,15.291048909265136,19.6445,15.334823809265137Q19.71,15.378598809265137,19.765700000000002,15.434313809265136Q19.8214,15.490029809265137,19.8652,15.555543809265137Q19.9089,15.621057809265137,19.9391,15.693852809265136Q19.9693,15.766647809265137,19.9846,15.843926809265136Q20,15.921206809265136,20,15.999999809265137L20,15.999999809265137Q20,16.07879280926514,19.9846,16.156071809265136Q19.9693,16.233349809265135,19.9391,16.306149809265136Q19.9089,16.378939809265137,19.8652,16.444459809265137Q19.8214,16.509969809265137,19.765700000000002,16.565679809265138Q19.71,16.621399809265135,19.6445,16.665179809265137Q19.5789,16.708949809265135,19.5061,16.739099809265138Q19.4334,16.769259809265137,19.356099999999998,16.784629809265137Q19.2788,16.799999809265138,19.2,16.799999809265138L8.8,16.799999809265138Q8.721207,16.799999809265138,8.643927,16.784629809265137Q8.566648,16.769259809265137,8.493853,16.739099809265138Q8.421058,16.708949809265135,8.355544,16.665169809265137Q8.29003,16.621399809265135,8.234314,16.565679809265138Q8.178599,16.509969809265137,8.134824,16.444459809265137Q8.0910491,16.378939809265137,8.0608963,16.306149809265136Q8.0307435,16.233349809265135,8.0153718,16.156071809265136Q8,16.07879280926514,8,15.999999809265137ZM8,19.999999809265137L8,19.999999809265137Q8,19.921209809265136,8.0153718,19.843929809265138Q8.0307435,19.766649809265136,8.0608963,19.69384980926514Q8.0910491,19.621059809265137,8.134824,19.555539809265138Q8.178599,19.49002980926514,8.234314,19.434309809265137Q8.290029,19.378599809265136,8.355543,19.334819809265138Q8.421057,19.291049809265136,8.493853,19.260899809265137Q8.566648,19.23073980926514,8.643927,19.215369809265137Q8.721206,19.199999809265137,8.799999,19.199999809265137L19.2,19.199999809265137Q19.2788,19.199999809265137,19.356099999999998,19.215369809265137Q19.4334,19.23073980926514,19.5061,19.260899809265137Q19.5789,19.291049809265136,19.6445,19.334819809265138Q19.71,19.378599809265136,19.765700000000002,19.434309809265137Q19.8214,19.49002980926514,19.8652,19.555539809265138Q19.9089,19.621059809265137,19.9391,19.69384980926514Q19.9693,19.766649809265136,19.9846,19.843929809265138Q20,19.921209809265136,20,19.999999809265137L20,19.999999809265137Q20,20.07878980926514,19.9846,20.156069809265137Q19.9693,20.233349809265135,19.9391,20.306149809265136Q19.9089,20.378939809265137,19.8652,20.444449809265137Q19.8214,20.509969809265137,19.765700000000002,20.565679809265138Q19.71,20.621399809265135,19.6445,20.665169809265137Q19.5789,20.708949809265135,19.5061,20.739099809265138Q19.4334,20.769249809265137,19.356099999999998,20.784629809265137Q19.2788,20.799999809265138,19.2,20.799999809265138L8.799999,20.799999809265138Q8.721206,20.799999809265138,8.643927,20.784629809265137Q8.566648,20.769249809265137,8.493853,20.739099809265138Q8.421057,20.708949809265135,8.355543,20.665169809265137Q8.290029,20.621399809265135,8.234314,20.565679809265138Q8.178599,20.509969809265137,8.134824,20.444449809265137Q8.0910491,20.378939809265137,8.0608963,20.306149809265136Q8.0307435,20.233349809265135,8.0153718,20.156069809265137Q8,20.07878980926514,8,19.999999809265137ZM8,23.999999809265137L8,23.999999809265137Q8,23.921209809265136,8.0153718,23.843929809265134Q8.0307435,23.766649809265136,8.0608963,23.69384980926514Q8.0910491,23.621059809265137,8.134824,23.555539809265134Q8.178599,23.49002980926514,8.234314,23.434309809265137Q8.290029,23.378599809265136,8.355543,23.334819809265134Q8.421057,23.291049809265136,8.493853,23.260899809265137Q8.566648,23.23073980926514,8.643927,23.215369809265137Q8.721206,23.199999809265137,8.799999,23.199999809265137L14.4,23.199999809265137Q14.47879,23.199999809265137,14.55607,23.215369809265137Q14.63335,23.23073980926514,14.706150000000001,23.260899809265137Q14.77894,23.291049809265136,14.84446,23.334819809265134Q14.909970000000001,23.378599809265136,14.965679999999999,23.434309809265137Q15.0214,23.49002980926514,15.06518,23.555539809265134Q15.10895,23.621059809265137,15.1391,23.69384980926514Q15.169260000000001,23.766649809265136,15.18463,23.843929809265134Q15.2,23.921209809265136,15.2,23.999999809265137L15.2,23.999999809265137Q15.2,24.07878980926514,15.18463,24.156069809265137Q15.169260000000001,24.233349809265135,15.1391,24.306139809265137Q15.10895,24.378939809265137,15.06518,24.444449809265137Q15.0214,24.509969809265137,14.965679999999999,24.565679809265134Q14.909970000000001,24.621399809265135,14.84445,24.665169809265137Q14.77894,24.708949809265135,14.706150000000001,24.739099809265134Q14.63335,24.769249809265137,14.55607,24.784629809265137Q14.47879,24.799999809265138,14.4,24.799999809265138L8.799999,24.799999809265138Q8.721206,24.799999809265138,8.643927,24.784629809265137Q8.566648,24.769249809265137,8.493853,24.739099809265134Q8.421057,24.708949809265135,8.355543,24.665169809265137Q8.290029,24.621399809265135,8.234314,24.565679809265134Q8.178599,24.509969809265137,8.134824,24.444449809265137Q8.0910491,24.378939809265137,8.0608963,24.306139809265137Q8.0307435,24.233349809265135,8.0153718,24.156069809265137Q8,24.07878980926514,8,23.999999809265137Z"
                  fill="#FFFFFF" fill-opacity="1"/>
        </g>
        <g>
            <path d="M19.03999900817871,0C19.03999900817871,0,28.79999900817871,9.86667,28.79999900817871,9.86667C28.79999900817871,9.86667,21.85599900817871,9.86667,21.85599900817871,9.86667C20.30076900817871,9.86667,19.03999900817871,8.59317,19.03999900817871,7.02222C19.03999900817871,7.02222,19.03999900817871,0,19.03999900817871,0Z"
                  fill-rule="evenodd" fill="#E8E9ED" fill-opacity="1"/>
        </g>
    </g>
</svg>