<svg xmlns="http://www.w3.org/2000/svg" fill="none" version="1.1"
     width="20.139999389648438" height="19.329999923706055" viewBox="0 0 20.139999389648438 19.329999923706055">
    <defs>
        <clipPath id="master_svg0_2004_069539">
            <rect x="0" y="0" width="20.139999389648438" height="19.329999923706055" rx="0"/>
        </clipPath>
    </defs>
    <g clip-path="url(#master_svg0_2004_069539)">
        <g>
            <path d="M11.28339833984375,1.951995740625Q10.89594833984375,1.222431640625,10.06994833984375,1.222431640625Q9.24415833984375,1.222431640625,8.85650833984375,1.951779140625Q8.84840833984375,1.967005940625,8.839008339843751,1.986095640625L7.13344833984375,5.451031640625001L7.13232833984375,5.4533116406249995Q6.86400833984375,6.000731640625,6.26111833984375,6.088021640625L6.26065833984375,6.088081640625L2.44302633984375,6.636011640625Q2.42760733984375,6.638231640625,2.41521533984375,6.640291640625Q1.5954443398437501,6.777091640625,1.33561233984375,7.566941640625Q1.0771063398437501,8.354101640625,1.65270433984375,8.950161640625Q1.66445533984375,8.962331640624999,1.67947133984375,8.976961640625L4.44433833984375,11.670051640625L4.44617833984375,11.671841640625Q4.8814883398437505,12.094431640625,4.78110833984375,12.692231640625L4.781058339843749,12.692531640625L4.78096833984375,12.693031640625L4.78089833984375,12.693431640625L4.125058339843751,16.502831640625L4.124588339843751,16.505531640625L4.12381833984375,16.509931640625Q3.97757833984375,17.345231640625002,4.66156833984375,17.846431640625Q5.34970833984375,18.350731640625,6.10452833984375,17.953031640625L9.94598833984375,15.928831640625L9.94841833984375,15.927631640625L9.95033833984375,15.926531640625Q10.06983833984375,15.863331640625,10.18925833984375,15.926531640625L10.19143833984375,15.927731640625L10.19393833984375,15.929031640625L14.03514833984375,17.953131640625Q14.79004833984375,18.350731640625,15.47824833984375,17.846431640625Q16.16234833984375,17.345131640625,16.01574833984375,16.509631640625003L16.01524833984375,16.506731640625L16.01474833984375,16.503831640625002L15.27834833984375,12.228831640625L15.27824833984375,12.228231640625L15.27814833984375,12.227731640625Q15.25704833984375,12.096731640625,15.35274833984375,12.003731640625L15.35354833984375,12.002931640625L18.46044833984375,8.976861640625Q18.47544833984375,8.962251640625,18.48694833984375,8.950301640625Q19.06214833984375,8.354991640625,18.80404833984375,7.567001640625L18.80344833984375,7.565091640625Q18.54354833984375,6.775861640625,17.72304833984375,6.640051640625Q17.71194833984375,6.638201640625,17.698148339843748,6.636211640625L13.41314833984375,6.016421640625L13.41004833984375,6.015971640625L13.40714833984375,6.015561640625Q13.27354833984375,5.996601640625,13.21384833984375,5.875021640625L13.21344833984375,5.874261640625L11.30082833984375,1.986211640625Q11.29151833984375,1.967301340625,11.28339833984375,1.951995740625ZM9.99557833984375,2.557253640625Q10.01940833984375,2.512431640625,10.06994833984375,2.512431640625Q10.12039833984375,2.512431640625,10.14408833984375,2.5570366406250002L10.14327833984375,2.555587640625L12.05594833984375,6.443681640625L12.05624833984375,6.444421640625Q12.41644833984375,7.177921640625,13.22594833984375,7.292771640625L13.22864833984375,7.293161640625L13.23004833984375,7.293361640625L17.513448339843748,7.912921640625Q17.56274833984375,7.921561640625,17.57834833984375,7.969191640625L17.579148339843748,7.971461640625Q17.594348339843748,8.017651640625001,17.559248339843748,8.053941640625L17.56034833984375,8.052781640625L14.45344833984375,11.078851640625L14.45234833984375,11.079921640625Q13.87684833984375,11.639301640625,14.00454833984375,12.432631640625L14.00564833984375,12.439131640625L14.00674833984375,12.445831640625L14.74354833984375,16.722831640625L14.74444833984375,16.728431640625L14.74524833984375,16.732931640625Q14.75324833984375,16.778431640625,14.71574833984375,16.805931640624998Q14.67794833984375,16.833631640625,14.63644833984375,16.811831640625L10.79530833984375,14.787731640625L10.79386833984375,14.787031640625L10.79320833984375,14.786631640625Q10.06983833984375,14.403531640625,9.34654833984375,14.786631640625L9.34449833984375,14.787731640625L9.34409833984375,14.787931640625L5.50316833984375,16.811831640625Q5.46182833984375,16.833631640625,5.42407833984375,16.805931640624998Q5.38644833984375,16.778331640624998,5.39448833984375,16.732431640625002L5.39513833984375,16.728731640625L5.395938339843751,16.724131640625L6.05219833984375,12.912331640625L6.05262833984375,12.909831640625L6.05280833984375,12.908731640625L6.05302833984375,12.907531640625Q6.26642833984375,11.640941640625,5.34468833984375,10.746211640625L5.34376833984375,10.745321640625L2.57956533984375,8.052871640625L2.58069033984375,8.054091640625Q2.54541033984375,8.017561640625,2.56121433984375,7.969431640625Q2.57710833984375,7.921121640625,2.62754533984375,7.912701640625L2.62638133984375,7.912921640625L6.44392833984375,7.365001640625L6.44513833984375,7.364821640625Q7.72268833984375,7.179851640625,8.29066833984375,6.021071640625L8.29116833984375,6.020061640625L9.99639833984375,2.555801640625L9.99557833984375,2.557253640625Z"
                  fill-rule="evenodd" fill="#656A72" fill-opacity="1"/>
        </g>
    </g>
</svg>