<svg xmlns="http://www.w3.org/2000/svg" fill="none" version="1.1" width="18"
     height="18" viewBox="0 0 18 18">
    <defs>
        <clipPath id="master_svg0_0_90924">
            <rect x="0" y="0" width="18" height="18" rx="0"/>
        </clipPath>
    </defs>
    <g clip-path="url(#master_svg0_0_90924)">
        <g>
            <path d="M13.846314268684388,0C14.081914268684388,0,14.315214268684388,0.0464126,14.532914268684387,0.136588C14.750614268684387,0.226763,14.948414268684386,0.358935,15.115114268684387,0.525557C15.281714268684388,0.69218,15.413914268684387,0.889989,15.504014268684386,1.10769C15.594214268684388,1.32539,15.640614268684388,1.55873,15.640614268684388,1.79437L15.640614268684388,17.1021C15.640714268684388,17.257,15.600814268684386,17.4092,15.524614268684386,17.544C15.448514268684388,17.6789,15.338714268684388,17.7917,15.206014268684386,17.8715C15.073414268684386,17.9514,14.922314268684387,17.9955,14.767514268684387,17.9997C14.612714268684387,18.0038,14.459414268684387,17.9678,14.322714268684388,17.8952L8.883054268684386,15.0081C8.753474268684387,14.9393,8.608994268684388,14.9033,8.462274268684387,14.9033C8.315564268684387,14.9033,8.171084268684387,14.9393,8.041504268684388,15.0081L2.604574268684387,17.8943C2.467844268684387,17.9671,2.3145942686843872,18.0033,2.1597392686843873,17.9993C2.004886268684387,17.9953,1.8537052686843873,17.9513,1.7209152686843872,17.8715C1.5881252686843872,17.7917,1.478249268684387,17.6789,1.4019842686843873,17.5441C1.3257190686843872,17.4093,1.2856626407843872,17.257,1.2857142686843872,17.1021L1.2857142686843872,1.79437C1.2857142686843872,1.55873,1.3321267686843872,1.32539,1.4223022686843871,1.10769C1.5124772686843873,0.889989,1.6446492686843872,0.69218,1.8112712686843873,0.525557C1.9778942686843872,0.358935,2.175703268684387,0.226763,2.393404268684387,0.136588C2.6111042686843873,0.0464126,2.844444268684387,0,3.080084268684387,0L13.846314268684388,0ZM13.846314268684388,1.28571L3.080084268684387,1.28571Q2.978904268684387,1.28571,2.885424268684387,1.32443Q2.7919542686843872,1.36315,2.720404268684387,1.43469Q2.6488642686843873,1.50624,2.610144268684387,1.59971Q2.571424268684387,1.69319,2.571424268684387,1.79437L2.571424268684387,16.4563L7.438504268684388,13.8725Q7.918644268684387,13.6176,8.462274268684387,13.6176Q9.005904268684386,13.6176,9.485824268684388,13.8724L14.354914268684388,16.4567L14.354914268684388,1.79437Q14.354914268684388,1.69319,14.316214268684387,1.59971Q14.277514268684387,1.50624,14.205914268684387,1.43469Q14.134414268684386,1.36315,14.040914268684388,1.32443Q13.947414268684387,1.28571,13.846314268684388,1.28571Z"
                  fill-rule="evenodd" fill="#656A72" fill-opacity="1"/>
        </g>
        <g>
            <path d="M12.732477074737549,4.884061Q12.859287074737548,4.712965,12.859287074737548,4.5Q12.859287074737548,4.4364731,12.846887074737548,4.374167Q12.834497074737548,4.31186,12.810187074737549,4.253169Q12.785877074737549,4.194478,12.750587074737549,4.141657Q12.71528707473755,4.088836,12.670367074737548,4.043916Q12.625447074737549,3.998996,12.57262707473755,3.963702Q12.51980707473755,3.928408,12.46111707473755,3.904098Q12.402427074737549,3.879787,12.340117074737549,3.867394Q12.277807074737549,3.855,12.214287074737548,3.855Q12.125357074737549,3.855,12.039747074737548,3.879064Q11.954137074737549,3.903127,11.878237074737548,3.949459Q11.80233707473755,3.995791,11.741797074737548,4.060933Q11.681257074737548,4.126076,11.640617074737548,4.205169L8.08878707473755,9.91762L5.588481074737549,7.890829999999999Q5.498472074737549,7.804819999999999,5.382915074737549,7.7584800000000005Q5.267358074737549,7.71214,5.142857074737549,7.71214Q5.0793301747375486,7.71214,5.017024074737549,7.72454Q4.954717074737549,7.73693,4.896026074737549,7.76124Q4.837335074737549,7.785550000000001,4.784514074737549,7.8208400000000005Q4.7316930747375485,7.85614,4.686773074737549,7.90106Q4.641853074737549,7.9459800000000005,4.606559074737548,7.9988Q4.571265074737549,8.05162,4.546955074737549,8.11031Q4.522644074737549,8.169,4.510251074737549,8.23131Q4.497857074737549,8.29362,4.497857074737549,8.35714Q4.497857074737549,8.43583,4.516774074737549,8.51221Q4.5356910747375485,8.58859,4.572415074737549,8.65818Q4.6091390747375485,8.72777,4.661516074737548,8.78649Q4.713894074737549,8.84521,4.778852074737549,8.889610000000001L7.845177074737549,11.37523Q7.876407074737549,11.40054,7.910547074737549,11.42177Q8.01914707473755,11.48929,8.145307074737548,11.510110000000001Q8.271477074737549,11.530940000000001,8.396007074737549,11.50189Q8.520537074737549,11.472850000000001,8.624467074737549,11.39836Q8.728407074737548,11.32387,8.795927074737548,11.21528L12.732477074737549,4.884061Z"
                  fill-rule="evenodd" fill="#656A72" fill-opacity="1"/>
        </g>
    </g>
</svg>