<!--
  - Copyright (c) 2022 NetEase, Inc. All rights reserved.
  - Use of this source code is governed by a MIT license that can be
  - found in the LICENSE file.
  -
  -->

<svg xmlns="http://www.w3.org/2000/svg" fill="none" version="1.1" width="32" height="32" viewBox="0 0 32 32">
    <g>
        <g>
            <path d="M6.016000047683716,0C6.016000047683716,0,19.040000047683716,0,19.040000047683716,0C19.040000047683716,0,28.800000047683717,9.86667,28.800000047683717,9.86667C28.800000047683717,9.86667,28.800000047683717,29.1556,28.800000047683717,29.1556C28.800000047683717,30.7265,27.539200047683718,32,25.984000047683715,32C25.984000047683715,32,6.016000047683716,32,6.016000047683716,32C4.460770047683716,32,3.200000047683716,30.7265,3.200000047683716,29.1556C3.200000047683716,29.1556,3.200000047683716,2.84444,3.200000047683716,2.84444C3.200000047683716,1.2735,4.460770047683716,0,6.016000047683716,0Z"
                  fill-rule="evenodd" fill="#E54545" fill-opacity="1"/>
        </g>
        <g>
            <path d="M19.03999900817871,0C19.03999900817871,0,28.79999900817871,9.86667,28.79999900817871,9.86667C28.79999900817871,9.86667,21.85599900817871,9.86667,21.85599900817871,9.86667C20.30076900817871,9.86667,19.03999900817871,8.59317,19.03999900817871,7.02222C19.03999900817871,7.02222,19.03999900817871,0,19.03999900817871,0Z"
                  fill-rule="evenodd" fill="#FC8B8B" fill-opacity="1"/>
        </g>
        <g>
            <path d="M11.996879809265137,20.084374618530273C11.996879809265137,20.821874618530273,11.766409809265138,21.385934618530275,11.305469809265137,21.776564618530273C10.844529809265136,22.16718461853027,10.189069809265137,22.362494618530274,9.339059809265137,22.362494618530274L8.715619809265137,22.362494618530274L8.715619809265137,24.799994618530274L7.262499809265137,24.799994618530274L7.262499809265137,17.946874618530273L9.451559809265136,17.946874618530273C10.282819809265137,17.946874618530273,10.914839809265137,18.125778618530273,11.347659809265137,18.483593618530275C11.780469809265137,18.841407618530273,11.996879809265137,19.374994618530273,11.996879809265137,20.084374618530273ZM18.976499809265135,21.307814618530273C18.976499809265135,22.43594461853027,18.655399809265134,23.299994618530274,18.01319980926514,23.899994618530272C17.370999809265136,24.500004618530273,16.443709809265137,24.799994618530274,15.231199809265137,24.799994618530274L13.290579809265136,24.799994618530274L13.290579809265136,17.946874618530273L15.442139809265136,17.946874618530273C16.560899809265138,17.946874618530273,17.429599809265135,18.242184618530274,18.048399809265135,18.832811618530272C18.66709980926514,19.423444618530272,18.976499809265135,20.248434618530272,18.976499809265135,21.307814618530273ZM21.826499809265137,24.799994618530274L20.396799809265136,24.799994618530274L20.396799809265136,17.946874618530273L24.324899809265137,17.946874618530273L24.324899809265137,19.137494618530273L21.826499809265137,19.137494618530273L21.826499809265137,20.904684618530272L24.151499809265136,20.904684618530272L24.151499809265136,22.090624618530274L21.826499809265137,22.090624618530274L21.826499809265137,24.799994618530274ZM9.193749809265137,21.171924618530273L8.715619809265137,21.171924618530273L8.715619809265137,19.137544618530274L9.376559809265137,19.137544618530274C9.773439809265136,19.137544618530274,10.064839809265138,19.218794618530275,10.250779809265136,19.381294618530273C10.436719809265137,19.543794618530274,10.529689809265136,19.795354618530272,10.529689809265136,20.135984618530273C10.529689809265136,20.47348461853027,10.418749809265137,20.73051461853027,10.196879809265138,20.907074618530274C9.974999809265137,21.083644618530272,9.640629809265137,21.171924618530273,9.193749809265137,21.171924618530273ZM15.517139809265137,19.137544618530274C16.81714980926514,19.137544618530274,17.467099809265136,19.873474618530274,17.467099809265136,21.345364618530272C17.467099809265136,22.848494618530275,16.767149809265135,23.600044618530273,15.367139809265137,23.600044618530273L14.743699809265138,23.600044618530273L14.743699809265138,19.137544618530274L15.517139809265137,19.137544618530274Z"
                  fill-rule="evenodd" fill="#FFFFFF" fill-opacity="1"/>
        </g>
    </g>
</svg>