<svg xmlns="http://www.w3.org/2000/svg" fill="none" version="1.1" width="48"
     height="48" viewBox="0 0 48 48">
    <defs>
        <clipPath id="master_svg0_0_134663">
            <rect x="14" y="14" width="20" height="20" rx="0"/>
        </clipPath>
    </defs>
    <g>
        <g>
            <ellipse cx="24" cy="24" rx="24" ry="24" fill="#FFFFFF" fill-opacity="1"/>
        </g>
        <g clip-path="url(#master_svg0_0_134663)">
            <g>
                <path d="M18.285714,17.214746498069765L18.285714,19.000466498069763L19.714286,19.000466498069763L19.714286,16.868496498069764Q19.714286,16.564016498069762,19.921557,16.350880498069763Q20.1234,16.143322498069764,20.4107,16.143322498069764L24,16.143322498069764L27.5893,16.143322498069764Q27.8766,16.143322498069764,28.07844,16.350880498069763Q28.28571,16.564016498069762,28.28571,16.868496498069764L28.28571,19.000466498069763L29.7143,19.000466498069763L29.7143,16.868496498069764Q29.7143,15.983928498069764,29.102600000000002,15.354920598069763Q28.480040000000002,14.714750498069764,27.5893,14.714750498069764L24,14.714750498069764L20.4107,14.714750498069764Q19.519959,14.714750498069764,18.897409,15.354920398069764Q18.285714,15.983927498069763,18.285714,16.868496498069764L18.285714,17.214746498069765Z"
                      fill-rule="evenodd" fill="#656A72" fill-opacity="1"/>
            </g>
            <g>
                <path d="M16.174806205807496,19.714286Q16.158838805807495,19.715,16.142855405807495,19.715Q16.072434105807496,19.715,16.003365405807497,19.701261Q15.934297405807495,19.687523,15.869236405807495,19.660574Q15.804176405807494,19.633625,15.745622405807495,19.594501Q15.687069405807495,19.555377,15.637274405807496,19.505581Q15.587478405807495,19.455786,15.548354405807496,19.397233Q15.509230405807495,19.338679,15.482281405807495,19.273619Q15.455332405807495,19.208558,15.441594405807495,19.13949Q15.427855405807495,19.0704213,15.427855405807495,19Q15.427855405807495,18.9295787,15.441594405807495,18.86051Q15.455332405807495,18.791442,15.482281405807495,18.726381Q15.509230405807495,18.661321,15.548354405807496,18.602767Q15.587478405807495,18.544214,15.637274405807496,18.494419Q15.687069405807495,18.444623,15.745622405807495,18.405499Q15.804176405807494,18.366375,15.869236405807495,18.339426Q15.934297405807495,18.312477,16.003365405807497,18.298739Q16.072434105807496,18.285,16.142855405807495,18.285Q16.158838805807495,18.285,16.174806205807496,18.285714L31.825155405807493,18.285714Q31.841155405807495,18.285,31.857155405807497,18.285Q31.927555405807496,18.285,31.996655405807495,18.298739Q32.0656554058075,18.312477,32.13075540580749,18.339426Q32.19585540580749,18.366375,32.254355405807495,18.405499Q32.3129554058075,18.444623,32.36275540580749,18.494419Q32.412555405807495,18.544214,32.4516554058075,18.602767Q32.49075540580749,18.661321,32.51775540580749,18.726381Q32.5446554058075,18.791442,32.5583554058075,18.86051Q32.57215540580749,18.9295787,32.57215540580749,19Q32.57215540580749,19.0704213,32.5583554058075,19.13949Q32.5446554058075,19.208558,32.51775540580749,19.273619Q32.49075540580749,19.338679,32.4516554058075,19.397233Q32.412555405807495,19.455786,32.36275540580749,19.505581Q32.3129554058075,19.555377,32.254355405807495,19.594501Q32.19585540580749,19.633625,32.13075540580749,19.660574Q32.0656554058075,19.687523,31.996655405807495,19.701261Q31.927555405807496,19.715,31.857155405807497,19.715Q31.841155405807495,19.715,31.825155405807493,19.714286L16.174806205807496,19.714286Z"
                      fill-rule="evenodd" fill="#656A72" fill-opacity="1"/>
            </g>
            <g>
                <path d="M30.428534020996096,31.854235312500002L30.428534020996096,21.8564453125L29.000034020996093,21.8564453125L29.000034020996093,31.854235312500002L29.013434020996094,31.8564453125L24.000004020996094,31.8564453125L18.986614020996093,31.8564453125L19.000004020996094,31.854235312500002L19.000004020996094,21.8564453125L17.571434020996094,21.8564453125L17.571434020996094,31.854235312500002C17.571434020996094,32.6432453125,18.197639020996093,33.2850453125,18.986614020996093,33.2850453125C21.459824020996095,33.2850453125,26.540194020996093,33.2850453125,29.013434020996094,33.2850453125C29.802334020996092,33.2850453125,30.428534020996096,32.6432453125,30.428534020996096,31.854235312500002Z"
                      fill-rule="evenodd" fill="#656A72" fill-opacity="1"/>
            </g>
            <g>
                <path d="M22.571430832611085,21.8883961125Q22.572144832611084,21.8724287125,22.572144832611084,21.8564453125Q22.572144832611084,21.7860240125,22.558405832611083,21.7169553125Q22.544667832611083,21.6478873125,22.517718832611084,21.5828263125Q22.490769832611083,21.5177663125,22.451645832611085,21.4592123125Q22.412521832611084,21.4006593125,22.362725832611083,21.3508643125Q22.312930832611084,21.3010683125,22.254377832611084,21.2619443125Q22.195823832611083,21.2228203125,22.130763832611084,21.1958713125Q22.065702832611084,21.1689223125,21.996634832611083,21.1551843125Q21.927566132611084,21.1414453125,21.857144832611084,21.1414453125Q21.786723532611084,21.1414453125,21.717654832611085,21.1551843125Q21.648586832611084,21.1689223125,21.583525832611084,21.1958713125Q21.518465832611085,21.2228203125,21.459911832611084,21.2619443125Q21.401358832611084,21.3010683125,21.351563832611085,21.3508643125Q21.301767832611084,21.4006593125,21.262643832611083,21.4592123125Q21.223519832611085,21.5177663125,21.196570832611084,21.5828263125Q21.169621832611085,21.6478873125,21.155883832611085,21.7169553125Q21.142144832611084,21.7860240125,21.142144832611084,21.8564453125Q21.142144832611084,21.8724287125,21.142858832611083,21.8883961125L21.142858832611083,30.395925312499998Q21.142144832611084,30.4118853125,21.142144832611084,30.4278753125Q21.142144832611084,30.498295312499998,21.155883832611085,30.5673653125Q21.169621832611085,30.636435312499998,21.196570832611084,30.7014953125Q21.223519832611085,30.7665553125,21.262643832611083,30.8251053125Q21.301767832611084,30.8836553125,21.351563832611085,30.9334553125Q21.401358832611084,30.9832453125,21.459911832611084,31.0223753125Q21.518465832611085,31.0614953125,21.583525832611084,31.0884453125Q21.648586832611084,31.1153953125,21.717654832611085,31.1291353125Q21.786723532611084,31.1428753125,21.857144832611084,31.1428753125Q21.927566132611084,31.1428753125,21.996634832611083,31.1291353125Q22.065702832611084,31.1153953125,22.130763832611084,31.0884453125Q22.195823832611083,31.0614953125,22.254377832611084,31.0223753125Q22.312930832611084,30.9832453125,22.362725832611083,30.9334553125Q22.412521832611084,30.8836553125,22.451645832611085,30.8251053125Q22.490769832611083,30.7665553125,22.517718832611084,30.7014953125Q22.544667832611083,30.636435312499998,22.558405832611083,30.5673653125Q22.572144832611084,30.498295312499998,22.572144832611084,30.4278753125Q22.572144832611084,30.4118853125,22.571430832611085,30.395925312499998L22.571430832611085,21.8883961125Z"
                      fill-rule="evenodd" fill="#656A72" fill-opacity="1"/>
            </g>
            <g>
                <path d="M26.857141644226076,21.8883961125Q26.857855644226074,21.8724287125,26.857855644226074,21.8564453125Q26.857855644226074,21.7860240125,26.844116644226073,21.7169553125Q26.830378644226073,21.6478873125,26.803429644226075,21.5828263125Q26.776480644226073,21.5177663125,26.737356644226075,21.4592123125Q26.698232644226074,21.4006593125,26.648436644226074,21.3508643125Q26.598641644226074,21.3010683125,26.540088644226074,21.2619443125Q26.481534644226073,21.2228203125,26.416474644226074,21.1958713125Q26.351413644226074,21.1689223125,26.282345644226073,21.1551843125Q26.213276944226074,21.1414453125,26.142855644226074,21.1414453125Q26.072434344226075,21.1414453125,26.003365644226076,21.1551843125Q25.934297644226074,21.1689223125,25.869236644226074,21.1958713125Q25.804176644226075,21.2228203125,25.745622644226074,21.2619443125Q25.687069644226074,21.3010683125,25.637274644226075,21.3508643125Q25.587478644226074,21.4006593125,25.548354644226073,21.4592123125Q25.509230644226076,21.5177663125,25.482281644226074,21.5828263125Q25.455332644226075,21.6478873125,25.441594644226075,21.7169553125Q25.427855644226074,21.7860240125,25.427855644226074,21.8564453125Q25.427855644226074,21.8724287125,25.428569644226073,21.8883961125L25.428569644226073,30.395925312499998Q25.427855644226074,30.4118853125,25.427855644226074,30.4278753125Q25.427855644226074,30.498295312499998,25.441594644226075,30.5673653125Q25.455332644226075,30.636435312499998,25.482281644226074,30.7014953125Q25.509230644226076,30.7665553125,25.548354644226073,30.8251053125Q25.587478644226074,30.8836553125,25.637274644226075,30.9334553125Q25.687069644226074,30.9832453125,25.745622644226074,31.0223753125Q25.804176644226075,31.0614953125,25.869236644226074,31.0884453125Q25.934297644226074,31.1153953125,26.003365644226076,31.1291353125Q26.072434344226075,31.1428753125,26.142855644226074,31.1428753125Q26.213276944226074,31.1428753125,26.282345644226073,31.1291353125Q26.351413644226074,31.1153953125,26.416474644226074,31.0884453125Q26.481534644226073,31.0614953125,26.540088644226074,31.0223753125Q26.598641644226074,30.9832453125,26.648436644226074,30.9334553125Q26.698232644226074,30.8836553125,26.737356644226075,30.8251053125Q26.776480644226073,30.7665553125,26.803429644226075,30.7014953125Q26.830378644226073,30.636435312499998,26.844116644226073,30.5673653125Q26.857855644226074,30.498295312499998,26.857855644226074,30.4278753125Q26.857855644226074,30.4118853125,26.857141644226076,30.395925312499998L26.857141644226076,21.8883961125Z"
                      fill-rule="evenodd" fill="#656A72" fill-opacity="1"/>
            </g>
        </g>
    </g>
</svg>