<!--
  - Copyright (c) 2022 NetEase, Inc. All rights reserved.
  - Use of this source code is governed by a MIT license that can be
  - found in the LICENSE file.
  -
  -->

<svg xmlns="http://www.w3.org/2000/svg" fill="none" version="1.1" width="32" height="32" viewBox="0 0 32 32">
    <g>
        <g>
            <path d="M6.016000047683716,0C6.016000047683716,0,19.040000047683716,0,19.040000047683716,0C19.040000047683716,0,28.800000047683717,9.86667,28.800000047683717,9.86667C28.800000047683717,9.86667,28.800000047683717,29.1556,28.800000047683717,29.1556C28.800000047683717,30.7265,27.539200047683718,32,25.984000047683715,32C25.984000047683715,32,6.016000047683716,32,6.016000047683716,32C4.460770047683716,32,3.200000047683716,30.7265,3.200000047683716,29.1556C3.200000047683716,29.1556,3.200000047683716,2.84444,3.200000047683716,2.84444C3.200000047683716,1.2735,4.460770047683716,0,6.016000047683716,0Z"
                  fill-rule="evenodd" fill="#E54D2E" fill-opacity="1"/>
        </g>
        <g>
            <path d="M19.03999900817871,0C19.03999900817871,0,28.79999900817871,9.86667,28.79999900817871,9.86667C28.79999900817871,9.86667,21.85599900817871,9.86667,21.85599900817871,9.86667C20.30076900817871,9.86667,19.03999900817871,8.59317,19.03999900817871,7.02222C19.03999900817871,7.02222,19.03999900817871,0,19.03999900817871,0Z"
                  fill-rule="evenodd" fill="#FC998A" fill-opacity="1"/>
        </g>
        <g>
            <path d="M14.20687533569336,14.410417556762695L10.03237533569336,14.410417556762695L10.03237533569336,25.066617556762694L11.81712533569336,25.066617556762694L11.81712533569336,20.781247556762693L14.20687533569336,20.781247556762693C14.74633533569336,20.781247556762693,15.22528533569336,20.690857556762694,15.64375533569336,20.510067556762696C16.06221533569336,20.329277556762694,16.41512533569336,20.089937556762695,16.70250533569336,19.792017556762694C16.98987533569336,19.494097556762696,17.20792533569336,19.152897556762696,17.35665533569336,18.768407556762696C17.50538533569336,18.383907556762694,17.57974533569336,17.990507556762694,17.57974533569336,17.588197556762694C17.57974533569336,17.206247556762694,17.50538533569336,16.826857556762697,17.35665533569336,16.449997556762696C17.20792533569336,16.073147556762695,16.991135335693357,15.733217556762696,16.70628533569336,15.430207556762696C16.42142533569336,15.127198556762695,16.069775335693357,14.881483556762696,15.65131533569336,14.693056556762695C15.232855335693358,14.504629556762696,14.75137533569336,14.410417556762695,14.20687533569336,14.410417556762695ZM11.81704533569336,15.930557556762695L11.81704533569336,19.268747556762694L13.828665335693358,19.268747556762694C14.196715335693359,19.268747556762694,14.50551533569336,19.224187556762693,14.755075335693359,19.135067556762696C15.00463533569336,19.045947556762695,15.20630533569336,18.924997556762694,15.36007533569336,18.772227556762694C15.51384533569336,18.619447556762694,15.62476533569336,18.439937556762693,15.69282533569336,18.233687556762696C15.76088533569336,18.027427556762696,15.79491533569336,17.804637556762696,15.79491533569336,17.565277556762695C15.79491533569336,17.331017556762696,15.75206533569336,17.113317556762695,15.66635533569336,16.912157556762693C15.580645335693358,16.710997556762695,15.454605335693358,16.537847556762696,15.28823533569336,16.392707556762694C15.12185533569336,16.247567556762696,14.916405335693359,16.134267556762694,14.671885335693359,16.052777556762695C14.42736533569336,15.971297556762696,14.14629533569336,15.930557556762695,13.828665335693358,15.930557556762695L11.81704533569336,15.930557556762695Z"
                  fill-rule="evenodd" fill="#FFFFFF" fill-opacity="1"/>
        </g>
    </g>
</svg>