<!--
  - Copyright (c) 2022 NetEase, Inc. All rights reserved.
  - Use of this source code is governed by a MIT license that can be
  - found in the LICENSE file.
  -
  -->

<svg xmlns="http://www.w3.org/2000/svg" fill="none" version="1.1" width="60" height="60" viewBox="0 0 60 60">
    <defs>
        <clipPath id="master_svg0_0_106654">
            <rect x="0" y="0" width="60" height="60" rx="0"/>
        </clipPath>
    </defs>
    <g clip-path="url(#master_svg0_0_106654)">
        <g>
            <path d="M30,9C18.3,9,9,18.3,9,30C9,41.7,18.3,51,30,51C41.7,51,51,41.7,51,30C51,18.3,41.7,9,30,9Z"
                  fill="#000000" fill-opacity="0.20000000298023224"/>
            <path d="M30,9C18.3,9,9,18.3,9,30C9,41.7,18.3,51,30,51C41.7,51,51,41.7,51,30C51,18.3,41.7,9,30,9ZM30,11Q22.0534,11,16.52671,16.52671Q11,22.0534,11,30Q11,37.946600000000004,16.52672,43.4733Q22.0534,49,30,49Q37.946600000000004,49,43.4733,43.4733Q49,37.946600000000004,49,30Q49,22.0534,43.4733,16.52671Q37.946600000000004,11,30,11Z"
                  fill-rule="evenodd" fill="#FFFFFF" fill-opacity="1"/>
        </g>
        <g>
            <path d="M25.5,37.2136C25.5,33.766400000000004,25.5,26.23358,25.5,22.78641C25.5,22.00912,26.322154,21.493292,26.98868,21.893207C29.87898,23.62739,36.216,27.42959,39.063900000000004,29.138350000000003C39.7113,29.52675,39.7113,30.47325,39.063900000000004,30.861649999999997C36.216,32.5704,29.87898,36.3726,26.98868,38.1068C26.322154,38.506699999999995,25.5,37.990899999999996,25.5,37.2136"
                  fill="#FFFFFF" fill-opacity="1"/>
        </g>
    </g>
</svg>