<svg xmlns="http://www.w3.org/2000/svg" fill="none" version="1.1" width="30"
     height="30" viewBox="0 0 30 30">
    <defs>
        <clipPath id="master_svg0_0_155412">
            <rect x="0" y="0" width="30" height="30" rx="0"/>
        </clipPath>
    </defs>
    <g clip-path="url(#master_svg0_0_155412)">
        <g>
            <path d="M15.426,28C15.426,28,15.4,28,15.4,28C14.945,28,14.516,27.818,14.204,27.48C13.957,27.22,11.734,24.867,9.511,21.903C6.521,17.886,5,14.675,5,12.387C5,6.654,9.667,2,15.4,2C21.133,2,25.8,6.654,25.8,12.387C25.8,13.778,25.267,15.481,24.201,17.457C23.187,19.355,21.653,21.565,19.637999999999998,24.009C19.637999999999998,24.009,19.625,24.022,19.625,24.022C19.625,24.022,16.634999999999998,27.428,16.634999999999998,27.428C16.336,27.792,15.894,28,15.426,28C15.426,28,15.426,28,15.426,28ZM15.4,17.236C18.091,17.236,20.262,15.052,20.262,12.374C20.262,9.696,18.091,7.525,15.4,7.525C12.709,7.525,10.525,9.696,10.525,12.387C10.525,15.078,12.709,17.236,15.4,17.236Z"
                  fill="#656A72" fill-opacity="1"/>
        </g>
    </g>
</svg>