<svg xmlns="http://www.w3.org/2000/svg" fill="none" version="1.1" width="18"
     height="18" viewBox="0 0 18 18">
    <defs>
        <clipPath id="master_svg0_0_104120">
            <rect x="0" y="0" width="18" height="18" rx="0"/>
        </clipPath>
    </defs>
    <g clip-path="url(#master_svg0_0_104120)">
        <g>
            <path d="M15.7857,14.5714C15.7857,14.5714,4.38904,14.5714,4.38904,14.5714C4.38904,14.5714,0,16.9927,0,16.9927C0,16.9927,0,7.28389,0,7.28389C0,7.28389,0,7.2845,0,7.2845C0,7.2845,0,1.21429,0,1.21429C0,0.543393,0.543393,0,1.21429,0C1.21429,0,15.7857,0,15.7857,0C16.456,0,17,0.543393,17,1.21429C17,1.21429,17,13.3571,17,13.3571C17,14.0274,16.456,14.5714,15.7857,14.5714ZM15.7857,1.82143C15.7857,1.48629,15.5137,1.21429,15.1786,1.21429C15.1786,1.21429,1.82143,1.21429,1.82143,1.21429C1.48629,1.21429,1.21429,1.48629,1.21429,1.82143C1.21429,1.82143,1.21429,9.71368,1.21429,9.71368C1.21429,9.71368,1.21429,12.75,1.21429,12.75C1.21429,12.75,1.21429,14.5757,1.21429,14.5757C1.21429,14.5757,3.73454,13.3571,3.73454,13.3571C3.73454,13.3571,15.1786,13.3571,15.1786,13.3571C15.5137,13.3571,15.7857,13.0851,15.7857,12.75C15.7857,12.75,15.7857,1.82143,15.7857,1.82143ZM11.5357,6.07143C11.5357,6.07143,3.03571,6.07143,3.03571,6.07143C2.70057,6.07143,2.42857,5.79943,2.42857,5.46429C2.42857,5.12914,2.70057,4.85714,3.03571,4.85714C3.03571,4.85714,11.5357,4.85714,11.5357,4.85714C11.8709,4.85714,12.1429,5.12914,12.1429,5.46429C12.1429,5.79943,11.8709,6.07143,11.5357,6.07143ZM3.03571,8.5C3.03571,8.5,6.67857,8.5,6.67857,8.5C7.01371,8.5,7.28571,8.772,7.28571,9.10714C7.28571,9.44229,7.01371,9.71429,6.67857,9.71429C6.67857,9.71429,3.03571,9.71429,3.03571,9.71429C2.70057,9.71429,2.42857,9.44229,2.42857,9.10714C2.42857,8.772,2.70057,8.5,3.03571,8.5Z"
                  fill="#656A72" fill-opacity="1"/>
        </g>
    </g>
</svg>