<!--
  - Copyright (c) 2022 NetEase, Inc. All rights reserved.
  - Use of this source code is governed by a MIT license that can be
  - found in the LICENSE file.
  -
  -->

<svg xmlns="http://www.w3.org/2000/svg" fill="none" version="1.1" width="32" height="32" viewBox="0 0 32 32">
    <g>
        <g>
            <path d="M6.016000047683716,0C6.016000047683716,0,19.040000047683716,0,19.040000047683716,0C19.040000047683716,0,28.800000047683717,9.86667,28.800000047683717,9.86667C28.800000047683717,9.86667,28.800000047683717,29.1556,28.800000047683717,29.1556C28.800000047683717,30.7265,27.539200047683718,32,25.984000047683715,32C25.984000047683715,32,6.016000047683716,32,6.016000047683716,32C4.460770047683716,32,3.200000047683716,30.7265,3.200000047683716,29.1556C3.200000047683716,29.1556,3.200000047683716,2.84444,3.200000047683716,2.84444C3.200000047683716,1.2735,4.460770047683716,0,6.016000047683716,0Z"
                  fill-rule="evenodd" fill="#3078F2" fill-opacity="1"/>
        </g>
        <g>
            <path d="M19.03999900817871,0C19.03999900817871,0,28.79999900817871,9.86667,28.79999900817871,9.86667C28.79999900817871,9.86667,21.85599900817871,9.86667,21.85599900817871,9.86667C20.30076900817871,9.86667,19.03999900817871,8.59317,19.03999900817871,7.02222C19.03999900817871,7.02222,19.03999900817871,0,19.03999900817871,0Z"
                  fill-rule="evenodd" fill="#96BCFD" fill-opacity="1"/>
        </g>
        <g>
            <path d="M14.372215979156493,17.458337556762697C14.372215979156493,17.458337556762697,12.186655979156495,25.066617556762694,12.186655979156495,25.066617556762694C12.186655979156495,25.066617556762694,10.477525979156495,25.066617556762694,10.477525979156495,25.066617556762694C10.477525979156495,25.066617556762694,7.800405979156494,14.410417556762695,7.800405979156494,14.410417556762695C7.800405979156494,14.410417556762695,9.660785979156493,14.410417556762695,9.660785979156493,14.410417556762695C9.660785979156493,14.410417556762695,11.407715979156494,21.484027556762697,11.407715979156494,21.484027556762697C11.407715979156494,21.484027556762697,13.555465979156494,14.410417556762695,13.555465979156494,14.410417556762695C13.555465979156494,14.410417556762695,15.181405979156494,14.410417556762695,15.181405979156494,14.410417556762695C15.181405979156494,14.410417556762695,17.314035979156493,21.415277556762696,17.314035979156493,21.415277556762696C17.314035979156493,21.415277556762696,19.098805979156495,14.410417556762695,19.098805979156495,14.410417556762695C19.098805979156495,14.410417556762695,20.944005979156493,14.410417556762695,20.944005979156493,14.410417556762695C20.944005979156493,14.410417556762695,18.251805979156494,25.066617556762694,18.251805979156494,25.066617556762694C18.251805979156494,25.066617556762694,16.557785979156492,25.066617556762694,16.557785979156492,25.066617556762694C16.557785979156492,25.066617556762694,14.372215979156493,17.458337556762697,14.372215979156493,17.458337556762697Z"
                  fill="#FFFFFF" fill-opacity="1"/>
        </g>
    </g>
</svg>