<!--
  - Copyright (c) 2022 NetEase, Inc. All rights reserved.
  - Use of this source code is governed by a MIT license that can be
  - found in the LICENSE file.
  -
  -->

<svg xmlns="http://www.w3.org/2000/svg" fill="none" version="1.1" width="21" height="21" viewBox="0 0 21 21">
    <g>
        <path d="M10.5,0C4.70625,0,0,4.70625,0,10.5C0,16.2938,4.70625,21,10.5,21C16.2938,21,21,16.2938,21,10.5C21,4.70625,16.2938,0,10.5,0ZM11.25,16.5C11.25,16.5,9.75,16.5,9.75,16.5C9.75,16.5,9.75,15,9.75,15C9.75,15,11.25,15,11.25,15C11.25,15,11.25,16.5,11.25,16.5ZM9.75,13.5C9.75,13.5,9.75,4.5,9.75,4.5C9.75,4.5,11.25,4.5,11.25,4.5C11.25,4.5,11.25,13.5,11.25,13.5C11.25,13.5,9.75,13.5,9.75,13.5Z"
              fill="#FC596A" fill-opacity="1"/>
    </g>
</svg>