<!--
  - Copyright (c) 2022 NetEase, Inc. All rights reserved.
  - Use of this source code is governed by a MIT license that can be
  - found in the LICENSE file.
  -
  -->

<svg xmlns="http://www.w3.org/2000/svg" fill="none" version="1.1" width="32" height="32" viewBox="0 0 32 32">
    <g>
        <g>
            <path d="M1.600000023841858 3.600000023841858C1.6000000238418581 2.4954305241802706 2.4954305241802714 1.600000023841858 3.600000023841858 1.600000023841858L28.399999260902405 1.600000023841858C29.50456876056399 1.600000023841858 30.399999260902405 2.4954305241802714 30.399999260902405 3.600000023841858L30.399999260902405 10.400000214576721C30.399999260902405 10.400000214576721 30.399999260902405 10.400000214576721 30.399999260902405 10.400000214576721L1.600000023841858 10.400000214576721C1.600000023841858 10.400000214576721 1.600000023841858 10.400000214576721 1.600000023841858 10.400000214576721Z"
                  fill="#1AB2FF" fill-opacity="1"/>
        </g>
        <g>
            <rect x="1.600000023841858" y="10.399999618530273" width="28.799999237060547" height="11.199999809265137"
                  rx="0" fill="#FF4050" fill-opacity="1"/>
        </g>
        <g>
            <path d="M1.600000023841858 21.600000381469727C1.600000023841858 21.600000381469727 1.600000023841858 21.600000381469727 1.600000023841858 21.600000381469727L30.399999260902405 21.600000381469727C30.399999260902405 21.600000381469727 30.399999260902405 21.600000381469727 30.399999260902405 21.600000381469727L30.399999260902405 28.40000057220459C30.399999260902405 29.504570071866176 29.50456876056399 30.40000057220459 28.399999260902405 30.40000057220459L3.600000023841858 30.40000057220459C2.4954305241802714 30.40000057220459 1.600000023841858 29.504570071866176 1.600000023841858 28.40000057220459Z"
                  fill="#5FCC29" fill-opacity="1"/>
        </g>
        <g>
            <rect x="1.600000023841858" y="9.600000381469727" width="28.799999237060547" height="0.800000011920929"
                  rx="0" fill="#17A1E5" fill-opacity="1"/>
        </g>
        <g>
            <rect x="1.600000023841858" y="21.600000381469727" width="28.799999237060547" height="0.800000011920929"
                  rx="0" fill="#57BA25" fill-opacity="1"/>
        </g>
        <g>
            <rect x="12.800000190734863" y="1.600000023841858" width="6.400000095367432" height="28.799999237060547"
                  rx="0" fill="#FFBB33" fill-opacity="1"/>
        </g>
        <g>
            <rect x="9.600000381469727" y="12.800000190734863" width="12.800000190734863" height="6.400000095367432"
                  rx="1" fill="#FFBB33" fill-opacity="1"/>
        </g>
        <g>
            <path d="M21.600000381469727,12.800000190734863L10.400000381469727,12.800000190734863C9.958172381469726,12.800000190734863,9.600000381469727,13.158172190734863,9.600000381469727,13.600000190734864L9.600000381469727,18.400000190734865C9.600000381469727,18.841830190734864,9.958172381469726,19.200000190734862,10.400000381469727,19.200000190734862L21.600000381469727,19.200000190734862C22.041800381469727,19.200000190734862,22.400000381469727,18.841830190734864,22.400000381469727,18.400000190734865L22.400000381469727,13.600000190734864C22.400000381469727,13.158172190734863,22.041800381469727,12.800000190734863,21.600000381469727,12.800000190734863ZM21.120000381469726,17.920030190734863L10.880030381469727,17.920030190734863L10.880030381469727,14.080030190734863L21.120000381469726,14.080030190734863L21.120000381469726,17.920030190734863Z"
                  fill-rule="evenodd" fill="#FFFFFF" fill-opacity="1"/>
        </g>
    </g>
</svg>