<!--
  - Copyright (c) 2022 NetEase, Inc. All rights reserved.
  - Use of this source code is governed by a MIT license that can be
  - found in the LICENSE file.
  -
  -->

<svg xmlns="http://www.w3.org/2000/svg" fill="none" version="1.1" width="32" height="32" viewBox="0 0 32 32">
    <g>
        <g>
            <path d="M6.016000047683716,0C6.016000047683716,0,19.040000047683716,0,19.040000047683716,0C19.040000047683716,0,28.800000047683717,9.86667,28.800000047683717,9.86667C28.800000047683717,9.86667,28.800000047683717,29.1556,28.800000047683717,29.1556C28.800000047683717,30.7265,27.539200047683718,32,25.984000047683715,32C25.984000047683715,32,6.016000047683716,32,6.016000047683716,32C4.460770047683716,32,3.200000047683716,30.7265,3.200000047683716,29.1556C3.200000047683716,29.1556,3.200000047683716,2.84444,3.200000047683716,2.84444C3.200000047683716,1.2735,4.460770047683716,0,6.016000047683716,0Z"
                  fill-rule="evenodd" fill="#08A664" fill-opacity="1"/>
        </g>
        <g>
            <path d="M19.03999900817871,0C19.03999900817871,0,28.79999900817871,9.86667,28.79999900817871,9.86667C28.79999900817871,9.86667,21.85599900817871,9.86667,21.85599900817871,9.86667C20.30076900817871,9.86667,19.03999900817871,8.59317,19.03999900817871,7.02222C19.03999900817871,7.02222,19.03999900817871,0,19.03999900817871,0Z"
                  fill-rule="evenodd" fill="#72D3A6" fill-opacity="1"/>
        </g>
        <g>
            <path d="M14.199630190734863,19.716669618530275C14.199630190734863,19.716669618530275,17.625440190734864,25.056199618530272,17.625440190734864,25.056199618530272C17.625440190734864,25.056199618530272,15.613810190734863,25.056199618530272,15.613810190734863,25.056199618530272C15.613810190734863,25.056199618530272,13.224060190734864,21.297919618530273,13.224060190734864,21.297919618530273C13.224060190734864,21.297919618530273,10.804060190734862,25.056199618530272,10.804060190734862,25.056199618530272C10.804060190734862,25.056199618530272,8.800000190734863,25.056199618530272,8.800000190734863,25.056199618530272C8.800000190734863,25.056199618530272,12.210690190734864,19.709029618530273,12.210690190734864,19.709029618530273C12.210690190734864,19.709029618530273,8.822687690734863,14.399999618530273,8.822687690734863,14.399999618530273C8.822687690734863,14.399999618530273,10.804060190734862,14.399999618530273,10.804060190734862,14.399999618530273C10.804060190734862,14.399999618530273,13.208940190734864,18.158329618530274,13.208940190734864,18.158329618530274C13.208940190734864,18.158329618530274,15.613810190734863,14.399999618530273,15.613810190734863,14.399999618530273C15.613810190734863,14.399999618530273,17.625440190734864,14.399999618530273,17.625440190734864,14.399999618530273C17.625440190734864,14.399999618530273,14.199630190734863,19.716669618530275,14.199630190734863,19.716669618530275Z"
                  fill="#FFFFFF" fill-opacity="1"/>
        </g>
    </g>
</svg>