<!--
  - Copyright (c) 2022 NetEase, Inc. All rights reserved.
  - Use of this source code is governed by a MIT license that can be
  - found in the LICENSE file.
  -
  -->

<svg xmlns="http://www.w3.org/2000/svg" fill="none" version="1.1" width="32" height="32" viewBox="0 0 32 32">
    <g>
        <g>
            <path d="M6.016000047683716,0C6.016000047683716,0,19.040000047683716,0,19.040000047683716,0C19.040000047683716,0,28.800000047683717,9.86667,28.800000047683717,9.86667C28.800000047683717,9.86667,28.800000047683717,29.1556,28.800000047683717,29.1556C28.800000047683717,30.7265,27.539200047683718,32,25.984000047683715,32C25.984000047683715,32,6.016000047683716,32,6.016000047683716,32C4.460770047683716,32,3.200000047683716,30.7265,3.200000047683716,29.1556C3.200000047683716,29.1556,3.200000047683716,2.84444,3.200000047683716,2.84444C3.200000047683716,1.2735,4.460770047683716,0,6.016000047683716,0Z"
                  fill-rule="evenodd" fill="#3078F2" fill-opacity="1"/>
        </g>
        <g>
            <path d="M19.03999900817871,0C19.03999900817871,0,28.79999900817871,9.86667,28.79999900817871,9.86667C28.79999900817871,9.86667,21.85599900817871,9.86667,21.85599900817871,9.86667C20.30076900817871,9.86667,19.03999900817871,8.59317,19.03999900817871,7.02222C19.03999900817871,7.02222,19.03999900817871,0,19.03999900817871,0Z"
                  fill-rule="evenodd" fill="#96BCFD" fill-opacity="1"/>
        </g>
        <g>
            <path d="M8.28242,15.77618L9.3237,11.263978C9.4284,10.810247,9.83394,10.5,10.2996,10.5L19.700400000000002,10.5C20.1661,10.5,20.5716,10.810247,20.676299999999998,11.263978L21.717599999999997,15.77618C21.8622,16.40279,21.398699999999998,17,20.7556,17L9.24437,17C8.60129,17,8.13782,16.40279,8.28242,15.77618ZM18.3536,12.35355Q18.4239,12.28323,18.4619,12.19134Q18.5,12.09946,18.5,12Q18.5,11.95075,18.4904,11.90245Q18.480800000000002,11.85416,18.4619,11.80866Q18.4431,11.76316,18.4157,11.72221Q18.3884,11.68127,18.3536,11.64645Q18.3187,11.61162,18.2778,11.58427Q18.236800000000002,11.55691,18.1913,11.53806Q18.1458,11.51921,18.0975,11.50961Q18.0492,11.5,18,11.5Q17.9005,11.5,17.8087,11.53806Q17.7168,11.57612,17.6464,11.64645L17.6463,11.64663L15.5,13.79289L14.35355,12.64645Q14.28323,12.57612,14.19134,12.53806Q14.09946,12.5,14,12.5Q13.90054,12.5,13.80866,12.53806Q13.71677,12.57612,13.64645,12.64645L11.64645,14.64645Q11.57612,14.71677,11.53806,14.80866Q11.5,14.90054,11.5,15Q11.5,15.04925,11.50961,15.09755Q11.519210000000001,15.14584,11.53806,15.19134Q11.556899999999999,15.23684,11.58426,15.27778Q11.61162,15.31873,11.64645,15.35355Q11.68127,15.38837,11.72221,15.41573Q11.76316,15.44309,11.80866,15.46194Q11.85415,15.48078,11.90245,15.49039Q11.95075,15.5,12,15.5Q12.09946,15.5,12.19134,15.46194Q12.28323,15.42388,12.35355,15.35355L14,13.70711L15.14645,14.85355Q15.21677,14.92388,15.30866,14.96194Q15.40054,15,15.5,15Q15.59946,15,15.69134,14.96194Q15.78323,14.92388,15.85355,14.85355L18.3534,12.35374L18.3536,12.35355ZM23,18L7,18L7,18.0006C7,19.10517,7.898528,20,9.0031,20L14.5,20L14.5,25L11.5,25Q11.45075,25,11.40245,25.0096Q11.35415,25.019199999999998,11.30866,25.0381Q11.26316,25.0569,11.22221,25.0843Q11.18127,25.1116,11.14645,25.1464Q11.11162,25.1813,11.08426,25.2222Q11.05691,25.263199999999998,11.03806,25.3087Q11.019210000000001,25.3542,11.00961,25.4025Q11,25.4508,11,25.5Q11,25.5492,11.00961,25.5975Q11.019210000000001,25.6458,11.03806,25.6913Q11.05691,25.736800000000002,11.08426,25.7778Q11.11162,25.8187,11.14645,25.8536Q11.18127,25.8884,11.22221,25.9157Q11.26316,25.9431,11.30866,25.9619Q11.35415,25.980800000000002,11.40245,25.9904Q11.45075,26,11.5,26L18,26Q18.0492,26,18.0975,25.9904Q18.1458,25.980800000000002,18.1913,25.9619Q18.236800000000002,25.9431,18.2778,25.9157Q18.3187,25.8884,18.3536,25.8536Q18.3884,25.8187,18.4157,25.7778Q18.4431,25.736800000000002,18.4619,25.6913Q18.480800000000002,25.6458,18.4904,25.5975Q18.5,25.5492,18.5,25.5Q18.5,25.4508,18.4904,25.4025Q18.480800000000002,25.3542,18.4619,25.3087Q18.4431,25.263199999999998,18.4157,25.2222Q18.3884,25.1813,18.3536,25.1464Q18.3187,25.1116,18.2778,25.0843Q18.236800000000002,25.0569,18.1913,25.0381Q18.1458,25.019199999999998,18.0975,25.0096Q18.0492,25,18,25L15.5,25L15.5,20L20.9969,20C22.1015,20,23,19.10517,23,18.0006L23,18Z"
                  fill-rule="evenodd" fill="#FFFFFF" fill-opacity="1"/>
        </g>
    </g>
</svg>