<svg xmlns="http://www.w3.org/2000/svg" fill="none" version="1.1" width="11"
     height="11" viewBox="0 0 11 11">
    <defs>
        <clipPath id="master_svg0_0_90499">
            <rect x="0" y="0" width="11" height="11" rx="0"/>
        </clipPath>
    </defs>
    <g clip-path="url(#master_svg0_0_90499)">
        <g>
            <path d="M8.461153882408142,0C8.605153882408143,0,8.747743882408141,0.0283633,8.880783882408142,0.0834704C9.013823882408142,0.138578,9.134703882408141,0.219349,9.236533882408143,0.321174C9.338353882408143,0.422999,9.419123882408142,0.543882,9.474233882408143,0.676923C9.529343882408142,0.809963,9.557703882408141,0.952555,9.557703882408141,1.09656L9.557703882408141,10.4513C9.557783882408142,10.5459,9.533363882408143,10.639,9.486823882408142,10.7214C9.440283882408142,10.8038,9.373213882408143,10.8727,9.292123882408141,10.9215C9.211043882408141,10.9703,9.118713882408143,10.9973,9.024113882408143,10.9998C8.929513882408141,11.0023,8.835863882408143,10.9803,8.752283882408143,10.936L5.4280738824081425,9.1716C5.348883882408142,9.12955,5.260593882408142,9.10756,5.170933882408142,9.10756C5.0812738824081425,9.10756,4.992973882408142,9.12955,4.913793882408142,9.1716L1.5912228824081422,10.9354C1.5076658824081421,10.9799,1.4140128824081422,11.002,1.3193798824081422,10.9996C1.2247478824081421,10.9971,1.1323598824081422,10.9702,1.0512098824081422,10.9215C0.970060882408142,10.8727,0.9029148824081421,10.8038,0.856307882408142,10.7214C0.8097012824081421,10.639,0.7852223320081421,10.5459,0.7852538824081421,10.4513L0.7852538824081421,1.09656C0.7852538824081421,0.952555,0.8136170824081421,0.809963,0.8687241824081421,0.676923C0.923830882408142,0.543882,1.004602882408142,0.422999,1.1064278824081422,0.321174C1.208252882408142,0.219349,1.329135882408142,0.138578,1.462176882408142,0.0834704C1.595216882408142,0.0283633,1.7378088824081421,0,1.881813882408142,0L8.461153882408142,0ZM8.461153882408142,0.916667L1.881813882408142,0.916667Q1.846023882408142,0.916667,1.812973882408142,0.93036Q1.7799108824081422,0.944053,1.754608882408142,0.969355Q1.7293068824081421,0.994657,1.715613882408142,1.02772Q1.701920882408142,1.06077,1.701920882408142,1.09656L1.701920882408142,9.83882L4.483873882408142,8.362Q4.806103882408142,8.19089,5.170933882408142,8.19089Q5.535763882408142,8.19089,5.857823882408142,8.36191L8.641043882408141,9.83913L8.641043882408141,1.09656Q8.641043882408141,1.06077,8.627343882408141,1.02771Q8.613653882408142,0.994656,8.588353882408143,0.969357Q8.563053882408141,0.944053,8.529993882408142,0.93036Q8.496933882408143,0.916667,8.461153882408142,0.916667Z"
                  fill-rule="evenodd" fill="#3EAF96" fill-opacity="1"/>
        </g>
        <g>
            <path d="M7.833164157867432,3.025235Q7.924594157867432,2.902802,7.924594157867432,2.75Q7.924594157867432,2.704694,7.915754157867432,2.6602585Q7.906914157867432,2.615823,7.889574157867432,2.573966Q7.872234157867432,2.532108,7.847064157867432,2.494438Q7.8218941578674315,2.456767,7.789864157867432,2.424731Q7.757824157867431,2.392695,7.720154157867432,2.367524Q7.682484157867432,2.342353,7.640624157867432,2.325015Q7.598774157867432,2.307678,7.554334157867432,2.298839Q7.509894157867431,2.29,7.464594157867432,2.29Q7.400964157867431,2.29,7.339714157867432,2.307275Q7.278474157867431,2.324549,7.224214157867432,2.357801Q7.169964157867431,2.391053,7.126774157867432,2.437784Q7.083584157867431,2.484516,7.054704157867432,2.541217L4.927034157867432,5.9631799999999995L3.4621731578674315,4.775729999999999Q3.3978921578674317,4.71386,3.3151391578674314,4.6805Q3.2323867578674315,4.64714,3.1431641578674316,4.64714Q3.0978581578674316,4.64714,3.0534226578674315,4.65598Q3.0089871578674314,4.66482,2.9671301578674316,4.68216Q2.9252721578674317,4.6995000000000005,2.887602157867432,4.72467Q2.849931157867432,4.74984,2.8178951578674316,4.78187Q2.7858591578674314,4.81391,2.7606881578674316,4.85158Q2.7355171578674318,4.8892500000000005,2.7181791578674317,4.93111Q2.7008421578674318,4.97297,2.6920031578674317,5.0174Q2.6831641578674317,5.06184,2.6831641578674317,5.107139999999999Q2.6831641578674317,5.22151,2.7367261578674316,5.32257Q2.7902881578674315,5.42362,2.8849381578674316,5.487830000000001L4.753354157867432,7.00239Q4.775614157867432,7.02044,4.799954157867432,7.03558Q4.877384157867432,7.08371,4.967334157867432,7.09856Q5.057284157867432,7.11341,5.146074157867432,7.0927Q5.2348541578674315,7.07199,5.308954157867431,7.01889Q5.383064157867432,6.96578,5.431204157867432,6.88836L7.833164157867432,3.025235Z"
                  fill-rule="evenodd" fill="#3EAF96" fill-opacity="1"/>
        </g>
    </g>
</svg>