<svg width="18" height="18" viewBox="0 0 1024 1024" fill="none" xmlns="http://www.w3.org/2000/svg">
  <path d="M913.70688 493.717333L1022.05888 606.826667A7.146667 7.146667 0 0 1 1022.05888 616.64A6.506667 6.506667 0 0 1 1017.365547 618.666667H947.200213C899.37088 814.613333 722.66688 960 512.000213 960S124.629547 814.592 76.77888 618.666667H165.269547C210.816213 766.890667 348.821547 874.666667 512.000213 874.666667C675.17888 874.666667 813.16288 766.912 858.73088 618.666667H795.94688A6.784 6.784 0 0 1 789.312213 611.733333C789.312213 609.898667 790.016213 608.128 791.253547 606.826667L899.605547 493.717333A9.664 9.664 0 0 1 913.685547 493.717333ZM555.30688 320L704.000213 704H619.30688L571.69088 598.016H449.749547L406.016213 704H320.000213L469.760213 320H555.30688ZM228.053547 405.333333C229.80288 405.333333 231.509547 406.058667 232.74688 407.36A7.146667 7.146667 0 0 1 232.74688 417.173333L124.373547 530.282667A9.664 9.664 0 0 1 110.293547 530.282667L1.941547 417.173333A7.082667 7.082667 0 0 1 0.000213 412.266667C0.000213 408.426667 2.98688 405.333333 6.63488 405.333333H228.053547ZM512.640213 404.48L471.808213 512H551.72288L512.661547 404.48H512.640213ZM512.000213 64C722.66688 64 899.37088 209.408 947.221547 405.333333H858.73088C813.184213 257.109333 675.17888 149.333333 512.000213 149.333333C348.821547 149.333333 210.837547 257.088 165.269547 405.333333H76.800213C124.629547 209.386667 301.333547 64 512.000213 64Z" fill="#656A72"/>
</svg>
