<svg xmlns="http://www.w3.org/2000/svg" fill="none" version="1.1" width="16"
     height="16" viewBox="0 0 16 16">
    <g>
        <g>
            <ellipse cx="8" cy="8" rx="7.25" ry="7.25" fill-opacity="0" stroke-opacity="1" stroke="#C1C8D1" fill="none"
                     stroke-width="1.5"/>
        </g>
        <g>
            <path d="M11.560559999999999,6.498273Q11.65208,6.395306,11.701039999999999,6.266535Q11.75,6.137764,11.75,6Q11.75,5.9261315,11.73559,5.853682Q11.72118,5.781233,11.692910000000001,5.712987Q11.66464,5.644742,11.6236,5.583322Q11.58256,5.521903,11.53033,5.46967Q11.478100000000001,5.417437,11.41668,5.376398Q11.355260000000001,5.335359,11.28701,5.30709Q11.21877,5.278822,11.14632,5.264411Q11.07387,5.25,11,5.25Q10.83933,5.25,10.69276,5.31582Q10.54619,5.38164,10.439440000000001,5.501727L10.43924,5.501955L7.03018,9.33714L5.585708,7.53155L5.585652,7.53148Q5.532953,7.46561,5.466939,7.41309Q5.400924,7.36057,5.324892,7.32402Q5.248859,7.28748,5.166609,7.26874Q5.0843583,7.25,5,7.25Q4.9261315,7.25,4.853682,7.26441Q4.781233,7.27882,4.712987,7.3070900000000005Q4.644742,7.33536,4.583322,7.3764Q4.521903,7.41744,4.46967,7.46967Q4.417437,7.5219000000000005,4.376398,7.5833200000000005Q4.335359,7.6447400000000005,4.30709,7.71299Q4.278822,7.78123,4.264411,7.85368Q4.25,7.92613,4.25,8Q4.25,8.12773,4.292279,8.24826Q4.334557,8.368780000000001,4.414348,8.46852L4.414565,8.46879L6.41435,10.96852Q6.45413,11.01825,6.50173,11.060559999999999Q6.61323,11.15967,6.75417,11.20857Q6.89511,11.25747,7.04404,11.248709999999999Q7.19297,11.23995,7.32721,11.174859999999999Q7.46144,11.10978,7.560560000000001,10.99827L11.560559999999999,6.498273L11.560559999999999,6.498273Z"
                  fill-rule="evenodd" fill="#C1C8D1" fill-opacity="1"/>
        </g>
    </g>
</svg>