<!--
  - Copyright (c) 2022 NetEase, Inc. All rights reserved.
  - Use of this source code is governed by a MIT license that can be
  - found in the LICENSE file.
  -
  -->

<svg xmlns="http://www.w3.org/2000/svg" fill="none" version="1.1" width="24" height="24" viewBox="0 0 24 24">
    <defs>
        <clipPath id="master_svg0_0_104528">
            <rect x="0" y="0" width="24" height="24" rx="0"/>
        </clipPath>
    </defs>
    <g clip-path="url(#master_svg0_0_104528)">
        <g>
            <path d="M18.096592609024047,13.25436865097046L18.096592609024047,10.21802865097046C18.096592609024047,9.914388650970459,18.19779260902405,9.564748650970458,18.33769260902405,9.419378650970458L21.66109260902405,5.998426650970459C22.748692609024047,4.879579650970459,23.999992609024048,4.564903650970459,23.999992609024048,5.764719650970459L23.999992609024048,17.709558650970457C23.999992609024048,18.90745865097046,22.748692609024047,18.59465865097046,21.66109260902405,17.47575865097046L18.33769260902405,14.05485865097046C18.19779260902405,13.911328650970459,18.096592609024047,13.559838650970459,18.096592609024047,13.25436865097046ZM16.525092609024046,16.62375865097046C16.525092609024046,17.11185865097046,16.331192609024047,17.57995865097046,15.986092609024048,17.92505865097046C15.640992609024048,18.27015865097046,15.172892609024048,18.46395865097046,14.684892609024049,18.46395865097046L1.8402026090240478,18.46395865097046C1.3521526090240479,18.46395865097046,0.8840836090240478,18.27015865097046,0.5389776090240479,17.92505865097046C0.19387160902404785,17.57995865097046,-0.0000073909759521484375,17.11185865097046,-0.0000073909759521484375,16.62375865097046L-0.0000073909759521484375,6.846758650970459C-0.0000073909759521484375,6.358708650970459,0.19387160902404785,5.890644650970459,0.5389776090240479,5.5455386509704585C0.8840836090240478,5.200432650970459,1.3521526090240479,5.006554410970459,1.8402026090240478,5.006554410970459L14.684892609024049,5.006554410970459C15.172892609024048,5.006554410970459,15.640992609024048,5.200432650970459,15.986092609024048,5.5455386509704585C16.331192609024047,5.890644650970459,16.525092609024046,6.358708650970459,16.525092609024046,6.846758650970459L16.525092609024046,16.62375865097046ZM15.325092609024049,16.62375865097046L15.325092609024049,6.846758650970459Q15.325092609024049,6.581578650970459,15.137592609024049,6.394068650970459Q14.949992609024047,6.206558650970459,14.684892609024049,6.206558650970459L1.8402026090240478,6.206558650970459Q1.575012609024048,6.206558650970459,1.3875026090240479,6.394068650970459Q1.1999926090240478,6.581578650970459,1.1999926090240478,6.846758650970459L1.1999926090240478,16.62375865097046Q1.1999926090240478,16.88895865097046,1.3875026090240479,17.07645865097046Q1.5750226090240478,17.26395865097046,1.8402026090240478,17.26395865097046L14.684892609024049,17.26395865097046Q14.949992609024047,17.26395865097046,15.137592609024049,17.07645865097046Q15.325092609024049,16.88895865097046,15.325092609024049,16.62375865097046ZM19.29659260902405,13.25436865097046Q19.29659260902405,13.28982865097046,19.303692609024047,13.32704865097046L22.521592609024047,16.639358650970458Q22.66889260902405,16.79095865097046,22.79999260902405,16.90655865097046L22.79999260902405,6.567568650970459Q22.66899260902405,6.683198650970459,22.521792609024047,6.8345986509704595L19.303592609024047,10.147208650970459Q19.29659260902405,10.183668650970459,19.29659260902405,10.21802865097046L19.29659260902405,13.25436865097046Z"
                  fill-rule="evenodd" fill="#333333" fill-opacity="1"/>
        </g>
    </g>
</svg>