<!--
  - Copyright (c) 2022 NetEase, Inc. All rights reserved.
  - Use of this source code is governed by a MIT license that can be
  - found in the LICENSE file.
  -
  -->

<svg xmlns="http://www.w3.org/2000/svg" fill="none" version="1.1" width="32" height="32" viewBox="0 0 32 32">
    <g>
        <g>
            <path d="M6.016000047683716,0C6.016000047683716,0,19.040000047683716,0,19.040000047683716,0C19.040000047683716,0,28.800000047683717,9.86667,28.800000047683717,9.86667C28.800000047683717,9.86667,28.800000047683717,29.1556,28.800000047683717,29.1556C28.800000047683717,30.7265,27.539200047683718,32,25.984000047683715,32C25.984000047683715,32,6.016000047683716,32,6.016000047683716,32C4.460770047683716,32,3.200000047683716,30.7265,3.200000047683716,29.1556C3.200000047683716,29.1556,3.200000047683716,2.84444,3.200000047683716,2.84444C3.200000047683716,1.2735,4.460770047683716,0,6.016000047683716,0Z"
                  fill-rule="evenodd" fill="#BBBBBF" fill-opacity="1"/>
        </g>
        <g>
            <path d="M10.229680390625,14.358685386047362C10.958520390625,13.675110386047363,11.931870390625,13.333325386047363,13.165630390625001,13.333325386047363C14.275770390625,13.333325386047363,15.180960390625,13.623670386047364,15.864130390625,14.238517386047363Q16.888870390625,15.135165386047364,16.888870390625,16.697905386047363C16.888870390625,17.551855386047365,16.666840390624998,18.25210538604736,16.256950390625,18.798635386047362C16.125730390625,18.944435386047363,15.745590390625,19.301815386047362,15.127150390625001,19.849525386047365L14.788150390624999,20.147885386047363C14.480720390624999,20.404065386047364,14.258690390625,20.694415386047364,14.104980390625,21.001835386047365C13.934190390625,21.34341538604736,13.848800390625,21.702075386047362,13.848800390625,22.111975386047362L13.848800390625,22.351085386047366L11.884700390625,22.351085386047366L11.884700390625,22.111975386047362C11.884700390625,21.46297538604736,11.987170390625,20.899365386047364,12.226280390625,20.438225386047364L12.241390390625,20.407785386047365C12.477480390625,19.945775386047362,13.138530390625,19.238235386047364,14.224540390625,18.26918538604736L14.429480390624999,18.030075386047365C14.736910390624999,17.654335386047364,14.890620390625,17.244435386047364,14.890620390625,16.817455386047364C14.890620390625,16.253845386047363,14.719830390624999,15.809795386047362,14.412410390625,15.485295386047364C14.087900390625,15.160785386047364,13.626770390625001,15.007075386047363,13.046080390625,15.007075386047363C12.294600390625,15.007075386047363,11.765150390625,15.229105386047364,11.440640390625,15.707315386047362C11.150300390625,16.100135386047363,11.013670390625,16.663745386047363,11.013670390625,17.381065386047364L9.066650390625,17.381065386047364C9.066650390625,16.117215386047363,9.425311390625,15.126625386047364,10.176790390625,14.409305386047363L10.229680390625,14.358685386047362ZM13.768000390625,24.029725386047364C13.536610390625,23.808025386047362,13.243510390625,23.697225386047364,12.904130390625,23.697225386047364C12.564750390625,23.697225386047364,12.287080390625,23.808025386047362,12.055690390625,24.029725386047364C11.824290390625,24.251425386047366,11.716310390625,24.536425386047362,11.716310390625,24.884825386047364C11.716310390625,25.233225386047366,11.824290390625,25.518225386047362,12.055690390625,25.73992538604736C12.287080390625,25.961625386047363,12.564750390625,26.088325386047366,12.904130390625,26.088325386047366C13.243510390625,26.088325386047366,13.521180390625,25.977425386047365,13.752580390624999,25.755725386047363C13.983970390625,25.53402538604736,14.107380390625,25.233225386047366,14.107380390625,24.884825386047364C14.107380390625,24.536425386047362,13.983970390625,24.251425386047366,13.768000390625,24.029725386047364Z"
                  fill-rule="evenodd" fill="#FFFFFF" fill-opacity="1"/>
        </g>
        <g>
            <path d="M19.040002822875977,0C19.040002822875977,0,28.800002822875975,9.86667,28.800002822875975,9.86667C28.800002822875975,9.86667,21.856002822875976,9.86667,21.856002822875976,9.86667C20.300772822875977,9.86667,19.040002822875977,8.59317,19.040002822875977,7.02222C19.040002822875977,7.02222,19.040002822875977,0,19.040002822875977,0Z"
                  fill-rule="evenodd" fill="#E8E9ED" fill-opacity="1"/>
        </g>
    </g>
</svg>