<?xml version="1.0" standalone="no"?><!--
  - Copyright (c) 2022 NetEase, Inc. All rights reserved.
  - Use of this source code is governed by a MIT license that can be
  - found in the LICENSE file.
  -
  -->

<!DOCTYPE svg PUBLIC "-//W3C//DTD SVG 1.1//EN" "http://www.w3.org/Graphics/SVG/1.1/DTD/svg11.dtd">
<svg t="1726817716246" class="icon" viewBox="0 0 1024 1024" version="1.1" xmlns="http://www.w3.org/2000/svg"
     p-id="18300"
     width="64" height="64">
    <path d="M136.533604 0.00026a49.119975 49.119975 0 0 0-35.839982 15.359992C91.307627 25.600247 85.33463 38.40024 85.33463 51.200234v921.599532a49.119975 49.119975 0 0 0 15.359992 35.839982 50.545974 50.545974 0 0 0 35.839982 15.359992h750.931619a49.119975 49.119975 0 0 0 35.839981-15.359992 50.546974 50.546974 0 0 0 15.359993-35.839982V290.134113L648.533344 0.00026z"
          fill="#8183F1" p-id="18301"></path>
    <path d="M938.666197 290.133113H699.733318a52.492973 52.492973 0 0 1-51.199974-51.199974V0.00026z" fill="#B0B0FF"
          p-id="18302"></path>
    <path d="M649.447344 630.58894v-67.470966c0-8.099996 2.699999-13.494993 5.399997-16.193992l75.571961-75.571961c24.291988-26.989986 51.278974-32.387984 51.278974-5.399998v269.899863c0 26.989986-26.989986 21.592989-51.278974-5.399997l-75.571961-78.27196c-2.699999-8.099996-5.399997-13.494993-5.399997-21.592989z m-35.087983 75.571961c0 21.592989-18.89299 40.484979-40.485979 40.48498h-291.499852c-21.592989 0-40.484979-18.89299-40.48498-40.48498V484.846014c0-21.592989 18.89299-40.484979 40.48498-40.48498h288.799853c21.592989 0 40.484979 18.89299 40.48498 40.48498l2.699998 221.319887z"
          fill="#FFFFFF" p-id="18303"></path>
</svg>