<!--
  - Copyright (c) 2022 NetEase, Inc. All rights reserved.
  - Use of this source code is governed by a MIT license that can be
  - found in the LICENSE file.
  -
  -->

<svg xmlns="http://www.w3.org/2000/svg" fill="none" version="1.1" width="24" height="24" viewBox="0 0 24 24">
    <defs>
        <clipPath id="master_svg0_0_104427">
            <rect x="0" y="0" width="24" height="24" rx="0"/>
        </clipPath>
    </defs>
    <g clip-path="url(#master_svg0_0_104427)">
        <g transform="matrix(-0.7071067690849304,0.7071067690849304,-0.7071067690849304,-0.7071067690849304,51.40774440542373,4.709144696553267)">
            <path d="M28.25575666015625,27.47516484375Q32.29559666015625,31.51516484375,37.75497666015625,31.60216484375L37.75917666015625,31.60226484375L37.87327666015625,31.60326484375Q39.24507666015625,31.60326484375,40.31887666015625,31.12056484375Q42.95367666015625,29.93916484375,43.282376660156245,28.512864843750002Q43.502676660156254,27.578664843749998,42.692776660156255,26.59326484375Q40.44307666015625,23.869264843750003,38.73407666015625,23.84166484375L38.72197666015625,23.84146484375L38.70997666015625,23.84176484375Q37.70297666015625,23.86586484375,36.86137666015625,24.69316484375L36.86137666015625,24.69316484375L36.86087666015625,24.69366484375Q36.424076660156246,25.12266484375,36.14107666015625,25.24076484375Q35.62267666015625,25.454664843750002,35.17387666015625,25.454664843750002L35.12567666015625,25.454664843750002Q33.49828666015625,25.428964843750002,31.90023666015625,23.83086484375Q30.30216666015625,22.23272484375,30.27701666015625,20.59624484375Q30.26916666015625,20.12677484375,30.49119666015625,19.58689484375Q30.60863666015625,19.30540484375,31.03594666015625,18.87213484375Q31.86478666015625,18.02983484375,31.88904666015625,17.03958484375L31.88934666015625,17.02745484375L31.88915666015625,17.015314843749998Q31.861516660156248,15.28246484375,29.14004666015625,13.04016074375Q28.15643666015625,12.22896184375,27.21607666015625,12.44879084375Q25.79226666015625,12.77990084375,24.61046366015625,15.41211484375Q24.10625466015625,16.53500484375,24.12959466015625,17.97594484375Q24.21580766015625,23.434964843750002,28.25575666015625,27.47516484375ZM37.77417666015625,30.40236484375L37.769976660156246,30.40226484375Q32.79902666015625,30.32156484375,29.10430666015625,26.62666484375Q25.40798466015625,22.93014484375,25.32943666015625,17.95651484375Q25.31042566015625,16.78277484375,25.70518766015625,15.90362484375Q26.64338666015625,13.81399284375,27.48923666015625,13.61728684375Q27.85119666015625,13.53267284375,28.37697666015625,13.96629484375Q30.658606660156252,15.84620484375,30.68904666015625,17.02220484375Q30.67099666015625,17.53211484375,30.18154666015625,18.02951484375Q29.59077666015625,18.62853484375,29.38138666015625,19.13047484375Q29.06519666015625,19.89931484375,29.07715666015625,20.61468484375Q29.10977666015625,22.73738484375,31.05168666015625,24.67936484375Q32.99339666015625,26.62116484375,35.12567666015625,26.65466484375L35.17387666015625,26.65466484375Q35.86047666015625,26.65466484375,36.60307666015625,26.34826484375Q37.09977666015625,26.14106484375,37.70177666015625,25.549764843749998L37.702576660156254,25.54896484375L37.70267666015625,25.54886484375Q38.20027666015625,25.05966484375,38.72667666015625,25.041764843750002Q39.88017666015625,25.07206484375,41.76577666015625,27.35526484375Q42.19837666015625,27.88156484375,42.11307666015625,28.24336484375Q41.918376660156255,29.08836484375,39.82687666015625,30.02606484375Q38.98777666015625,30.40326484375,37.88417666015625,30.40336484375L37.77417666015625,30.40236484375Z"
                  fill-rule="evenodd" fill="#333333" fill-opacity="1"/>
        </g>
    </g>
</svg>