<!--
  - Copyright (c) 2022 NetEase, Inc. All rights reserved.
  - Use of this source code is governed by a MIT license that can be
  - found in the LICENSE file.
  -
  -->

<svg xmlns="http://www.w3.org/2000/svg" fill="none" version="1.1" width="18" height="18" viewBox="0 0 18 18">
    <defs>
        <clipPath id="master_svg0_0_89965">
            <rect x="0" y="0" width="18" height="18" rx="0"/>
        </clipPath>
    </defs>
    <g clip-path="url(#master_svg0_0_89965)">
        <g>
            <path d="M6.394734277954101,0.000695347785949707C6.394734277954101,0.000695347785949707,16.3420942779541,0.000695347785949707,16.3420942779541,0.000695347785949707C16.781794277954102,0.000695353674799707,17.2034942779541,0.1753663477859497,17.5143942779541,0.4862813477859497C17.8252942779541,0.7971973477859498,17.9999942779541,1.2188853477859498,17.9999942779541,1.6585853477859498C17.9999942779541,1.6585853477859498,17.9999942779541,11.60599534778595,17.9999942779541,11.60599534778595C17.9999942779541,12.04569534778595,17.8252942779541,12.46739534778595,17.5143942779541,12.77829534778595C17.2034942779541,13.08919534778595,16.781794277954102,13.26389534778595,16.3420942779541,13.26389534778595C16.3420942779541,13.26389534778595,6.394734277954101,13.26389534778595,6.394734277954101,13.26389534778595C5.955034277954102,13.26389534778595,5.5333342779541015,13.08919534778595,5.222424277954102,12.77829534778595C4.911504277954101,12.46739534778595,4.7368342779541015,12.04569534778595,4.7368342779541015,11.60599534778595C4.7368342779541015,11.60599534778595,4.7368342779541015,1.6585853477859498,4.7368342779541015,1.6585853477859498C4.7368342779541015,1.2188853477859498,4.911504277954101,0.7971973477859498,5.222424277954102,0.4862813477859497C5.5333342779541015,0.1753663477859497,5.955034277954102,0.000695347785949707,6.394734277954101,0.000695347785949707C6.394734277954101,0.000695347785949707,6.394734277954101,0.000695347785949707,6.394734277954101,0.000695347785949707ZM6.394734277954101,1.4217453477859496C6.331914277954102,1.4217453477859496,6.2716742779541015,1.4467053477859497,6.227254277954102,1.4911153477859498C6.182844277954102,1.5355353477859497,6.157894277954101,1.5957753477859498,6.157894277954101,1.6585853477859498C6.157894277954101,1.6585853477859498,6.157894277954101,11.60599534778595,6.157894277954101,11.60599534778595C6.157894277954101,11.63709534778595,6.164014277954101,11.667895347785949,6.175914277954101,11.69659534778595C6.1878242779541015,11.72529534778595,6.205264277954101,11.75139534778595,6.227254277954102,11.77339534778595C6.249254277954101,11.79539534778595,6.275364277954101,11.81289534778595,6.304094277954102,11.82479534778595C6.332834277954102,11.83669534778595,6.363624277954101,11.84279534778595,6.394734277954101,11.84279534778595C6.394734277954101,11.84279534778595,16.3420942779541,11.84279534778595,16.3420942779541,11.84279534778595C16.404894277954103,11.84279534778595,16.4651942779541,11.81789534778595,16.5095942779541,11.77339534778595C16.5539942779541,11.72899534778595,16.578894277954102,11.66879534778595,16.578894277954102,11.60599534778595C16.578894277954102,11.60599534778595,16.578894277954102,1.6585853477859498,16.578894277954102,1.6585853477859498C16.578894277954102,1.5957753477859498,16.5539942779541,1.5355353477859497,16.5095942779541,1.4911153477859498C16.4651942779541,1.4467053477859497,16.404894277954103,1.4217453477859496,16.3420942779541,1.4217453477859496C16.3420942779541,1.4217453477859496,6.394734277954101,1.4217453477859496,6.394734277954101,1.4217453477859496ZM11.842094277954102,14.68489534778595C11.842094277954102,14.496495347785949,11.916994277954101,14.31569534778595,12.050194277954102,14.18249534778595C12.183494277954102,14.04919534778595,12.364194277954102,13.974395347785949,12.552594277954102,13.974395347785949C12.741094277954101,13.974395347785949,12.9217942779541,14.04919534778595,13.054994277954101,14.18249534778595C13.188294277954101,14.31569534778595,13.263194277954101,14.496495347785949,13.263194277954101,14.68489534778595C13.263194277954101,14.68489534778595,13.263194277954101,16.342795347785948,13.263194277954101,16.342795347785948C13.263194277954101,16.78249534778595,13.088494277954101,17.204195347785948,12.777594277954101,17.515095347785948C12.466694277954101,17.82599534778595,12.044994277954101,18.00069534778595,11.605294277954101,18.00069534778595C11.605294277954101,18.00069534778595,1.6578842779541016,18.00069534778595,1.6578842779541016,18.00069534778595C1.2181842779541017,18.00069534778595,0.7964962779541016,17.82599534778595,0.4855802779541016,17.515095347785948C0.17466527795410156,17.204195347785948,-0.0000057161570484375,16.78249534778595,-0.0000057220458984375,16.342795347785948C-0.0000057220458984375,16.342795347785948,-0.0000057220458984375,6.395435347785949,-0.0000057220458984375,6.395435347785949C-0.000005722045899068574,5.95573534778595,0.17466527795410156,5.53403534778595,0.4855802779541016,5.22312534778595C0.7964962779541016,4.9122053477859495,1.2181842779541017,4.73753534778595,1.6578842779541016,4.73753534778595C1.6578842779541016,4.73753534778595,3.3157842779541014,4.73753534778595,3.3157842779541014,4.73753534778595C3.5042242779541017,4.73753534778595,3.6849542779541014,4.81239534778595,3.8182042779541017,4.94564534778595C3.9514542779541015,5.0788953477859495,4.026314277954102,5.25962534778595,4.026314277954102,5.44806534778595C4.026314277954102,5.63650534778595,3.9514542779541015,5.8172353477859495,3.8182042779541017,5.95048534778595C3.6849542779541014,6.083735347785949,3.5042242779541017,6.158595347785949,3.3157842779541014,6.158595347785949C3.3157842779541014,6.158595347785949,1.6578842779541016,6.158595347785949,1.6578842779541016,6.158595347785949C1.5950742779541016,6.158595347785949,1.5348342779541015,6.18354534778595,1.4904142779541016,6.22795534778595C1.4460042779541016,6.27237534778595,1.4210442779541015,6.33261534778595,1.4210442779541015,6.395435347785949C1.4210442779541015,6.395435347785949,1.4210442779541015,16.342795347785948,1.4210442779541015,16.342795347785948C1.4210442779541015,16.40559534778595,1.4460042779541016,16.46589534778595,1.4904142779541016,16.51029534778595C1.5348342779541015,16.554695347785948,1.5950742779541016,16.57959534778595,1.6578842779541016,16.57959534778595C1.6578842779541016,16.57959534778595,11.605294277954101,16.57959534778595,11.605294277954101,16.57959534778595C11.668094277954102,16.57959534778595,11.728294277954102,16.554695347785948,11.772694277954102,16.51029534778595C11.817194277954101,16.46589534778595,11.842094277954102,16.40559534778595,11.842094277954102,16.342795347785948C11.842094277954102,16.342795347785948,11.842094277954102,14.68489534778595,11.842094277954102,14.68489534778595Z"
                  fill="#656A72" fill-opacity="1"/>
        </g>
    </g>
</svg>