<svg xmlns="http://www.w3.org/2000/svg" fill="none" version="1.1" width="48"
     height="48" viewBox="0 0 48 48">
    <defs>
        <clipPath id="master_svg0_0_134704">
            <rect x="14" y="14" width="20" height="20" rx="0"/>
        </clipPath>
    </defs>
    <g>
        <g>
            <ellipse cx="24" cy="24" rx="24" ry="24" fill="#E6E6E6" fill-opacity="1"/>
        </g>
        <g clip-path="url(#master_svg0_0_134704)">
            <g style="opacity:0.6000000238418579;">
                <path d="M34,22.01536C34,21.8075,33.9093,21.62193,33.7684,21.49011C33.7684,21.49011,25.875,14.673679,25.875,14.673679C25.7494,14.5669643,25.589,14.5,25.4118,14.5C25.0156,14.5,24.6961,14.820178,24.6961,15.215678C24.6961,15.215678,24.6961,18.233249999999998,24.6961,18.233249999999998C18.662390000000002,19.20704,14.414356,23.64271,13.99999878656,29.3354C14.0195345,29.576700000000002,14.217642,29.7686,14.463177,29.7686C14.558034,29.7686,14.64732,29.740000000000002,14.721285,29.6911C14.721285,29.6911,14.722677000000001,29.6953,14.722677000000001,29.6953C15.76482,28.955199999999998,16.66603,28.4035,17.36918,28.032400000000003C19.07536,27.0935,21.72464,26.3352,24.696199999999997,26.0304C24.696199999999997,26.0304,24.696199999999997,28.8262,24.696199999999997,28.8262C24.696199999999997,29.2224,25.0156,29.5419,25.4119,29.5419C25.5807,29.5419,25.7327,29.4784,25.8555,29.380000000000003C25.8555,29.380000000000003,33.750299999999996,22.56225,33.750299999999996,22.56225C33.750299999999996,22.56225,33.7489,22.56014,33.7489,22.56014C33.9024,22.42968,34,22.23368,34,22.01536ZM26.127499999999998,27.2546C26.127499999999998,27.2546,26.127499999999998,24.478389999999997,26.127499999999998,24.478389999999997C26.127499999999998,24.478389999999997,25.3589,24.535600000000002,25.3589,24.535600000000002C22.249209999999998,24.767200000000003,18.10996,25.6719,15.770389999999999,27.346C16.91018,23.15514,20.53603,20.156390000000002,25.4956,19.56557C25.4956,19.56557,26.127499999999998,19.49025,26.127499999999998,19.49025C26.127499999999998,19.49025,26.127499999999998,16.78239,26.127499999999998,16.78239C26.127499999999998,16.78239,32.1892,22.01886,32.1892,22.01886C32.1892,22.01886,26.127499999999998,27.2546,26.127499999999998,27.2546Z"
                      fill="#656A72" fill-opacity="1"/>
            </g>
        </g>
    </g>
</svg>