<svg xmlns="http://www.w3.org/2000/svg" fill="none" version="1.1" width="14"
     height="14" viewBox="0 0 14 14">
    <defs>
        <clipPath id="master_svg0_0_106315">
            <rect x="0" y="0" width="14" height="14" rx="0"/>
        </clipPath>
    </defs>
    <g clip-path="url(#master_svg0_0_106315)">
        <g>
            <path d="M7.000016197280884,6.383710067825318C7.000016197280884,6.383710067825318,10.192016197280884,3.1917080678253176,10.192016197280884,3.1917080678253176C10.273696197280884,3.1100211678253173,10.384496197280884,3.0641300651035173,10.500016197280884,3.064130067825318C10.615536197280884,3.0641300705471175,10.726326197280883,3.1100211678253173,10.808016197280883,3.1917080678253176C10.889696197280884,3.2733940678253175,10.935586197280884,3.3841850678253174,10.935586197280884,3.4997080678253174C10.935586197280884,3.6152300678253173,10.889696197280884,3.726021067825317,10.808016197280883,3.8077080678253172C10.808016197280883,3.8077080678253172,7.616016197280884,6.999710067825317,7.616016197280884,6.999710067825317C7.616016197280884,6.999710067825317,10.808016197280883,10.191710067825317,10.808016197280883,10.191710067825317C10.889696197280884,10.273390067825318,10.935586197280884,10.384180067825318,10.935586197280884,10.499710067825317C10.935586197280884,10.615230067825317,10.889696197280884,10.726020067825317,10.808016197280883,10.807710067825317C10.726326197280883,10.889390067825317,10.615536197280884,10.935280067825317,10.500016197280884,10.935280067825317C10.384496197280884,10.935280067825317,10.273696197280884,10.889390067825317,10.192016197280884,10.807710067825317C10.192016197280884,10.807710067825317,7.000016197280884,7.615710067825318,7.000016197280884,7.615710067825318C7.000016197280884,7.615710067825318,3.8080141972808836,10.807710067825317,3.8080141972808836,10.807710067825317C3.7263271972808836,10.889390067825317,3.6155361972808837,10.935280067825317,3.500014197280884,10.935280067825317C3.3844911972808838,10.935280067825317,3.273700197280884,10.889390067825317,3.192014197280884,10.807710067825317C3.1103272972808838,10.726020067825317,3.0644361981415926,10.615230067825317,3.0644361972808842,10.499710067825317C3.064436196420175,10.384180067825318,3.1103272972808838,10.273390067825318,3.192014197280884,10.191710067825317C3.192014197280884,10.191710067825317,6.384016197280884,6.999710067825317,6.384016197280884,6.999710067825317C6.384016197280884,6.999710067825317,3.192014197280884,3.8077080678253172,3.192014197280884,3.8077080678253172C3.1103272972808838,3.726021067825317,3.064436195559464,3.6152300678253173,3.0644361972808842,3.4997080678253174C3.0644361990023037,3.3841850678253174,3.1103272972808838,3.2733940678253175,3.192014197280884,3.1917080678253176C3.273700197280884,3.1100211678253173,3.3844911972808838,3.0641300695467373,3.500014197280884,3.064130067825318C3.6155361972808837,3.0641300661038975,3.7263271972808836,3.1100211678253173,3.8080141972808836,3.1917080678253176C3.8080141972808836,3.1917080678253176,7.000016197280884,6.383710067825318,7.000016197280884,6.383710067825318Z"
                  fill="#999999" fill-opacity="1"/>
        </g>
    </g>
</svg>