<svg xmlns="http://www.w3.org/2000/svg" fill="none" version="1.1" width="18"
     height="18" viewBox="0 0 18 18">
    <defs>
        <clipPath id="master_svg0_0_148546">
            <rect x="0" y="0" width="18" height="18" rx="0"/>
        </clipPath>
    </defs>
    <g clip-path="url(#master_svg0_0_148546)">
        <g>
            <path d="M6.288367487762451,1.8482142686843872C6.288367487762451,1.8482142686843872,17.203219487762453,1.8482142686843872,17.203219487762453,1.8482142686843872C17.740019487762453,1.8482142686843872,18.00851948776245,2.116631268684387,18.00851948776245,2.6534642686843872C18.00851948776245,2.6534642686843872,18.00851948776245,2.651264268684387,18.00851948776245,2.651264268684387C18.00851948776245,3.188094268684387,17.740019487762453,3.456514268684387,17.203219487762453,3.456514268684387C17.203219487762453,3.456514268684387,6.288367487762451,3.456514268684387,6.288367487762451,3.456514268684387C5.751535487762451,3.456514268684387,5.483119487762451,3.188094268684387,5.483119487762451,2.651264268684387C5.483119487762451,2.651264268684387,5.483119487762451,2.6534642686843872,5.483119487762451,2.6534642686843872C5.483119487762451,2.116631268684387,5.751535487762451,1.8482142686843872,6.288367487762451,1.8482142686843872C6.288367487762451,1.8482142686843872,6.288367487762451,1.8482142686843872,6.288367487762451,1.8482142686843872Z"
                  fill="#656A72" fill-opacity="1"/>
        </g>
        <g>
            <path d="M6.288367487762451,8.40234375C6.288367487762451,8.40234375,17.203219487762453,8.40234375,17.203219487762453,8.40234375C17.740019487762453,8.40234375,18.00851948776245,8.67076075,18.00851948776245,9.207593750000001C18.00851948776245,9.207593750000001,18.00851948776245,9.20539375,18.00851948776245,9.20539375C18.00851948776245,9.74222375,17.740019487762453,10.01064375,17.203219487762453,10.01064375C17.203219487762453,10.01064375,6.288367487762451,10.01064375,6.288367487762451,10.01064375C5.751535487762451,10.01064375,5.483119487762451,9.74222375,5.483119487762451,9.20539375C5.483119487762451,9.20539375,5.483119487762451,9.207593750000001,5.483119487762451,9.207593750000001C5.483119487762451,8.67076075,5.751535487762451,8.40234375,6.288367487762451,8.40234375C6.288367487762451,8.40234375,6.288367487762451,8.40234375,6.288367487762451,8.40234375Z"
                  fill="#656A72" fill-opacity="1"/>
        </g>
        <g>
            <path d="M6.288367487762451,14.956473350524902C6.288367487762451,14.956473350524902,17.203219487762453,14.956473350524902,17.203219487762453,14.956473350524902C17.740019487762453,14.956473350524902,18.00851948776245,15.224892350524902,18.00851948776245,15.761729350524902C18.00851948776245,15.761729350524902,18.00851948776245,15.759529350524902,18.00851948776245,15.759529350524902C18.00851948776245,16.296363350524903,17.740019487762453,16.564783350524902,17.203219487762453,16.564783350524902C17.203219487762453,16.564783350524902,6.288367487762451,16.564783350524902,6.288367487762451,16.564783350524902C5.751535487762451,16.564783350524902,5.483119487762451,16.296363350524903,5.483119487762451,15.759529350524902C5.483119487762451,15.759529350524902,5.483119487762451,15.761729350524902,5.483119487762451,15.761729350524902C5.483119487762451,15.224892350524902,5.751535487762451,14.956473350524902,6.288367487762451,14.956473350524902C6.288367487762451,14.956473350524902,6.288367487762451,14.956473350524902,6.288367487762451,14.956473350524902Z"
                  fill="#656A72" fill-opacity="1"/>
        </g>
        <g>
            <path d="M4.85402,0.9199368843421936C4.80012,0.8656468843421936,4.73603,0.8225399843421937,4.66542,0.7930898843421936C4.59482,0.7636398843421937,4.51909,0.7484273753421936,4.44259,0.7483259030370936C4.36607,0.7483064530421936,4.29031,0.7634638843421936,4.21969,0.7929208843421937C4.14907,0.8223777843421936,4.08499,0.8655488843421936,4.03117,0.9199368843421936C4.03117,0.9199368843421936,1.98284,2.972665884342194,1.98284,2.972665884342194C1.98284,2.972665884342194,0.99498,1.9760058843421937,0.99498,1.9760058843421937C0.941082,1.9217158843421935,0.87699,1.8786058843421936,0.806386,1.8491558843421936C0.735781,1.8197058843421936,0.660055,1.8044958843421937,0.583554,1.8043958843421937C0.468486,1.8047258843421936,0.356088,1.8390958843421936,0.260518,1.9031858843421936C0.164947,1.9672758843421936,0.0904773,2.0582058843421933,0.0464874,2.1645358843421936C0.00249738,2.270865884342194,-0.00904557,2.3878358843421936,0.0133123,2.5007058843421937C0.0356701,2.6135858843421937,0.0909288,2.7173158843421934,0.172129,2.798855884342194C0.172129,2.798855884342194,1.57582,4.209135884342194,1.57582,4.209135884342194C1.68368,4.317315884342193,1.83008,4.378245884342194,1.98284,4.378545884342193C2.05908,4.378895884342194,2.13461,4.363875884342193,2.20492,4.334385884342193C2.27523,4.304905884342194,2.33888,4.261555884342194,2.39207,4.206935884342194C2.39207,4.206935884342194,4.85402,1.7405868843421937,4.85402,1.7405868843421937C4.96165,1.6311308843421934,5.02196,1.4837688843421937,5.02196,1.3302618843421936C5.02196,1.1767548843421936,4.96165,1.0293928843421936,4.85402,0.9199368843421936C4.85402,0.9199368843421936,4.85402,0.9199368843421936,4.85402,0.9199368843421936ZM4.85402,7.568745884342194C4.80001,7.514755884342193,4.73585,7.471995884342194,4.66524,7.442915884342193C4.59463,7.413835884342194,4.51896,7.399025884342193,4.44259,7.399335884342194C4.36621,7.398905884342193,4.2905,7.413665884342193,4.21988,7.442745884342194C4.14925,7.471825884342193,4.0851,7.514655884342194,4.03117,7.568745884342194C4.03117,7.568745884342194,1.98284,9.619275884342194,1.98284,9.619275884342194C1.98284,9.619275884342194,0.99498,8.622615884342194,0.99498,8.622615884342194C0.941264,8.567925884342195,0.877254,8.524405884342194,0.806641,8.494575884342193C0.736028,8.464745884342193,0.660209,8.449185884342192,0.583554,8.448795884342193C0.468033,8.448695884342193,0.355085,8.482915884342194,0.259042,8.547105884342194C0.163,8.611305884342194,0.0881926,8.702585884342193,0.044113,8.809365884342194C0.0000333449,8.916145884342194,-0.0113315,9.033615884342193,0.0114606,9.146865884342194C0.0342526,9.260115884342193,0.0901742,9.364045884342193,0.172129,9.445465884342193C0.172129,9.445465884342193,1.57582,10.853525884342194,1.57582,10.853525884342194C1.62944,10.907925884342193,1.69333,10.951025884342194,1.76376,10.980525884342194C1.8342,11.009925884342193,1.90979,11.025125884342193,1.98614,11.025125884342193C2.06249,11.025125884342193,2.13808,11.009925884342193,2.20852,10.980525884342194C2.27896,10.951025884342194,2.34284,10.907925884342193,2.39647,10.853525884342194C2.39647,10.853525884342194,4.85402,8.387195884342194,4.85402,8.387195884342194C4.96047,8.277565884342193,5.02001,8.130775884342194,5.02001,7.977975884342194C5.02001,7.825165884342193,4.96047,7.678375884342193,4.85402,7.568745884342194C4.85402,7.568745884342194,4.85402,7.568745884342194,4.85402,7.568745884342194ZM4.85402,13.790725884342194C4.80012,13.736425884342193,4.73603,13.693325884342194,4.66542,13.663925884342193C4.59482,13.634425884342194,4.51909,13.619225884342194,4.44259,13.619125884342193C4.36607,13.619125884342193,4.29031,13.634225884342193,4.21969,13.663725884342194C4.14907,13.693125884342194,4.08499,13.736325884342193,4.03117,13.790725884342194C4.03117,13.790725884342194,1.98284,15.843425884342194,1.98284,15.843425884342194C1.98284,15.843425884342194,0.99498,14.846825884342193,0.99498,14.846825884342193C0.940973,14.792825884342193,0.876814,14.750025884342193,0.806201,14.720925884342194C0.735588,14.691925884342194,0.659919,14.677125884342194,0.583554,14.677425884342194C0.507173,14.676925884342193,0.431467,14.691725884342194,0.360837,14.720825884342194C0.290208,14.749925884342193,0.226062,14.792725884342193,0.172129,14.846825884342193C0.0633036,14.956025884342194,0.00220338,15.104025884342194,0.00220338,15.258225884342194C0.00220338,15.412425884342193,0.0633036,15.560325884342193,0.172129,15.669625884342194C0.172129,15.669625884342194,1.57582,17.079925884342195,1.57582,17.079925884342195C1.68471,17.188625884342194,1.83228,17.249625884342194,1.98614,17.249625884342194C2.14,17.249625884342194,2.28757,17.188625884342194,2.39647,17.079925884342195C2.39647,17.079925884342195,4.85402,14.609225884342194,4.85402,14.609225884342194C4.96047,14.499525884342194,5.02001,14.352725884342194,5.02001,14.199925884342193C5.02001,14.047125884342194,4.96047,13.900325884342193,4.85402,13.790725884342194C4.85402,13.790725884342194,4.85402,13.790725884342194,4.85402,13.790725884342194Z"
                  fill="#656A72" fill-opacity="1"/>
        </g>
    </g>
</svg>