<!--
  - Copyright (c) 2022 NetEase, Inc. All rights reserved.
  - Use of this source code is governed by a MIT license that can be
  - found in the LICENSE file.
  -
  -->

<svg xmlns="http://www.w3.org/2000/svg" fill="none" version="1.1" width="16"
     height="16" viewBox="0 0 16 16">
    <defs>
        <clipPath id="master_svg0_0_89828">
            <rect x="16" y="16" width="16" height="16" rx="0"/>
        </clipPath>
    </defs>
    <g transform="matrix(0,-1,-1,0,32,32)" clip-path="url(#master_svg0_0_89828)">
        <rect x="16" y="16" width="16" height="16" rx="0" fill="#FFFFFF" fill-opacity="1"/>
        <g>
            <path d="M26.896411685180663,19.51179413194275Q26.982911685180664,19.425293131942748,27.029721685180665,19.31227313194275Q27.076541685180665,19.199254131942748,27.076541685180665,19.07692313194275Q27.076541685180665,19.01635093194275,27.064721685180665,18.95694213194275Q27.052901685180665,18.89753413194275,27.029721685180665,18.84157313194275Q27.006541685180665,18.785611131942748,26.972891685180663,18.73524713194275Q26.939241685180665,18.684883131942748,26.896411685180663,18.642052131942748Q26.853581685180664,18.59922113194275,26.803211685180663,18.56556913194275Q26.752851685180666,18.53191713194275,26.696891685180663,18.50873713194275Q26.640931685180664,18.48555713194275,26.581521685180665,18.473740131942748Q26.522111685180665,18.46192313194275,26.461541685180663,18.46192313194275Q26.339211685180665,18.46192313194275,26.226191685180666,18.50873713194275Q26.113171685180664,18.55555113194275,26.026671685180663,18.642052131942748L26.026391685180663,18.64178013194275L20.668176685180665,24.000003131942748L25.718701685180665,29.050523131942747L25.718971685180662,29.05025313194275Q25.805471685180663,29.136723131942748,25.918491685180662,29.18352313194275Q26.031511685180664,29.23042313194275,26.153841685180666,29.23042313194275Q26.214421685180664,29.23042313194275,26.273821685180664,29.21852313194275Q26.333231685180664,29.20672313194275,26.389191685180663,29.18352313194275Q26.445161685180665,29.16042313194275,26.495521685180663,29.126723131942747Q26.545881685180664,29.093123131942747,26.588721685180666,29.05025313194275Q26.631551685180664,29.00742313194275,26.665201685180662,28.95706313194275Q26.698851685180664,28.90669313194275,26.722031685180664,28.850733131942746Q26.745211685180664,28.794773131942748,26.757031685180664,28.735363131942748Q26.768841685180664,28.675953131942748,26.768841685180664,28.61538313194275Q26.768841685180664,28.49305313194275,26.722031685180664,28.38003313194275Q26.675221685180663,28.267013131942747,26.588721685180666,28.18051313194275L26.588991685180666,28.18024313194275L22.408746685180663,24.000003131942748L26.896681685180663,19.51206613194275L26.896411685180663,19.51179413194275Z"
                  fill-rule="evenodd" fill="#999999" fill-opacity="1"/>
        </g>
    </g>
</svg>