<!--
  - Copyright (c) 2022 NetEase, Inc. All rights reserved.
  - Use of this source code is governed by a MIT license that can be
  - found in the LICENSE file.
  -
  -->

<svg xmlns="http://www.w3.org/2000/svg" fill="none" version="1.1" width="24"
     height="24" viewBox="0 0 24 24">
    <defs>
        <clipPath id="master_svg0_0_89777">
            <rect x="0" y="0" width="24" height="24" rx="0"/>
        </clipPath>
    </defs>
    <g clip-path="url(#master_svg0_0_89777)">
        <g>
            <path d="M12.5036,13.7496C10.1129,14.4009,7.49928,16.4501,7.49928,18.447200000000002C7.49928,18.447200000000002,7.49928,21.0029,7.49928,21.0029C7.49928,21.0029,0.749638,21.0029,0.749638,21.0029C0.335745,21.0029,0,20.6672,0,20.2533C0,20.2533,0,18.502200000000002,0,18.502200000000002C0,15.1795,6.61071,13.5036,9.92185,13.5036C10.657,13.5007,11.5543,13.5847,12.5036,13.7496C12.5036,13.7496,12.5036,13.7496,12.5036,13.7496ZM7.49928,12.00145C5.01302,12.00145,2.99855,9.986979999999999,2.99855,7.50072C2.99855,5.01447,5.01302,3,7.49928,3C9.98553,3,12,5.01447,12,7.50072C12,9.986979999999999,9.98553,12.00145,7.49928,12.00145C7.49928,12.00145,7.49928,12.00145,7.49928,12.00145ZM17.424,13.5007C19.3603,13.4515,20.9841,11.85963,21.0738,9.9262C21.1693,7.81331,19.508,6.04486,17.4038,6.00434C17.4038,6.00434,17.2533,6.00434,17.2533,6.00434C15.1838,6.04486,13.5369,7.75832,13.5774,9.82779C13.6179,11.89725,15.3314,13.5528,17.424,13.5007ZM17.2504,15.0029C14.9986,15.0029,10.5007,16.343,10.5007,19.0029C10.5007,19.0029,10.5007,20.2533,10.5007,20.2533C10.5007,20.6672,10.8365,21.0029,11.2504,21.0029C11.2504,21.0029,23.2504,21.0029,23.2504,21.0029C23.6643,21.0029,24,20.6672,24,20.2533C24,20.2533,24,19.0029,24,19.0029C24,16.3401,19.5022,15.0029,17.2504,15.0029C17.2504,15.0029,17.2504,15.0029,17.2504,15.0029Z"
                  fill="#FFFFFF" fill-opacity="1"/>
        </g>
    </g>
</svg>