<!--
  - Copyright (c) 2022 NetEase, Inc. All rights reserved.
  - Use of this source code is governed by a MIT license that can be
  - found in the LICENSE file.
  -
  -->

<svg xmlns="http://www.w3.org/2000/svg" fill="none" version="1.1" width="18" height="18" viewBox="0 0 18 18">
    <defs>
        <clipPath id="master_svg0_0_154834">
            <rect x="0" y="0" width="18" height="18" rx="0"/>
        </clipPath>
    </defs>
    <g clip-path="url(#master_svg0_0_154834)">
        <g>
            <path d="M10.425019331512452,4.3396C10.425019331512452,4.3396,3.172789331512451,4.3396,3.172789331512451,4.3396C3.172789331512451,4.3396,5.430199331512451,2.2102,5.430199331512451,2.2102C5.754209331512451,1.8821940000000001,5.835539331512451,1.562184,5.5168593315124514,1.247508C5.182189331512451,0.916831,4.8381793315124515,0.9181644,4.503499331512451,1.247508C4.503499331512451,1.247508,1.4634043315124512,4.2636,1.4634043315124512,4.2636C1.280731331512451,4.44761,0.9740553315124512,4.69295,1.003389561512451,4.93962C1.003389561512451,4.93962,1.016723331512451,5.03963,1.016723331512451,5.03963C1.016723331512451,5.03963,1.003389561512451,5.14096,1.003389561512451,5.14096C0.9753887315124512,5.3863,1.136727331512451,5.52097,1.3127323315124513,5.69965C1.3127323315124513,5.69965,4.388829331512451,8.72508,4.388829331512451,8.72508C4.723509331512451,9.05442,5.182189331512451,9.16242,5.5168593315124514,8.83175C5.835539331512451,8.51707,5.596869331512451,8.035720000000001,5.280859331512451,7.71704C5.280859331512451,7.71704,3.176789331512451,5.69965,3.176789331512451,5.69965C3.176789331512451,5.69965,10.425019331512452,5.66631,10.425019331512452,5.66631C13.05980933151245,5.66631,15.653209331512452,7.98905,15.653209331512452,10.58647C15.653209331512452,13.1839,13.05980933151245,15.6666,10.425019331512452,15.6666C10.425019331512452,15.6666,3.452799331512451,15.6666,3.452799331512451,15.6666C2.9821193315124512,15.6666,2.834109331512451,15.8666,2.834109331512451,16.3386C2.834109331512451,16.8107,2.980789331512451,17,3.452799331512451,17C3.452799331512451,17,10.426349331512451,17,10.426349331512451,17C14.051809331512452,17,16.98650933151245,14.1186,16.98650933151245,10.58647C16.98650933151245,7.05702,14.05310933151245,4.3396,10.425019331512452,4.3396Z"
                  fill="#656A72" fill-opacity="1"/>
        </g>
    </g>
</svg>