<!--
  - Copyright (c) 2022 NetEase, Inc. All rights reserved.
  - Use of this source code is governed by a MIT license that can be
  - found in the LICENSE file.
  -
  -->

<svg xmlns="http://www.w3.org/2000/svg" fill="none" version="1.1" width="18" height="18" viewBox="0 0 18 18">
    <defs>
        <clipPath id="master_svg0_0_154826">
            <rect x="0" y="0" width="18" height="18" rx="0"/>
        </clipPath>
    </defs>
    <g clip-path="url(#master_svg0_0_154826)">
        <rect x="0" y="0" width="18" height="18" rx="0" fill="#FFFFFF" fill-opacity="1"/>
        <g>
            <path d="M3.8571429999999998,2.8928542686843874L3.8571429999999998,4.500004268684387L5.142857,4.500004268684387L5.142857,2.581234268684387Q5.142857,2.307194268684387,5.329402,2.1153742686843873Q5.5110600000000005,1.9285712686843872,5.76963,1.9285712686843872L12.23037,1.9285712686843872Q12.48894,1.9285712686843872,12.6706,2.1153742686843873Q12.85714,2.307194268684387,12.85714,2.581234268684387L12.85714,4.500004268684387L14.14286,4.500004268684387L14.14286,2.581234268684387Q14.14286,1.785116268684387,13.59233,1.2190094686843873Q13.03204,0.6428572686843872,12.23037,0.6428572686843872L5.76963,0.6428572686843872Q4.967963,0.6428572686843872,4.4076683,1.2190096686843872Q3.8571429999999998,1.785116268684387,3.8571429999999998,2.581234268684387L3.8571429999999998,2.8928542686843874Z"
                  fill-rule="evenodd" fill="#656A72" fill-opacity="1"/>
        </g>
        <g>
            <path d="M1.9811041626312256,5.142857Q1.9548814626312256,5.145,1.9285714626312256,5.145Q1.8650445626312255,5.145,1.8027384626312255,5.132606Q1.7404314626312256,5.120213,1.6817404626312256,5.095902Q1.6230494626312255,5.071591,1.5702284626312255,5.036298Q1.5174074626312257,5.001004,1.4724874626312257,4.956084Q1.4275674626312256,4.911164,1.3922734626312256,4.858343Q1.3569794626312257,4.805522,1.3326694626312254,4.746831Q1.3083584626312255,4.68814,1.2959654626312256,4.625833Q1.2835714626312256,4.5635269,1.2835714626312256,4.5Q1.2835714626312256,4.4364731,1.2959654626312256,4.374167Q1.3083584626312255,4.31186,1.3326694626312254,4.253169Q1.3569804626312256,4.194478,1.3922734626312256,4.141657Q1.4275674626312256,4.088836,1.4724874626312257,4.043916Q1.5174074626312257,3.998996,1.5702284626312255,3.963702Q1.6230494626312255,3.928408,1.6817404626312256,3.904098Q1.7404314626312256,3.879787,1.8027384626312255,3.867394Q1.8650445626312255,3.855,1.9285714626312256,3.855Q1.9548814626312256,3.855,1.9811041626312256,3.8571429999999998L16.018871462631225,3.8571429999999998Q16.045071462631228,3.855,16.071471462631223,3.855Q16.134971462631228,3.855,16.197271462631228,3.867394Q16.259571462631225,3.879787,16.318271462631223,3.904098Q16.376971462631225,3.9284090000000003,16.429771462631226,3.963702Q16.482571462631228,3.998996,16.527471462631226,4.043916Q16.572471462631228,4.088836,16.607771462631227,4.141657Q16.642971462631223,4.194478,16.667371462631223,4.253169Q16.691671462631227,4.31186,16.704071462631227,4.374167Q16.716471462631226,4.4364731,16.716471462631226,4.5Q16.716471462631226,4.5635269,16.704071462631227,4.625833Q16.691671462631227,4.68814,16.667371462631223,4.746831Q16.642971462631223,4.805522,16.607771462631227,4.858343Q16.572471462631228,4.911164,16.527471462631226,4.956084Q16.482571462631228,5.001004,16.429771462631226,5.036298Q16.376971462631225,5.071592,16.318271462631223,5.095902Q16.259571462631225,5.120213,16.197271462631228,5.132606Q16.134971462631228,5.145,16.071471462631223,5.145Q16.045071462631228,5.145,16.018871462631225,5.142857L1.9811041626312256,5.142857Z"
                  fill-rule="evenodd" fill="#656A72" fill-opacity="1"/>
        </g>
        <g>
            <path d="M14.785685612106324,16.069438775787354L14.785685612106324,7.0714287757873535L13.499985612106324,7.0714287757873535L13.499985612106324,16.069438775787354L13.512085612106324,16.071428775787354L8.999995612106323,16.071428775787354L4.487955612106323,16.071428775787354L4.499995612106323,16.069438775787354L4.499995612106323,12.214288775787352L4.499995612106323,7.0714287757873535L3.2142856121063232,7.0714287757873535L3.2142856121063232,16.069438775787354C3.2142856121063232,16.779518775787352,3.777870612106323,17.357128775787352,4.487955612106323,17.357128775787352L13.512085612106324,17.357128775787352C14.222085612106323,17.357128775787352,14.785685612106324,16.779518775787352,14.785685612106324,16.069438775787354Z"
                  fill-rule="evenodd" fill="#656A72" fill-opacity="1"/>
        </g>
        <g>
            <path d="M7.714285775787354,7.123961475787354Q7.716428775787353,7.097738775787353,7.716428775787353,7.0714287757873535Q7.716428775787353,7.007901875787353,7.7040347757873535,6.945595775787353Q7.691641775787353,6.883288775787354,7.667330775787353,6.824597775787353Q7.643019775787353,6.765906775787354,7.607726775787354,6.713085775787354Q7.5724327757873535,6.660264775787353,7.527512775787353,6.615344775787354Q7.482592775787354,6.5704247757873535,7.429771775787353,6.535130775787353Q7.376950775787353,6.499836775787354,7.318259775787354,6.475526775787354Q7.259568775787353,6.451215775787354,7.197261775787354,6.4388227757873535Q7.134955675787354,6.426428775787354,7.0714287757873535,6.426428775787354Q7.007901875787353,6.426428775787354,6.945595775787353,6.4388227757873535Q6.883288775787354,6.451215775787354,6.824597775787353,6.475526775787354Q6.765906775787354,6.499837775787354,6.713085775787354,6.535130775787353Q6.660264775787353,6.5704247757873535,6.615344775787354,6.615344775787354Q6.5704247757873535,6.660264775787353,6.535130775787353,6.713085775787354Q6.499836775787354,6.765906775787354,6.475526775787354,6.824597775787353Q6.451215775787354,6.883288775787354,6.4388227757873535,6.945595775787353Q6.426428775787354,7.007901875787353,6.426428775787354,7.0714287757873535Q6.426428775787354,7.097738775787353,6.428571775787353,7.123961475787354L6.428571775787353,14.733178775787353Q6.426428775787354,14.759408775787353,6.426428775787354,14.785718775787354Q6.426428775787354,14.849238775787352,6.4388227757873535,14.911548775787352Q6.451215775787354,14.973848775787353,6.475526775787354,15.032548775787355Q6.499837775787354,15.091238775787353,6.535130775787353,15.144058775787354Q6.5704247757873535,15.196878775787354,6.615344775787354,15.241798775787354Q6.660264775787353,15.286718775787353,6.713085775787354,15.322008775787353Q6.765906775787354,15.357308775787354,6.824597775787353,15.381618775787354Q6.883288775787354,15.405928775787354,6.945595775787353,15.418318775787354Q7.007901875787353,15.430718775787353,7.0714287757873535,15.430718775787353Q7.134955675787354,15.430718775787353,7.197261775787354,15.418318775787354Q7.259568775787353,15.405928775787354,7.318259775787354,15.381618775787354Q7.376950775787353,15.357308775787354,7.429771775787353,15.322008775787353Q7.482592775787354,15.286718775787353,7.527512775787353,15.241798775787354Q7.5724327757873535,15.196878775787354,7.607726775787354,15.144058775787354Q7.643020775787353,15.091238775787353,7.667330775787353,15.032548775787355Q7.691641775787353,14.973848775787353,7.7040347757873535,14.911548775787352Q7.716428775787353,14.849238775787352,7.716428775787353,14.785718775787354Q7.716428775787353,14.759408775787353,7.714285775787354,14.733178775787353L7.714285775787354,7.123961475787354Z"
                  fill-rule="evenodd" fill="#656A72" fill-opacity="1"/>
        </g>
        <g>
            <path d="M11.571428701049804,7.123961475787354Q11.573571701049804,7.097738775787353,11.573571701049804,7.0714287757873535Q11.573571701049804,7.007901875787353,11.561177701049804,6.945595775787353Q11.548784701049804,6.883288775787354,11.524473701049805,6.824597775787353Q11.500162701049804,6.765906775787354,11.464869701049805,6.713085775787354Q11.429575701049805,6.660264775787353,11.384655701049805,6.615344775787354Q11.339735701049804,6.5704247757873535,11.286914701049804,6.535130775787353Q11.234093701049805,6.499836775787354,11.175402701049805,6.475526775787354Q11.116711701049805,6.451215775787354,11.054404701049805,6.4388227757873535Q10.992098601049804,6.426428775787354,10.928571701049805,6.426428775787354Q10.865044801049805,6.426428775787354,10.802738701049805,6.4388227757873535Q10.740431701049804,6.451215775787354,10.681740701049804,6.475526775787354Q10.623049701049805,6.499837775787354,10.570228701049805,6.535130775787353Q10.517407701049805,6.5704247757873535,10.472487701049804,6.615344775787354Q10.427567701049805,6.660264775787353,10.392273701049804,6.713085775787354Q10.356979701049804,6.765906775787354,10.332669701049804,6.824597775787353Q10.308358701049805,6.883288775787354,10.295965701049806,6.945595775787353Q10.283571701049805,7.007901875787353,10.283571701049805,7.0714287757873535Q10.283571701049805,7.097738775787353,10.285714701049805,7.123961475787354L10.285714701049805,14.733178775787353Q10.283571701049805,14.759408775787353,10.283571701049805,14.785718775787354Q10.283571701049805,14.849238775787352,10.295965701049806,14.911548775787352Q10.308358701049805,14.973848775787353,10.332669701049804,15.032548775787355Q10.356980701049805,15.091238775787353,10.392273701049804,15.144058775787354Q10.427567701049805,15.196878775787354,10.472487701049804,15.241798775787354Q10.517407701049805,15.286718775787353,10.570228701049805,15.322008775787353Q10.623049701049805,15.357308775787354,10.681740701049804,15.381618775787354Q10.740431701049804,15.405928775787354,10.802738701049805,15.418318775787354Q10.865044801049805,15.430718775787353,10.928571701049805,15.430718775787353Q10.992098601049804,15.430718775787353,11.054404701049805,15.418318775787354Q11.116711701049805,15.405928775787354,11.175402701049805,15.381618775787354Q11.234093701049805,15.357308775787354,11.286914701049804,15.322008775787353Q11.339735701049804,15.286718775787353,11.384655701049805,15.241798775787354Q11.429575701049805,15.196878775787354,11.464869701049805,15.144058775787354Q11.500163701049805,15.091238775787353,11.524473701049805,15.032548775787355Q11.548784701049804,14.973848775787353,11.561177701049804,14.911548775787352Q11.573571701049804,14.849238775787352,11.573571701049804,14.785718775787354Q11.573571701049804,14.759408775787353,11.571428701049804,14.733178775787353L11.571428701049804,7.123961475787354Z"
                  fill-rule="evenodd" fill="#656A72" fill-opacity="1"/>
        </g>
    </g>
</svg>