<!--
  - Copyright (c) 2022 NetEase, Inc. All rights reserved.
  - Use of this source code is governed by a MIT license that can be
  - found in the LICENSE file.
  -
  -->

<svg xmlns="http://www.w3.org/2000/svg" fill="none" version="1.1" width="24" height="24" viewBox="0 0 24 24">
    <defs>
        <clipPath id="master_svg0_0_147215">
            <rect x="0" y="0" width="24" height="24" rx="0"/>
        </clipPath>
    </defs>
    <g clip-path="url(#master_svg0_0_147215)">
        <g>
            <path d="M12.249920845031738,19.96680465221405C12.249920845031738,19.96680465221405,12.249920845031738,21.24930465221405,12.249920845031738,21.24930465221405C12.249920845031738,21.44820465221405,12.170900845031738,21.63900465221405,12.030250845031738,21.77960465221405C11.889600845031739,21.92030465221405,11.698830845031738,21.99930465221405,11.499920845031738,21.99930465221405C11.301010845031739,21.99930465221405,11.110240845031738,21.92030465221405,10.969590845031739,21.77960465221405C10.828940845031738,21.63900465221405,10.749920845031738,21.44820465221405,10.749920845031738,21.24930465221405C10.749920845031738,21.24930465221405,10.749920845031738,19.96680465221405,10.749920845031738,19.96680465221405C6.406670845031739,19.58680465221405,2.9999208450317383,15.94080465221405,2.9999208450317383,11.49930465221405C2.9999208450317383,11.49930465221405,2.9999208450317383,10.99930465221405,2.9999208450317383,10.99930465221405C2.9999208450317383,10.80039465221405,3.078938645031738,10.60962465221405,3.219590845031738,10.468974652214051C3.3602428450317383,10.32832465221405,3.5510088450317383,10.24930465221405,3.7499208450317383,10.24930465221405C3.9488328450317383,10.24930465221405,4.1396008450317385,10.32832465221405,4.2802508450317385,10.468974652214051C4.420900845031738,10.60962465221405,4.499920845031738,10.80039465221405,4.499920845031738,10.99930465221405C4.499920845031738,10.99930465221405,4.499920845031738,11.49930465221405,4.499920845031738,11.49930465221405C4.499920845031738,15.36530465221405,7.633920845031739,18.49930465221405,11.499920845031738,18.49930465221405C15.365920845031738,18.49930465221405,18.49992084503174,15.36530465221405,18.49992084503174,11.49930465221405C18.49992084503174,11.49930465221405,18.49992084503174,10.99930465221405,18.49992084503174,10.99930465221405C18.49992084503174,10.80039465221405,18.57892084503174,10.60962465221405,18.719620845031738,10.468974652214051C18.86022084503174,10.32832465221405,19.05102084503174,10.24930465221405,19.24992084503174,10.24930465221405C19.448820845031737,10.24930465221405,19.63962084503174,10.32832465221405,19.78022084503174,10.468974652214051C19.920920845031738,10.60962465221405,19.99992084503174,10.80039465221405,19.99992084503174,10.99930465221405C19.99992084503174,10.99930465221405,19.99992084503174,11.49930465221405,19.99992084503174,11.49930465221405C19.99992084503174,15.941004652214051,16.593120845031738,19.58680465221405,12.249920845031738,19.96680465221405C12.249920845031738,19.96680465221405,12.249920845031738,19.96680465221405,12.249920845031738,19.96680465221405ZM6.499920845031738,6.99680465221405C6.499920845031738,4.23680465221405,8.738170845031739,1.9993046522140503,11.499920845031738,1.9993046522140503C14.260420845031739,1.9993046522140503,16.49992084503174,4.2385546522140505,16.49992084503174,6.99680465221405C16.49992084503174,6.99680465221405,16.49992084503174,11.50180465221405,16.49992084503174,11.50180465221405C16.49992084503174,14.26180465221405,14.261620845031738,16.49930465221405,11.499920845031738,16.49930465221405C8.739420845031738,16.49930465221405,6.499920845031738,14.26000465221405,6.499920845031738,11.50180465221405C6.499920845031738,11.50180465221405,6.499920845031738,6.99680465221405,6.499920845031738,6.99680465221405C6.499920845031738,6.99680465221405,6.499920845031738,6.99680465221405,6.499920845031738,6.99680465221405ZM7.999920845031738,6.99680465221405C7.999920845031738,6.99680465221405,7.999920845031738,11.50180465221405,7.999920845031738,11.50180465221405C7.999920845031738,13.43180465221405,9.567670845031738,14.99930465221405,11.499920845031738,14.99930465221405C13.433420845031739,14.99930465221405,14.999920845031738,13.43350465221405,14.999920845031738,11.50180465221405C14.999920845031738,11.50180465221405,14.999920845031738,6.99680465221405,14.999920845031738,6.99680465221405C14.999920845031738,5.06680465221405,13.432120845031738,3.4993046522140503,11.499920845031738,3.4993046522140503C9.566420845031738,3.4993046522140503,7.999920845031738,5.06505465221405,7.999920845031738,6.99680465221405C7.999920845031738,6.99680465221405,7.999920845031738,6.99680465221405,7.999920845031738,6.99680465221405Z"
                  fill="#656A72" fill-opacity="1"/>
        </g>
    </g>
</svg>