<!--
  - Copyright (c) 2022 NetEase, Inc. All rights reserved.
  - Use of this source code is governed by a MIT license that can be
  - found in the LICENSE file.
  -
  -->

<svg xmlns="http://www.w3.org/2000/svg" fill="none" version="1.1" width="30" height="30" viewBox="0 0 30 30">
    <defs>
        <clipPath id="master_svg0_0_155399">
            <rect x="0" y="0" width="30" height="30" rx="0"/>
        </clipPath>
    </defs>
    <g clip-path="url(#master_svg0_0_155399)">
        <g>
            <path d="M14.839079365158081,11.87207097869873C12.69687936515808,11.87207097869873,10.95927936515808,13.599230978698731,10.95927936515808,15.72971097869873C10.95927936515808,17.86021097869873,12.69687936515808,19.58741097869873,14.839079365158081,19.58741097869873C16.98207936515808,19.58741097869873,18.719679365158083,17.86021097869873,18.719679365158083,15.72971097869873C18.719679365158083,13.599230978698731,16.982179365158082,11.87207097869873,14.839079365158081,11.87207097869873ZM27.379879365158082,8.76681097869873C27.379879365158082,8.007540978698731,26.75967936515808,7.39149097869873,25.99547936515808,7.39149097869873C25.99547936515808,7.39149097869873,21.149879365158082,7.39149097869873,21.149879365158082,7.39149097869873C21.149879365158082,7.39149097869873,20.45727936515808,6.014740978698731,20.45727936515808,6.014740978698731C20.45727936515808,6.014740978698731,19.83777936515808,4.6380109786987305,19.073579365158082,4.6380109786987305C19.073579365158082,4.6380109786987305,10.76599936515808,4.6380109786987305,10.76599936515808,4.6380109786987305C10.00184936515808,4.6380109786987305,9.382319365158082,6.014740978698731,9.382319365158082,6.014740978698731C9.382319365158082,6.014740978698731,8.68978936515808,7.39149097869873,8.68978936515808,7.39149097869873C8.68978936515808,7.39149097869873,3.844049365158081,7.39149097869873,3.844049365158081,7.39149097869873C3.079929365158081,7.39149097869873,2.459679365158081,8.007540978698731,2.459679365158081,8.76681097869873C2.459679365158081,8.76681097869873,2.459679365158081,23.90941097869873,2.459679365158081,23.90941097869873C2.459679365158081,24.67011097869873,3.079929365158081,25.28621097869873,3.844049365158081,25.28621097869873C3.844049365158081,25.28621097869873,25.99547936515808,25.28621097869873,25.99547936515808,25.28621097869873C26.75967936515808,25.28621097869873,27.379879365158082,24.67011097869873,27.379879365158082,23.90941097869873C27.379879365158082,23.90941097869873,27.379879365158082,21.98201097869873,27.379879365158082,21.98201097869873C27.379879365158082,21.98201097869873,27.36807936515808,22.27551097869873,27.36807936515808,22.27551097869873C27.36807936515808,22.27551097869873,27.379879365158082,17.29151097869873,27.379879365158082,17.29151097869873C27.379879365158082,17.29151097869873,27.379879365158082,8.76681097869873,27.379879365158082,8.76681097869873ZM14.839079365158081,20.873610978698732C11.98277936515808,20.873610978698732,9.66663936515808,18.56941097869873,9.66663936515808,15.72971097869873C9.66663936515808,12.88869097869873,11.98277936515808,10.58577097869873,14.839079365158081,10.58577097869873C17.69617936515808,10.58577097869873,20.012279365158083,12.88869097869873,20.012279365158083,15.72971097869873C20.012279365158083,18.56941097869873,17.69617936515808,20.873610978698732,14.839079365158081,20.873610978698732ZM23.02997936515808,11.65379097869873C22.43967936515808,11.65379097869873,21.961979365158083,11.17538097869873,21.961979365158083,10.58577097869873C21.961979365158083,9.99616097869873,22.43967936515808,9.51774097869873,23.02997936515808,9.51774097869873C23.61957936515808,9.51774097869873,24.097979365158082,9.99616097869873,24.097979365158082,10.58577097869873C24.097979365158082,11.17538097869873,23.61957936515808,11.65379097869873,23.02997936515808,11.65379097869873Z"
                  fill="#656A72" fill-opacity="1"/>
        </g>
    </g>
</svg>