<!--
  - Copyright (c) 2022 NetEase, Inc. All rights reserved.
  - Use of this source code is governed by a MIT license that can be
  - found in the LICENSE file.
  -
  -->

<svg xmlns="http://www.w3.org/2000/svg" fill="none" version="1.1" width="36" height="36" viewBox="0 0 36 36">
    <defs>
        <clipPath id="master_svg0_0_152162">
            <rect x="0" y="0" width="36" height="36" rx="0"/>
        </clipPath>
    </defs>
    <g clip-path="url(#master_svg0_0_152162)">
        <g>
            <path d="M18.37492084503174,29.950179091644287C18.37492084503174,29.950179091644287,18.37492084503174,31.873979091644287,18.37492084503174,31.873979091644287C18.37492084503174,32.17237909164429,18.25642084503174,32.458479091644286,18.04542084503174,32.66947909164429C17.834420845031737,32.88047909164429,17.54832084503174,32.99897909164429,17.24992084503174,32.99897909164429C16.951520845031737,32.99897909164429,16.66542084503174,32.88047909164429,16.454420845031738,32.66947909164429C16.243420845031736,32.458479091644286,16.12492084503174,32.17237909164429,16.12492084503174,31.873979091644287C16.12492084503174,31.873979091644287,16.12492084503174,29.950179091644287,16.12492084503174,29.950179091644287C9.610040845031738,29.380179091644287,4.499920845031738,23.911179091644286,4.499920845031738,17.248979091644287C4.499920845031738,17.248979091644287,4.499920845031738,16.498979091644287,4.499920845031738,16.498979091644287C4.499920845031738,16.200579091644286,4.6184478450317386,15.914479091644287,4.829425845031738,15.703479091644287C5.040403845031738,15.492479091644286,5.326551845031738,15.373979091644287,5.624920845031738,15.373979091644287C5.9232908450317385,15.373979091644287,6.209440845031738,15.492479091644286,6.420420845031739,15.703479091644287C6.6313908450317385,15.914479091644287,6.749920845031738,16.200579091644286,6.749920845031738,16.498979091644287C6.749920845031738,16.498979091644287,6.749920845031738,17.248979091644287,6.749920845031738,17.248979091644287C6.749920845031738,23.047979091644287,11.450920845031739,27.748979091644287,17.24992084503174,27.748979091644287C23.048920845031738,27.748979091644287,27.74992084503174,23.047979091644287,27.74992084503174,17.248979091644287C27.74992084503174,17.248979091644287,27.74992084503174,16.498979091644287,27.74992084503174,16.498979091644287C27.74992084503174,16.200579091644286,27.86842084503174,15.914479091644287,28.079420845031738,15.703479091644287C28.29042084503174,15.492479091644286,28.576520845031737,15.373979091644287,28.87492084503174,15.373979091644287C29.17332084503174,15.373979091644287,29.459420845031737,15.492479091644286,29.67042084503174,15.703479091644287C29.881420845031737,15.914479091644287,29.99992084503174,16.200579091644286,29.99992084503174,16.498979091644287C29.99992084503174,16.498979091644287,29.99992084503174,17.248979091644287,29.99992084503174,17.248979091644287C29.99992084503174,23.91157909164429,24.88982084503174,29.380179091644287,18.37492084503174,29.950179091644287C18.37492084503174,29.950179091644287,18.37492084503174,29.950179091644287,18.37492084503174,29.950179091644287ZM9.749920845031738,10.495229091644287C9.749920845031738,6.355229091644287,13.107290845031738,2.998979091644287,17.24992084503174,2.998979091644287C21.390620845031737,2.998979091644287,24.74992084503174,6.357849091644287,24.74992084503174,10.495229091644287C24.74992084503174,10.495229091644287,24.74992084503174,17.25267909164429,24.74992084503174,17.25267909164429C24.74992084503174,21.392679091644286,21.39252084503174,24.748979091644287,17.24992084503174,24.748979091644287C13.109170845031738,24.748979091644287,9.749920845031738,21.39007909164429,9.749920845031738,17.25267909164429C9.749920845031738,17.25267909164429,9.749920845031738,10.495229091644287,9.749920845031738,10.495229091644287C9.749920845031738,10.495229091644287,9.749920845031738,10.495229091644287,9.749920845031738,10.495229091644287ZM11.999920845031738,10.495229091644287C11.999920845031738,10.495229091644287,11.999920845031738,17.25267909164429,11.999920845031738,17.25267909164429C11.999920845031738,20.14767909164429,14.351540845031739,22.498979091644287,17.24992084503174,22.498979091644287C20.150120845031736,22.498979091644287,22.49992084503174,20.150379091644286,22.49992084503174,17.25267909164429C22.49992084503174,17.25267909164429,22.49992084503174,10.495229091644287,22.49992084503174,10.495229091644287C22.49992084503174,7.600229091644287,20.14832084503174,5.248979091644287,17.24992084503174,5.248979091644287C14.349670845031739,5.248979091644287,11.999920845031738,7.5975990916442875,11.999920845031738,10.495229091644287C11.999920845031738,10.495229091644287,11.999920845031738,10.495229091644287,11.999920845031738,10.495229091644287Z"
                  fill="#FFFFFF" fill-opacity="1"/>
        </g>
    </g>
</svg>