<?xml version="1.0" standalone="no"?><!DOCTYPE svg PUBLIC "-//W3C//DTD SVG 1.1//EN" "http://www.w3.org/Graphics/SVG/1.1/DTD/svg11.dtd"><svg t="1767683329941" class="icon" viewBox="0 0 1024 1024" version="1.1" xmlns="http://www.w3.org/2000/svg" p-id="6680" xmlns:xlink="http://www.w3.org/1999/xlink" width="200" height="200"><path d="M623.3302914844444 203.89989148444442H97.74775296000001s-88.02860259555555 0-88.02860259555555 85.43952554666666v432.37578296888887c0 85.43952554666666 88.02860259555555 85.43952554666666 88.02860259555555 85.43952554666666h525.5825385244444s88.02860259555555 0 88.02860259555555-85.43952554666666V291.92849408000006c0-88.02860259555555-88.02860259555555-88.02860259555555-88.02860259555555-88.02860259555555zM983.2119307377778 247.9141922133333c-7.767230008888888-2.5890770488888886-15.534458879999999-2.5890770488888886-20.71261184 2.5890770488888886l-173.46812928 134.63198037333333c-5.17815296 5.17815296-7.767230008888888 10.35630592-7.7672288711111115 15.534458879999999v214.89335296000002c0 5.17815296 2.5890770488888886 12.945382968888888 7.7672288711111115 15.534460017777777l173.46812928 134.63197923555558c2.5890770488888886 2.5890770488888886 7.767230008888888 5.17815296 12.945381831111112 5.178154097777777 2.5890770488888886 0 5.17815296 0 10.356307057777778-2.5890770488888886 7.767230008888888-2.5890770488888886 10.35630592-10.35630592 10.35630592-18.123535928888888V266.03772814222225c0-7.767230008888888-5.17815296-15.534458879999999-12.945382968888888-18.123535928888888z" fill="#656A72" p-id="6681"></path></svg>