<!--
  - Copyright (c) 2022 NetEase, Inc. All rights reserved.
  - Use of this source code is governed by a MIT license that can be
  - found in the LICENSE file.
  -
  -->

<svg xmlns="http://www.w3.org/2000/svg" fill="none" version="1.1" width="30" height="30" viewBox="0 0 30 30">
    <defs>
        <clipPath id="master_svg0_0_155389">
            <rect x="0" y="0" width="30" height="30" rx="0"/>
        </clipPath>
    </defs>
    <g clip-path="url(#master_svg0_0_155389)">
        <g>
            <path d="M5.0023,13.06102C5.0023,13.06102,3,20.4026,3,20.4026C3,20.4026,3,6.31579,3,6.31579C3.000391788,5.966945,3.139145,5.632497,3.385818,5.385823C3.632492,5.13915,3.96694,5.00039673,4.31579,5.00000493624C4.31579,5.00000493624,10.56776,5.00000493624,10.56776,5.00000493624C10.74062,4.999529906,10.91187,5.0333446,11.07157,5.0994919C11.23128,5.165639,11.37628,5.262805,11.49819,5.3853670000000005C11.49819,5.3853670000000005,14.1936,8.08076,14.1936,8.08076C14.2179,8.1053,14.2469,8.12476,14.2788,8.138C14.3108,8.151250000000001,14.345,8.15801,14.3796,8.1579C14.3796,8.1579,23.7895,8.1579,23.7895,8.1579C24.1383,8.158290000000001,24.4728,8.297039999999999,24.7194,8.54372C24.9661,8.79039,25.1049,9.124839999999999,25.1053,9.473690000000001C25.1053,9.473690000000001,25.1053,11.31579,25.1053,11.31579C25.1053,11.31579,7.28717,11.31579,7.28717,11.31579C6.76783,11.31664,6.26311,11.4878,5.85039,11.803049999999999C5.43767,12.11829,5.139749999999999,12.5602,5.0023,13.06102C5.0023,13.06102,5.0023,13.06102,5.0023,13.06102ZM27.749,12.88553C27.6267,12.72417,27.4686,12.59346,27.2871,12.503720000000001C27.1056,12.413969999999999,26.9057,12.36766,26.7033,12.36842C26.7033,12.36842,7.28717,12.36842,7.28717,12.36842C6.99854,12.368970000000001,6.71807,12.46419,6.488770000000001,12.639479999999999C6.25947,12.81477,6.093999999999999,13.06044,6.01776,13.33882C6.01776,13.33882,3.29046,23.3388,3.29046,23.3388C3.237375,23.534,3.229984,23.7387,3.2688610000000002,23.9372C3.307737,24.1356,3.391835,24.3224,3.514624,24.4831C3.637412,24.6438,3.7955870000000003,24.774,3.976863,24.8637C4.1581399999999995,24.9533,4.35764,25,4.55987,25C4.55987,25,23.976,25,23.976,25C24.2646,24.9995,24.5451,24.9042,24.7744,24.7289C25.0037,24.5537,25.1691,24.308,25.2454,24.0296C25.2454,24.0296,27.9727,14.02961,27.9727,14.02961C28.0265,13.8346,28.0343,13.62975,27.9955,13.43122C27.9566,13.23268,27.8722,13.04588,27.7488,12.88553C27.7488,12.88553,27.749,12.88553,27.749,12.88553Z"
                  fill="#656A72" fill-opacity="1"/>
        </g>
    </g>
</svg>