<!--
  - Copyright (c) 2022 NetEase, Inc. All rights reserved.
  - Use of this source code is governed by a MIT license that can be
  - found in the LICENSE file.
  -
  -->

<svg xmlns="http://www.w3.org/2000/svg" fill="none" version="1.1" width="24" height="24" viewBox="0 0 24 24">
    <defs>
        <clipPath id="master_svg0_6683_055142">
            <rect x="0" y="0" width="24" height="24" rx="0"/>
        </clipPath>
    </defs>
    <g clip-path="url(#master_svg0_6683_055142)">
        <g>
            <path d="M11.999804735183716,22.00156259536743C6.4770547351837156,22.00156259536743,1.9998047351837158,17.524262595367432,1.9998047351837158,12.001562595367432C1.9998047351837158,6.478812595367431,6.4770547351837156,2.0015625953674316,11.999804735183716,2.0015625953674316C17.522504735183716,2.0015625953674316,21.999804735183716,6.478812595367431,21.999804735183716,12.001562595367432C21.999804735183716,17.524262595367432,17.522504735183716,22.00156259536743,11.999804735183716,22.00156259536743C11.999804735183716,22.00156259536743,11.999804735183716,22.00156259536743,11.999804735183716,22.00156259536743ZM11.999804735183716,20.50156259536743C16.694304735183714,20.50156259536743,20.499804735183716,16.69606259536743,20.499804735183716,12.001562595367432C20.499804735183716,7.307062595367432,16.694304735183714,3.5015625953674316,11.999804735183716,3.5015625953674316C7.305304735183716,3.5015625953674316,3.499804735183716,7.307062595367432,3.499804735183716,12.001562595367432C3.499804735183716,16.69606259536743,7.305304735183716,20.50156259536743,11.999804735183716,20.50156259536743ZM12.749804735183716,11.251562595367432C12.749804735183716,11.251562595367432,15.749804735183716,11.251562595367432,15.749804735183716,11.251562595367432C15.948704735183716,11.251562595367432,16.139504735183714,11.330582595367432,16.280104735183716,11.471232595367432C16.420804735183715,11.611882595367431,16.499804735183716,11.802652595367432,16.499804735183716,12.001562595367432C16.499804735183716,12.200462595367432,16.420804735183715,12.391262595367431,16.280104735183716,12.531862595367432C16.139504735183714,12.672562595367431,15.948704735183716,12.751562595367432,15.749804735183716,12.751562595367432C15.749804735183716,12.751562595367432,12.749804735183716,12.751562595367432,12.749804735183716,12.751562595367432C12.749804735183716,12.751562595367432,12.749804735183716,15.751562595367432,12.749804735183716,15.751562595367432C12.749804735183716,15.950462595367432,12.670804735183715,16.14126259536743,12.530104735183716,16.281862595367432C12.389504735183715,16.42256259536743,12.198704735183716,16.50156259536743,11.999804735183716,16.50156259536743C11.800894735183716,16.50156259536743,11.610124735183716,16.42256259536743,11.469474735183717,16.281862595367432C11.328824735183716,16.14126259536743,11.249804735183716,15.950462595367432,11.249804735183716,15.751562595367432C11.249804735183716,15.751562595367432,11.249804735183716,12.751562595367432,11.249804735183716,12.751562595367432C11.249804735183716,12.751562595367432,8.249804735183716,12.751562595367432,8.249804735183716,12.751562595367432C8.050894735183716,12.751562595367432,7.860124735183716,12.672562595367431,7.719474735183716,12.531862595367432C7.578824735183716,12.391262595367431,7.499804735183716,12.200462595367432,7.499804735183716,12.001562595367432C7.499804735183716,11.802652595367432,7.578824735183716,11.611882595367431,7.719474735183716,11.471232595367432C7.860124735183716,11.330582595367432,8.050894735183716,11.251562595367432,8.249804735183716,11.251562595367432C8.249804735183716,11.251562595367432,11.249804735183716,11.251562595367432,11.249804735183716,11.251562595367432C11.249804735183716,11.251562595367432,11.249804735183716,8.251562595367432,11.249804735183716,8.251562595367432C11.249804735183716,8.052652595367432,11.328824735183716,7.861882595367431,11.469474735183717,7.7212325953674315C11.610124735183716,7.5805825953674315,11.800894735183716,7.501562595367432,11.999804735183716,7.501562595367432C12.198704735183716,7.501562595367432,12.389504735183715,7.5805825953674315,12.530104735183716,7.7212325953674315C12.670804735183715,7.861882595367431,12.749804735183716,8.052652595367432,12.749804735183716,8.251562595367432C12.749804735183716,8.251562595367432,12.749804735183716,11.251562595367432,12.749804735183716,11.251562595367432C12.749804735183716,11.251562595367432,12.749804735183716,11.251562595367432,12.749804735183716,11.251562595367432Z"
                  fill="#337EFF" fill-opacity="1"/>
        </g>
    </g>
</svg>