<!--
  - Copyright (c) 2022 NetEase, Inc. All rights reserved.
  - Use of this source code is governed by a MIT license that can be
  - found in the LICENSE file.
  -
  -->

<svg xmlns="http://www.w3.org/2000/svg" fill="none" version="1.1" width="24" height="24" viewBox="0 0 24 24">
    <defs>
        <clipPath id="master_svg0_0_147223">
            <rect x="0" y="0" width="24" height="24" rx="0"/>
        </clipPath>
    </defs>
    <g clip-path="url(#master_svg0_0_147223)">
        <g>
            <path d="M21.999804735183716,12.980937404632568C21.999804735183716,12.980937404632568,21.999804735183716,17.99843740463257,21.999804735183716,17.99843740463257C21.999804735183716,19.517137404632567,20.768604735183715,20.74843740463257,19.249804735183716,20.74843740463257C19.249804735183716,20.74843740463257,4.749804735183716,20.74843740463257,4.749804735183716,20.74843740463257C3.231054735183716,20.74843740463257,1.9998047586212158,19.517137404632567,1.9998047351837158,17.99843740463257C1.9998047351837158,17.99843740463257,1.9998047351837158,5.998437404632568,1.9998047351837158,5.998437404632568C1.9998047351837158,4.4796874046325685,3.231054735183716,3.2484374046325684,4.749804735183716,3.2484374046325684C4.749804735183716,3.2484374046325684,19.249804735183716,3.2484374046325684,19.249804735183716,3.2484374046325684C20.768604735183715,3.2484374046325684,21.999804735183716,4.4796874046325685,21.999804735183716,5.998437404632568C21.999804735183716,5.998437404632568,21.999804735183716,12.980937404632568,21.999804735183716,12.980937404632568C21.999804735183716,12.980937404632568,21.999804735183716,12.980937404632568,21.999804735183716,12.980937404632568ZM20.499804735183716,11.231937404632568C20.499804735183716,11.231937404632568,20.499804735183716,5.998437404632568,20.499804735183716,5.998437404632568C20.499804735183716,5.834287404632569,20.467504735183716,5.671737404632568,20.404704735183717,5.5200874046325685C20.341804735183715,5.368427404632568,20.249804735183716,5.2306274046325685,20.133704735183716,5.114557404632569C20.017604735183717,4.998477404632569,19.879804735183715,4.906407404632568,19.728204735183716,4.843587404632569C19.576504735183715,4.780767404632568,19.414004735183717,4.748437404632568,19.249804735183716,4.748437404632568C19.249804735183716,4.748437404632568,4.749804735183716,4.748437404632568,4.749804735183716,4.748437404632568C4.5856547351837165,4.748437404632568,4.423104735183715,4.780767404632568,4.271454735183716,4.843587404632569C4.119794735183715,4.906407404632568,3.981994735183716,4.998477404632569,3.865924735183716,5.114557404632569C3.749844735183716,5.2306274046325685,3.6577747351837155,5.368427404632568,3.594954735183716,5.5200874046325685C3.532134735183716,5.671737404632568,3.499804735183716,5.834287404632569,3.499804735183716,5.998437404632568C3.499804735183716,5.998437404632568,3.499804735183716,14.072137404632569,3.499804735183716,14.072137404632569C3.8308647351837157,14.023037404632568,4.165114735183716,13.998337404632569,4.499804735183716,13.998437404632568C6.067954735183716,13.996137404632568,7.587584735183716,14.542037404632568,8.795804735183715,15.541637404632569C10.008304735183716,12.382437404632569,13.052304735183716,10.248437404632568,16.499804735183716,10.248437404632568C18.039804735183715,10.248437404632568,19.476304735183717,10.641687404632568,20.499804735183716,11.231937404632568C20.499804735183716,11.231937404632568,20.499804735183716,11.231937404632568,20.499804735183716,11.231937404632568ZM20.499804735183716,13.159437404632568C20.374804735183716,12.964437404632568,20.004604735183715,12.651937404632568,19.476804735183716,12.387937404632568C18.674104735183715,11.986437404632568,17.649304735183716,11.748437404632568,16.499804735183716,11.748437404632568C13.645804735183717,11.748437404632568,11.129554735183715,13.535937404632568,10.161554735183715,16.170937404632568C10.097554735183715,16.34543740463257,9.988054735183717,16.647137404632566,9.833554735183716,17.07513740463257C9.653554735183715,17.57443740463257,9.026054735183717,17.73393740463257,8.629554735183715,17.381137404632568C8.244304735183716,17.038137404632568,7.9603047351837155,16.79363740463257,7.782554735183716,16.651137404632568C6.852164735183716,15.903137404632568,5.693624735183716,15.496337404632568,4.499804735183716,15.498437404632568C4.160804735183715,15.498437404632568,3.826554735183716,15.530437404632568,3.499804735183716,15.593437404632569C3.499804735183716,15.593437404632569,3.499804735183716,17.99843740463257,3.499804735183716,17.99843740463257C3.499804735183716,18.162537404632566,3.532134735183716,18.32513740463257,3.594954735183716,18.47683740463257C3.6577747351837155,18.62843740463257,3.749844735183716,18.76623740463257,3.865924735183716,18.88233740463257C3.981994735183716,18.99843740463257,4.119794735183715,19.090437404632567,4.271454735183716,19.15323740463257C4.423104735183715,19.21613740463257,4.5856547351837165,19.24843740463257,4.749804735183716,19.24843740463257C4.749804735183716,19.24843740463257,19.249804735183716,19.24843740463257,19.249804735183716,19.24843740463257C19.414004735183717,19.24843740463257,19.576504735183715,19.21613740463257,19.728204735183716,19.15323740463257C19.879804735183715,19.090437404632567,20.017604735183717,18.99843740463257,20.133704735183716,18.88233740463257C20.249804735183716,18.76623740463257,20.341804735183715,18.62843740463257,20.404704735183717,18.47683740463257C20.467504735183716,18.32513740463257,20.499804735183716,18.162537404632566,20.499804735183716,17.99843740463257C20.499804735183716,17.99843740463257,20.499804735183716,13.159187404632569,20.499804735183716,13.159187404632569C20.499804735183716,13.159187404632569,20.499804735183716,13.159437404632568,20.499804735183716,13.159437404632568ZM7.499804735183716,11.248437404632568C6.903064735183716,11.248437404632568,6.330774735183716,11.011387404632568,5.908814735183716,10.589427404632568C5.486854735183716,10.167467404632568,5.249804735183716,9.595177404632569,5.249804735183716,8.998437404632568C5.249804735183716,8.401697404632568,5.486854735183716,7.829407404632568,5.908814735183716,7.407447404632569C6.330774735183716,6.985487404632568,6.903064735183716,6.748437404632568,7.499804735183716,6.748437404632568C8.096544735183716,6.748437404632568,8.668834735183715,6.985487404632568,9.090794735183716,7.407447404632569C9.512754735183716,7.829407404632568,9.749804735183716,8.401697404632568,9.749804735183716,8.998437404632568C9.749804735183716,9.595177404632569,9.512754735183716,10.167467404632568,9.090794735183716,10.589427404632568C8.668834735183715,11.011387404632568,8.096544735183716,11.248437404632568,7.499804735183716,11.248437404632568ZM7.499804735183716,9.748437404632568C7.6987147351837155,9.748437404632568,7.889484735183716,9.669417404632568,8.030134735183715,9.528767404632568C8.170784735183716,9.388117404632569,8.249804735183716,9.197347404632568,8.249804735183716,8.998437404632568C8.249804735183716,8.799527404632569,8.170784735183716,8.608757404632568,8.030134735183715,8.468107404632569C7.889484735183716,8.327457404632568,7.6987147351837155,8.248437404632568,7.499804735183716,8.248437404632568C7.300894735183716,8.248437404632568,7.110124735183716,8.327457404632568,6.969474735183716,8.468107404632569C6.828824735183716,8.608757404632568,6.749804735183716,8.799527404632569,6.749804735183716,8.998437404632568C6.749804735183716,9.197347404632568,6.828824735183716,9.388117404632569,6.969474735183716,9.528767404632568C7.110124735183716,9.669417404632568,7.300894735183716,9.748437404632568,7.499804735183716,9.748437404632568C7.499804735183716,9.748437404632568,7.499804735183716,9.748437404632568,7.499804735183716,9.748437404632568Z"
                  fill="#656A72" fill-opacity="1"/>
        </g>
    </g>
</svg>