<!--
  - Copyright (c) 2022 NetEase, Inc. All rights reserved.
  - Use of this source code is governed by a MIT license that can be
  - found in the LICENSE file.
  -
  -->

<svg xmlns="http://www.w3.org/2000/svg" fill="none" version="1.1" width="24" height="24" viewBox="0 0 24 24">
    <defs>
        <clipPath id="master_svg0_0_147217">
            <rect x="0" y="0" width="24" height="24" rx="0"/>
        </clipPath>
    </defs>
    <g clip-path="url(#master_svg0_0_147217)">
        <g>
            <path d="M20.456249237060547,17.720059581469727C20.456249237060547,17.720059581469727,20.458025357060546,17.720059581469727,20.458025357060546,17.720059581469727C20.458025357060546,17.720059581469727,20.458025357060546,17.709375381469727,20.458025357060546,17.709375381469727C20.458025357060546,17.709375381469727,20.456249237060547,17.720059581469727,20.456249237060547,17.720059581469727Z"
                  fill="#656A72" fill-opacity="1"/>
        </g>
        <g>
            <path d="M18.920487404632567,5.079547404632568C15.104587404632568,1.2630664046325684,8.89536740463257,1.2630664046325684,5.079547404632568,5.079547404632568C1.2630664046325684,8.895337404632567,1.2630664046325684,15.104587404632568,5.079547404632568,18.920387404632567C8.89536740463257,22.73688740463257,15.104687404632568,22.73688740463257,18.920487404632567,18.920387404632567C22.73688740463257,15.104587404632568,22.73688740463257,8.895337404632567,18.920487404632567,5.079547404632568ZM17.92718740463257,17.927787404632568C14.65888740463257,21.196087404632568,9.340357404632568,21.19538740463257,6.072497404632568,17.927787404632568C2.8039254046325683,14.65888740463257,2.8039254046325683,9.341387404632568,6.072497404632568,6.072507404632568C9.340357404632568,2.8046214046325684,14.658987404632569,2.8039024046325682,17.92718740463257,6.072507404632568C21.19538740463257,9.340357404632568,21.19538740463257,14.659587404632568,17.92718740463257,17.927787404632568Z"
                  fill="#656A72" fill-opacity="1"/>
        </g>
        <g>
            <path d="M8.946406059265136,10.968625C9.527266059265138,10.968625,10.000006059265136,10.495905,10.000006059265136,9.914705C10.000006059265136,9.33279,9.527266059265138,8.859375,8.946406059265136,8.859375C8.364149059265136,8.859375,7.891406059265137,9.33279,7.891406059265137,9.914705C7.891406059265137,10.495905,8.364149059265136,10.968625,8.946406059265136,10.968625Z"
                  fill="#656A72" fill-opacity="1"/>
        </g>
        <g>
            <path d="M15.015905068969726,10.968955C15.597445068969726,10.968955,16.07083506896973,10.495205,16.07083506896973,9.913985C16.07083506896973,9.332094,15.597445068969726,8.859375,15.015905068969726,8.859375C14.435000068969726,8.859375,13.962305068969728,9.332094,13.962305068969728,9.913985C13.962305045532226,10.495205,14.435000068969726,10.968955,15.015905068969726,10.968955Z"
                  fill="#656A72" fill-opacity="1"/>
        </g>
        <g>
            <path d="M15.052713246765137,14.510339190734863C15.052713246765137,14.510339190734863,14.995203246765136,14.529045990734863,14.995203246765136,14.529045990734863C14.050433246765136,14.956747690734863,13.037023246765138,15.174375690734863,11.985553246765136,15.174375690734863C10.899383246765137,15.174375690734863,9.872103246765137,14.954637690734863,8.931513246765137,14.522834690734863C8.931513246765137,14.522834690734863,8.874671246765137,14.505446890734863,8.874671246765137,14.505446890734863C8.839319246765136,14.495757490734864,8.791495246765137,14.481919300734864,8.731872246765137,14.481919300734864C8.386003246765137,14.481919300734864,8.105273246765137,14.762648690734864,8.105273246765137,15.107126690734864C8.105273246765137,15.270695690734863,8.182213146765136,15.434982690734863,8.309063246765136,15.558377690734863C8.309063246765136,15.558377690734863,8.301436246765137,15.596467690734864,8.301436246765137,15.596467690734864C8.301436246765137,15.596467690734864,8.461552246765137,15.668557690734863,8.461552246765137,15.668557690734863C9.584473246765137,16.176677690734863,10.805793246765138,16.444237690734862,11.993153246765136,16.444237690734862C13.202733246765137,16.444237690734862,14.388003246765138,16.183607690734863,15.531713246765136,15.662327690734863C15.732703246765137,15.552097690734863,15.858163246765137,15.340726690734863,15.858163246765137,15.111274690734863C15.858163246765137,14.707221690734864,15.492913246765138,14.375166690734863,15.052713246765137,14.510339190734863Z"
                  fill="#656A72" fill-opacity="1"/>
        </g>
    </g>
</svg>